<?xml version="1.0" encoding="UTF-8" standalone="no"?>
<!-- Created with Inkscape (http://www.inkscape.org/) -->

<svg
   width="102.94278mm"
   height="63.84465mm"
   viewBox="0 0 102.94278 63.84465"
   version="1.1"
   id="svg1"
   xmlns="http://www.w3.org/2000/svg"
   xmlns:svg="http://www.w3.org/2000/svg">
  <defs
     id="defs1">
    <marker
       style="overflow:visible"
       id="Triangle-6-7-2-5"
       refX="0"
       refY="0"
       orient="auto-start-reverse"
       markerWidth="0.5"
       markerHeight="0.5"
       viewBox="0 0 1 1"
       preserveAspectRatio="xMidYMid">
      <path
         transform="scale(0.5)"
         style="fill:context-stroke;fill-rule:evenodd;stroke:context-stroke;stroke-width:1pt"
         d="M 5.77,0 -2.88,5 V -5 Z"
         id="path135-5-1-6-4" />
    </marker>
  </defs>
  <g
     id="layer1"
     transform="translate(-237.59582,-105.05502)">
    <rect
       style="fill:#f4f4f4;fill-opacity:1;stroke:#575756;stroke-width:0.312218;stroke-opacity:1"
       id="rect12-0-4-5-0"
       width="51.473583"
       height="56.337215"
       x="286.4826"
       y="112.40635"
       ry="1.1751615" />
    <rect
       style="fill:#f4f4f4;fill-opacity:1;stroke:#575756;stroke-width:0.312218;stroke-opacity:1"
       id="rect12-0-4-0"
       width="51.473583"
       height="56.337215"
       x="285.01489"
       y="110.87045"
       ry="1.1751615" />
    <rect
       style="fill:#f4f4f4;fill-opacity:1;stroke:#575756;stroke-width:0.312218;stroke-opacity:1"
       id="rect12-0-1"
       width="51.473583"
       height="56.337215"
       x="283.14847"
       y="109.02051"
       ry="1.1751615" />
    <rect
       style="fill:#f4f4f4;fill-opacity:1;stroke:#575756;stroke-width:0.312218;stroke-opacity:1"
       id="rect12-4"
       width="51.473583"
       height="56.337215"
       x="281.24686"
       y="107.17848"
       ry="1.1751615" />
    <rect
       style="fill:#f18828;fill-opacity:1;stroke-width:0.229576"
       id="rect1-8-6"
       width="20.385908"
       height="20.385908"
       x="285.7951"
       y="116.38412"
       ry="0.49072382" />
    <rect
       style="fill:#009fe3;fill-opacity:1;stroke-width:0.229576"
       id="rect1-6-2-0"
       width="20.385908"
       height="20.385908"
       x="307.78629"
       y="116.38412"
       ry="0.49072382" />
    <path
       style="font-weight:600;font-size:5.73885px;font-family:Rajdhani;-inkscape-font-specification:'Rajdhani Semi-Bold';fill:#ffffff;stroke-width:0.478236"
       d="m 292.48736,126.20625 h -0.6657 q -0.42468,0 -0.65997,-0.23529 -0.22956,-0.23529 -0.22956,-0.65423 v -1.91104 q 0,-0.42467 0.22956,-0.65422 0.23529,-0.2353 0.65997,-0.2353 h 0.6657 q 0.41894,0 0.65423,0.2353 0.23529,0.22955 0.23529,0.65422 v 0.27547 q 0,0.1033 -0.10329,0.1033 h -0.36155 q -0.0976,0 -0.0976,-0.1033 v -0.25251 q 0,-0.42468 -0.4132,-0.42468 H 291.902 q -0.4132,0 -0.4132,0.42468 v 1.86513 q 0,0.42467 0.4132,0.42467 h 0.49928 q 0.4132,0 0.4132,-0.42467 v -0.25251 q 0,-0.1033 0.0976,-0.1033 h 0.36155 q 0.10329,0 0.10329,0.1033 v 0.27546 q 0,0.41894 -0.23529,0.65423 -0.23529,0.23529 -0.65423,0.23529 z m 2.88091,0 h -0.50502 q -0.42467,0 -0.65997,-0.23529 -0.22955,-0.23529 -0.22955,-0.65423 v -1.14777 q 0,-0.42467 0.22955,-0.65423 0.2353,-0.23529 0.65997,-0.23529 h 0.50502 q 0.41894,0 0.65423,0.23529 0.24103,0.22956 0.24103,0.65423 v 1.14777 q 0,0.41894 -0.24103,0.65423 -0.23529,0.23529 -0.65423,0.23529 z m -0.42467,-0.4878 h 0.35007 q 0.41319,0 0.41319,-0.41894 v -1.11333 q 0,-0.41894 -0.41319,-0.41894 h -0.35007 q -0.21808,0 -0.31564,0.1033 -0.0976,0.0976 -0.0976,0.31564 v 1.11333 q 0,0.21808 0.0976,0.32138 0.0976,0.0976 0.31564,0.0976 z m 2.43901,0.4878 h -0.36155 q -0.0976,0 -0.0976,-0.0976 V 123.377 q 0,-0.0976 0.0976,-0.0976 h 0.36155 q 0.0976,0 0.0976,0.0976 v 0.21808 h 0.023 q 0.0574,-0.14348 0.21808,-0.22956 0.16642,-0.0861 0.36728,-0.0861 h 0.21234 q 0.0976,0 0.0976,0.0976 v 0.29842 q 0,0.10904 -0.0976,0.0918 h -0.34433 q -0.47632,0 -0.47632,0.52224 v 1.81921 q 0,0.0976 -0.0976,0.0976 z m 3.53512,0 h -1.23959 q -0.42467,0 -0.65997,-0.23529 -0.22955,-0.23529 -0.22955,-0.65423 v -1.14777 q 0,-0.42467 0.22955,-0.65423 0.2353,-0.23529 0.65997,-0.23529 h 0.47059 q 0.42467,0 0.65996,0.23529 0.2353,0.22956 0.2353,0.65423 v 0.72884 q 0,0.10329 -0.1033,0.10329 h -1.53801 q -0.0631,0 -0.0631,0.0574 v 0.24677 q 0,0.41894 0.41893,0.41894 h 1.15925 q 0.1033,0 0.1033,0.1033 v 0.28694 q 0,0.0918 -0.1033,0.0918 z m -1.51505,-1.5954 h 1.02725 q 0.0574,0 0.0574,-0.0574 v -0.36728 q 0,-0.21808 -0.0976,-0.31564 -0.0976,-0.1033 -0.31564,-0.1033 h -0.31564 q -0.21807,0 -0.31563,0.1033 -0.0976,0.0976 -0.0976,0.31564 v 0.36728 q 0,0.0574 0.0574,0.0574 z"
       id="text1-8-4-7"
       aria-label="Core" />
    <path
       style="font-weight:600;font-size:5.73885px;font-family:Rajdhani;-inkscape-font-specification:'Rajdhani Semi-Bold';stroke-width:0.478236"
       d="m 303.48297,113.41927 h -0.66571 q -0.42467,0 -0.65997,-0.23529 -0.22955,-0.23529 -0.22955,-0.65423 v -1.91104 q 0,-0.42467 0.22955,-0.65422 0.2353,-0.2353 0.65997,-0.2353 h 0.66571 q 0.41893,0 0.65423,0.2353 0.23529,0.22955 0.23529,0.65422 v 0.27547 q 0,0.1033 -0.1033,0.1033 h -0.36155 q -0.0976,0 -0.0976,-0.1033 v -0.25251 q 0,-0.42467 -0.41319,-0.42467 h -0.49928 q -0.4132,0 -0.4132,0.42467 v 1.86513 q 0,0.42467 0.4132,0.42467 h 0.49928 q 0.41319,0 0.41319,-0.42467 v -0.25251 q 0,-0.1033 0.0976,-0.1033 h 0.36155 q 0.1033,0 0.1033,0.1033 v 0.27546 q 0,0.41894 -0.23529,0.65423 -0.2353,0.23529 -0.65423,0.23529 z m 2.88091,0 h -0.50502 q -0.42468,0 -0.65997,-0.23529 -0.22955,-0.23529 -0.22955,-0.65423 v -1.14777 q 0,-0.42467 0.22955,-0.65423 0.23529,-0.23529 0.65997,-0.23529 h 0.50502 q 0.41893,0 0.65423,0.23529 0.24103,0.22956 0.24103,0.65423 v 1.14777 q 0,0.41894 -0.24103,0.65423 -0.2353,0.23529 -0.65423,0.23529 z m -0.42468,-0.4878 h 0.35007 q 0.4132,0 0.4132,-0.41893 v -1.11334 q 0,-0.41894 -0.4132,-0.41894 h -0.35007 q -0.21807,0 -0.31564,0.1033 -0.0976,0.0976 -0.0976,0.31564 v 1.11334 q 0,0.21807 0.0976,0.32137 0.0976,0.0976 0.31564,0.0976 z m 2.43901,0.4878 h -0.36155 q -0.0976,0 -0.0976,-0.0976 v -2.73169 q 0,-0.0976 0.0976,-0.0976 h 0.36155 q 0.0976,0 0.0976,0.0976 v 0.21808 h 0.023 q 0.0574,-0.14347 0.21807,-0.22956 0.16643,-0.0861 0.36729,-0.0861 h 0.21234 q 0.0976,0 0.0976,0.0976 v 0.29842 q 0,0.10904 -0.0976,0.0918 h -0.34433 q -0.47633,0 -0.47633,0.52224 v 1.81921 q 0,0.0976 -0.0976,0.0976 z m 3.53513,0 h -1.23959 q -0.42468,0 -0.65997,-0.23529 -0.22956,-0.23529 -0.22956,-0.65423 v -1.14777 q 0,-0.42467 0.22956,-0.65423 0.23529,-0.23529 0.65997,-0.23529 h 0.47058 q 0.42468,0 0.65997,0.23529 0.23529,0.22956 0.23529,0.65423 v 0.72884 q 0,0.10329 -0.1033,0.10329 h -1.53801 q -0.0631,0 -0.0631,0.0574 v 0.24677 q 0,0.41894 0.41894,0.41894 h 1.15925 q 0.1033,0 0.1033,0.1033 v 0.28694 q 0,0.0918 -0.1033,0.0918 z m -1.51506,-1.5954 h 1.02726 q 0.0574,0 0.0574,-0.0574 v -0.36728 q 0,-0.21808 -0.0976,-0.31564 -0.0976,-0.1033 -0.31563,-0.1033 h -0.31564 q -0.21808,0 -0.31564,0.1033 -0.0976,0.0976 -0.0976,0.31564 v 0.36728 q 0,0.0574 0.0574,0.0574 z"
       id="text1-8-4-8-7"
       aria-label="Core" />
    <path
       style="font-weight:600;font-size:5.73885px;font-family:Rajdhani;-inkscape-font-specification:'Rajdhani Semi-Bold';stroke-width:0.478236"
       d="m 326.03923,-132.05809 h -0.43615 q -0.12625,0 -0.0631,-0.0976 l 0.76327,-1.39454 -0.74605,-1.33715 q -0.0631,-0.0976 0.0516,-0.0976 h 0.44189 q 0.10904,0 0.14921,0.0976 l 0.46485,0.98708 h 0.023 l 0.43616,-0.98708 q 0.0402,-0.0976 0.14347,-0.0976 h 0.43615 q 0.12052,0 0.0574,0.0976 l -0.7231,1.33141 0.78049,1.40028 q 0.0574,0.0976 -0.0516,0.0976 h -0.45337 q -0.0976,0 -0.13773,-0.0976 l -0.48781,-1.01578 h -0.023 l -0.48206,1.01578 q -0.0402,0.0976 -0.14348,0.0976 z m 3.80487,-1.19368 v -2.03155 l -1.13056,2.03155 z m 0.43615,1.19368 h -0.33859 q -0.0976,0 -0.0976,-0.0976 v -0.60258 H 328.329 q -0.16643,0 -0.16643,-0.16643 v -0.1779 q 0,-0.12626 0.0517,-0.22382 l 1.27977,-2.27832 q 0.0459,-0.0861 0.0861,-0.11478 0.0402,-0.0287 0.12052,-0.0287 h 0.50501 q 0.16643,0 0.16643,0.16643 v 2.32997 h 0.41894 q 0.0976,0 0.0976,0.0976 v 0.28694 q 0,0.10904 -0.0976,0.10904 h -0.41894 v 0.60258 q 0,0.0976 -0.0918,0.0976 z"
       id="text1-8-4-8-8-7"
       transform="rotate(39.862151)"
       aria-label="x4" />
    <path
       style="font-weight:600;font-size:5.73885px;font-family:Rajdhani;-inkscape-font-specification:'Rajdhani Semi-Bold';text-align:center;text-anchor:middle;fill:#ffffff;stroke-width:0.325317"
       d="m 313.78671,125.71845 h 0.80918 q 0.4132,0 0.4132,-0.42467 v -1.86513 q 0,-0.42468 -0.4132,-0.42468 h -0.80918 q -0.0631,0 -0.0631,0.0574 v 2.59396 q 0,0.0631 0.0631,0.0631 z m -0.61979,0.39024 v -3.49496 q 0,-0.0976 0.0976,-0.0976 h 1.41176 q 0.41893,0 0.65423,0.2353 0.24103,0.22955 0.24103,0.65422 v 1.91104 q 0,0.41894 -0.24103,0.65423 -0.2353,0.23529 -0.65423,0.23529 h -1.41176 q -0.0976,0 -0.0976,-0.0976 z m 5.71016,-3.59252 h 0.64275 q 0.0976,0 0.0976,0.0976 v 3.49496 q 0,0.0976 -0.0976,0.0976 h -0.35581 q -0.0976,0 -0.0976,-0.0976 v -2.89812 h -0.023 l -0.74605,2.10042 q -0.0344,0.0918 -0.12625,0.0918 h -0.36729 q -0.0861,0 -0.12051,-0.0918 l -0.76327,-2.10616 h -0.023 v 2.90386 q 0,0.0574 -0.023,0.0804 -0.0172,0.0172 -0.0746,0.0172 h -0.35007 q -0.0976,0 -0.0976,-0.0976 v -3.49496 q 0,-0.0976 0.0976,-0.0976 h 0.64275 q 0.0631,0 0.0918,0.0631 l 0.78622,2.2152 h 0.0287 l 0.79196,-2.2152 q 0.0115,-0.0631 0.0861,-0.0631 z m 1.77904,3.69008 h -0.4132 q -0.0803,0 -0.0574,-0.0976 l 0.99856,-3.49496 q 0.0287,-0.0976 0.13773,-0.0976 h 0.57388 q 0.11478,0 0.13773,0.0976 l 0.99856,3.49496 q 0.023,0.0976 -0.0631,0.0976 h -0.40746 q -0.0516,0 -0.0746,-0.0172 -0.0172,-0.023 -0.0287,-0.0804 l -0.21808,-0.74605 h -1.26254 l -0.21808,0.74605 q -0.023,0.0976 -0.1033,0.0976 z m 0.94117,-3.13915 -0.50502,1.83643 h 1.03874 l -0.51076,-1.83643 z"
       id="text1-8-7-5-3"
       aria-label="DMA&#10;" />
    <rect
       style="fill:#009fe3;fill-opacity:1;stroke-width:0.330999"
       id="rect1-6-2-1-9"
       width="42.377102"
       height="20.385908"
       x="285.7951"
       y="138.82585"
       ry="0.49072382" />
    <path
       style="font-weight:600;font-size:5.73885px;font-family:Rajdhani;-inkscape-font-specification:'Rajdhani Semi-Bold';text-align:center;text-anchor:middle;fill:#ffffff;stroke-width:0.325317"
       d="m 294.07984,144.22673 v -0.14921 q 0,-0.0976 0.0976,-0.0976 h 0.36729 q 0.0976,0 0.0976,0.0976 v 0.1033 q 0,0.24103 0.1033,0.35007 0.10904,0.1033 0.35581,0.1033 h 0.39598 q 0.24677,0 0.35581,-0.10904 0.10903,-0.11477 0.10903,-0.36728 v -0.132 q 0,-0.18364 -0.14347,-0.28694 -0.13773,-0.10904 -0.34433,-0.13773 -0.2066,-0.0344 -0.45337,-0.0918 -0.24677,-0.0574 -0.45337,-0.132 -0.2066,-0.0746 -0.35007,-0.2812 -0.13773,-0.2066 -0.13773,-0.52797 v -0.24104 q 0,-0.41893 0.23529,-0.65422 0.24104,-0.24104 0.65997,-0.24104 h 0.60832 q 0.42467,0 0.65997,0.24104 0.24103,0.23529 0.24103,0.65422 v 0.12626 q 0,0.0976 -0.0976,0.0976 h -0.36729 q -0.0976,0 -0.0976,-0.0976 v -0.0746 q 0,-0.24677 -0.10904,-0.35007 -0.1033,-0.10903 -0.35007,-0.10903 h -0.36154 q -0.24677,0 -0.35581,0.11477 -0.1033,0.10904 -0.1033,0.37877 v 0.1779 q 0,0.25825 0.37302,0.35007 0.16643,0.0402 0.36155,0.0689 0.20086,0.0287 0.40172,0.0861 0.20086,0.0574 0.36729,0.15495 0.16642,0.0918 0.26972,0.28694 0.1033,0.18938 0.1033,0.46485 v 0.22381 q 0,0.41894 -0.24103,0.65997 -0.23529,0.23529 -0.65423,0.23529 h -0.64275 q -0.41894,0 -0.65997,-0.23529 -0.24103,-0.24103 -0.24103,-0.65997 z m 4.93541,0.50502 v 0.29842 q 0,0.0918 -0.1033,0.0918 h -0.84361 q -0.42467,0 -0.65996,-0.23529 -0.22956,-0.23529 -0.22956,-0.65423 v -1.14777 q 0,-0.42467 0.22956,-0.65423 0.23529,-0.23529 0.65996,-0.23529 h 0.84361 q 0.1033,0 0.1033,0.0976 v 0.29842 q 0,0.0918 -0.1033,0.0918 h -0.76326 q -0.4132,0 -0.4132,0.42468 v 1.10186 q 0,0.42467 0.4132,0.42467 h 0.76326 q 0.1033,0 0.1033,0.0976 z m 1.00431,0.39024 h -0.36155 q -0.0976,0 -0.0976,-0.0976 v -2.73169 q 0,-0.0976 0.0976,-0.0976 h 0.36155 q 0.0976,0 0.0976,0.0976 v 0.21808 h 0.0229 q 0.0574,-0.14347 0.21808,-0.22956 0.16643,-0.0861 0.36729,-0.0861 h 0.21233 q 0.0976,0 0.0976,0.0976 v 0.29842 q 0,0.10904 -0.0976,0.0918 h -0.34433 q -0.47632,0 -0.47632,0.52224 v 1.81921 q 0,0.0976 -0.0976,0.0976 z m 2.51935,0 h -0.22382 q -0.42467,0 -0.65997,-0.23529 -0.22955,-0.23529 -0.22955,-0.65423 v -1.14777 q 0,-0.42467 0.22955,-0.65423 0.2353,-0.23529 0.65997,-0.23529 h 1.2855 q 0.1033,0 0.1033,0.0976 v 2.73169 q 0,0.0976 -0.1033,0.0976 h -0.36154 q -0.0976,0 -0.0976,-0.0976 v -0.2066 h -0.023 q -0.13773,0.30416 -0.57962,0.30416 z m 0.60258,-0.9756 v -1.40602 q 0,-0.0574 -0.0631,-0.0574 h -0.68292 q -0.4132,0 -0.4132,0.42468 v 1.10186 q 0,0.42467 0.4132,0.42467 h 0.27546 q 0.47059,0 0.47059,-0.4878 z m 1.36584,-1.46341 h -0.27547 q -0.0574,0 -0.0803,-0.0172 -0.0172,-0.023 -0.0172,-0.0746 v -0.29842 q 0,-0.0976 0.0976,-0.0976 h 0.27547 q 0.0574,0 0.0574,-0.0574 v -0.51649 q 0,-0.0976 0.10329,-0.0976 h 0.36155 q 0.0976,0 0.0976,0.0976 v 0.51649 q 0,0.0574 0.0631,0.0574 h 0.53371 q 0.1033,0 0.1033,0.0976 v 0.29842 q 0,0.0918 -0.1033,0.0918 h -0.53371 q -0.0631,0 -0.0631,0.0574 v 1.47489 q 0,0.41893 0.43042,0.41893 h 0.22381 q 0.1033,0 0.1033,0.0976 v 0.29842 q 0,0.0918 -0.1033,0.0918 h -0.3099 q -0.42467,0 -0.6657,-0.22955 -0.24103,-0.22955 -0.24103,-0.64849 v -1.50358 q 0,-0.0574 -0.0574,-0.0574 z m 3.70729,2.04877 v 0.29842 q 0,0.0918 -0.1033,0.0918 h -0.84361 q -0.42467,0 -0.65996,-0.23529 -0.22956,-0.23529 -0.22956,-0.65423 v -1.14777 q 0,-0.42467 0.22956,-0.65423 0.23529,-0.23529 0.65996,-0.23529 h 0.84361 q 0.1033,0 0.1033,0.0976 v 0.29842 q 0,0.0918 -0.1033,0.0918 h -0.76326 q -0.4132,0 -0.4132,0.42468 v 1.10186 q 0,0.42467 0.4132,0.42467 h 0.76326 q 0.1033,0 0.1033,0.0976 z m 1.00431,0.39024 h -0.36155 q -0.0976,0 -0.0976,-0.0976 v -3.83929 q 0,-0.0976 0.0976,-0.0976 h 0.36155 q 0.0976,0 0.0976,0.0976 v 1.3142 h 0.023 q 0.13774,-0.30416 0.57963,-0.30416 h 0.25251 q 0.41893,0 0.64275,0.22955 0.22381,0.22956 0.22381,0.65997 v 1.93973 q 0,0.0976 -0.1033,0.0976 h -0.36154 q -0.0976,0 -0.0976,-0.0976 v -1.91677 q 0,-0.42468 -0.41894,-0.42468 h -0.26973 q -0.47058,0 -0.47058,0.4878 v 1.85365 q 0,0.0976 -0.0976,0.0976 z m 2.96698,0.80918 h -0.36154 q -0.0976,0 -0.0976,-0.0976 v -3.54087 q 0,-0.0976 0.0976,-0.0976 h 0.36154 q 0.0976,0 0.0976,0.0976 v 0.2066 h 0.023 q 0.13773,-0.30416 0.57962,-0.30416 h 0.29268 q 0.4132,0 0.63128,0.22955 0.22381,0.22956 0.22381,0.65997 v 1.14777 q 0,0.42468 -0.22381,0.65997 -0.21808,0.22955 -0.63128,0.22955 h -0.29268 q -0.44189,0 -0.57962,-0.30416 h -0.023 v 1.01578 q 0,0.0976 -0.0976,0.0976 z m 0.56815,-1.29698 h 0.30416 q 0.4132,0 0.4132,-0.42467 v -1.10186 q 0,-0.42468 -0.4132,-0.42468 h -0.30416 q -0.47059,0 -0.47059,0.4878 v 0.97561 q 0,0.4878 0.47059,0.4878 z m 3.00142,0.4878 h -0.22382 q -0.42468,0 -0.65997,-0.23529 -0.22955,-0.23529 -0.22955,-0.65423 v -1.14777 q 0,-0.42467 0.22955,-0.65423 0.23529,-0.23529 0.65997,-0.23529 h 1.2855 q 0.1033,0 0.1033,0.0976 v 2.73169 q 0,0.0976 -0.1033,0.0976 h -0.36155 q -0.0976,0 -0.0976,-0.0976 v -0.2066 h -0.0229 q -0.13773,0.30416 -0.57962,0.30416 z m 0.60257,-0.9756 v -1.40602 q 0,-0.0574 -0.0631,-0.0574 H 315.612 q -0.41319,0 -0.41319,0.42468 v 1.10186 q 0,0.42467 0.41319,0.42467 h 0.27547 q 0.47058,0 0.47058,-0.4878 z m 2.37015,0.9756 h -0.29269 q -0.41319,0 -0.63701,-0.22955 -0.21807,-0.23529 -0.21807,-0.65997 v -1.14777 q 0,-0.43041 0.21807,-0.65997 0.22382,-0.22955 0.63701,-0.22955 h 0.29269 q 0.44189,0 0.57388,0.30416 h 0.023 v -1.3142 q 0,-0.0976 0.0976,-0.0976 h 0.36728 q 0.0976,0 0.0976,0.0976 v 3.83929 q 0,0.0976 -0.0976,0.0976 h -0.36728 q -0.0976,0 -0.0976,-0.0976 v -0.2066 h -0.023 q -0.13199,0.30416 -0.57388,0.30416 z m 0.59684,-0.9756 v -0.97561 q 0,-0.4878 -0.47059,-0.4878 h -0.30416 q -0.4132,0 -0.4132,0.42468 v 1.10186 q 0,0.42467 0.4132,0.42467 h 0.30416 q 0.47059,0 0.47059,-0.4878 z"
       id="text1-8-7-5-9-8"
       aria-label="Scratchpad&#10;" />
    <g
       id="text1-8-7-5-6-26"
       style="font-size:3.90381px;font-family:Rajdhani;-inkscape-font-specification:Rajdhani;text-align:center;text-anchor:middle;fill:#ffffff;stroke-width:0.325317"
       aria-label="&#10;256KiB&#10;1 Cycle">
      <path
         style="font-weight:600;-inkscape-font-specification:'Rajdhani Semi-Bold'"
         d="m 301.66275,150.00841 v -0.35916 q 0,-0.24203 0.20691,-0.40599 l 0.73782,-0.60119 q 0.18738,-0.14834 0.18738,-0.34353 v -0.12883 q 0,-0.28107 -0.29279,-0.28107 h -0.19128 q -0.14835,0 -0.21471,0.0664 -0.0664,0.0664 -0.0664,0.21471 v 0.14444 q 0,0.0703 -0.0664,0.0703 h -0.24985 q -0.0664,0 -0.0664,-0.0703 v -0.15225 q 0,-0.28498 0.16006,-0.44113 0.16005,-0.15615 0.44893,-0.15615 h 0.3045 q 0.28498,0 0.44503,0.15615 0.16006,0.15615 0.16006,0.44113 v 0.16006 q 0,0.3045 -0.23813,0.49969 l -0.74953,0.6129 q -0.0898,0.0742 -0.0898,0.17567 v 0.12492 h 1.01499 q 0.0703,0 0.0703,0.0664 v 0.20691 q 0,0.0664 -0.0703,0.0664 h -1.37024 q -0.0703,0 -0.0703,-0.0664 z"
         id="path20" />
      <path
         style="font-weight:600;-inkscape-font-specification:'Rajdhani Semi-Bold'"
         d="m 304.43836,148.74747 h -0.24203 q -0.0742,0 -0.12493,0.0273 -0.0468,0.0273 -0.0625,0.0586 -0.0429,0.0898 -0.1054,0.0898 h -0.24594 q -0.0664,0 -0.0664,-0.0664 v -1.2258 q 0,-0.0664 0.0664,-0.0664 h 1.32339 q 0.0703,0 0.0703,0.0664 v 0.22252 q 0,0.0664 -0.0703,0.0664 h -1.00718 v 0.71049 q 0.0664,-0.19129 0.32792,-0.19129 h 0.23032 q 0.28108,0 0.42942,0.14835 0.14835,0.14444 0.14835,0.42942 v 0.45284 q 0,0.28498 -0.16006,0.44503 -0.16006,0.16006 -0.44503,0.16006 h -0.33183 q -0.28888,0 -0.44894,-0.16006 -0.15615,-0.16005 -0.15615,-0.44503 v -0.1015 q 0,-0.0703 0.0664,-0.0703 h 0.24594 q 0.0664,0 0.0664,0.0703 v 0.0976 q 0,0.28497 0.28108,0.28497 h 0.22251 q 0.28888,0 0.28888,-0.28497 v -0.39429 q 0,-0.17567 -0.0703,-0.24984 -0.0664,-0.0742 -0.23033,-0.0742 z m 1.7372,0.99548 h 0.26545 q 0.28108,0 0.28108,-0.28889 v -0.3123 q 0,-0.28888 -0.28108,-0.28888 h -0.54653 v 0.60118 q 0,0.28889 0.28108,0.28889 z m 0.32011,0.33182 h -0.37477 q -0.28888,0 -0.44894,-0.16006 -0.16005,-0.16005 -0.16005,-0.44503 v -1.29997 q 0,-0.28888 0.16005,-0.44503 0.16006,-0.16006 0.44894,-0.16006 h 0.77686 q 0.0664,0 0.0664,0.0664 v 0.203 q 0,0.0625 -0.0664,0.0625 h -0.7222 q -0.28108,0 -0.28108,0.28889 v 0.33572 h 0.60119 q 0.28888,0 0.44894,0.16006 0.16005,0.15615 0.16005,0.44503 v 0.34354 q 0,0.28498 -0.16005,0.44503 -0.16006,0.16006 -0.44894,0.16006 z m 1.41317,0 h -0.24594 q -0.0664,0 -0.0664,-0.0664 v -2.37743 q 0,-0.0664 0.0664,-0.0664 h 0.24594 q 0.0664,0 0.0664,0.0664 v 1.23751 h 0.0117 q 0.039,-0.1054 0.1015,-0.19519 l 0.74563,-1.04232 q 0.0429,-0.0664 0.12492,-0.0664 h 0.28888 q 0.082,0 0.0273,0.0742 l -0.76124,1.03451 0.85883,1.32339 q 0.0469,0.0781 -0.0468,0.0781 h -0.21862 q -0.1054,0 -0.14834,-0.0664 l -0.67536,-1.05794 -0.3084,0.36306 v 0.69488 q 0,0.0664 -0.0664,0.0664 z m 1.80747,-2.32277 v -0.35524 q 0,-0.0625 0.0625,-0.0625 h 0.25375 q 0.0625,0 0.0625,0.0625 v 0.35524 q 0,0.0664 -0.0625,0.0664 h -0.25375 q -0.0625,0 -0.0625,-0.0664 z m 0,2.25641 v -1.85822 q 0,-0.0664 0.0625,-0.0664 h 0.24985 q 0.0664,0 0.0664,0.0664 v 1.85822 q 0,0.039 -0.0156,0.0547 -0.0117,0.0117 -0.0468,0.0117 h -0.24984 q -0.0664,0 -0.0664,-0.0664 z m 1.35072,-0.25766 h 0.54653 q 0.29279,0 0.29279,-0.28107 v -0.24204 q 0,-0.28107 -0.3084,-0.28107 h -0.53092 q -0.0429,0 -0.0429,0.039 v 0.72611 q 0,0.039 0.0429,0.039 z m 0,-1.11649 h 0.50749 q 0.29669,0 0.29669,-0.28497 v -0.17958 q 0,-0.28107 -0.28888,-0.28107 h -0.5153 q -0.0429,0 -0.0429,0.039 v 0.66756 q 0,0.039 0.0429,0.039 z m -0.42161,1.37415 v -2.37743 q 0,-0.0664 0.0664,-0.0664 h 0.9252 q 0.28889,0 0.44894,0.15615 0.16006,0.15615 0.16006,0.44113 v 0.19129 q 0,0.33963 -0.32011,0.43723 0.15224,0.0195 0.24984,0.13273 0.1015,0.11321 0.1015,0.30449 v 0.24985 q 0,0.28498 -0.16006,0.44113 -0.16005,0.15615 -0.44503,0.15615 h -0.96034 q -0.0664,0 -0.0664,-0.0664 z"
         id="path21" />
      <path
         style="font-weight:600;-inkscape-font-specification:'Rajdhani Semi-Bold'"
         d="m 301.82085,153.05728 v -0.23032 q 0,-0.0625 0.0546,-0.0937 l 0.406,-0.24594 q 0.0742,-0.0429 0.12492,-0.0429 h 0.23423 q 0.0664,0 0.0664,0.0664 v 2.37742 q 0,0.0664 -0.0625,0.0664 h -0.25374 q -0.0664,0 -0.0664,-0.0664 v -2.03779 l -0.42551,0.24594 q -0.0781,0.0351 -0.0781,-0.039 z m 3.40022,1.89725 h -0.45284 q -0.28888,0 -0.44894,-0.16005 -0.15615,-0.16006 -0.15615,-0.44504 v -1.29997 q 0,-0.28888 0.15615,-0.44503 0.16006,-0.16006 0.44894,-0.16006 h 0.45284 q 0.28498,0 0.44504,0.16006 0.16005,0.15615 0.16005,0.44503 v 0.18739 q 0,0.0703 -0.0703,0.0703 h -0.24594 q -0.0664,0 -0.0664,-0.0703 v -0.17177 q 0,-0.28888 -0.28108,-0.28888 h -0.33963 q -0.28107,0 -0.28107,0.28888 v 1.26874 q 0,0.28888 0.28107,0.28888 h 0.33963 q 0.28108,0 0.28108,-0.28888 v -0.17177 q 0,-0.0703 0.0664,-0.0703 h 0.24594 q 0.0703,0 0.0703,0.0703 v 0.18738 q 0,0.28498 -0.16005,0.44504 -0.16006,0.16005 -0.44504,0.16005 z m 1.28436,0.63242 h -0.2069 q -0.0664,0 -0.0664,-0.0664 v -0.19909 q 0,-0.0703 0.0664,-0.0703 h 0.0898 q 0.23814,0 0.32792,-0.0937 0.0937,-0.0937 0.15616,-0.3084 h -0.15616 q -0.0585,0 -0.082,-0.0664 l -0.5192,-1.75281 q -0.0156,-0.0664 0.0507,-0.0664 h 0.26155 q 0.0625,0 0.0781,0.0664 l 0.42551,1.5303 h 0.0156 l 0.42551,-1.5303 q 0.0117,-0.0664 0.0781,-0.0664 h 0.24984 q 0.0742,0 0.0625,0.0703 l -0.53483,1.87773 q -0.0898,0.32792 -0.25374,0.49969 -0.16396,0.17567 -0.46846,0.17567 z m 2.79903,-0.89788 v 0.203 q 0,0.0625 -0.0703,0.0625 h -0.57386 q -0.28889,0 -0.44894,-0.16005 -0.15616,-0.16006 -0.15616,-0.44504 v -0.78076 q 0,-0.28888 0.15616,-0.44503 0.16005,-0.16006 0.44894,-0.16006 h 0.57386 q 0.0703,0 0.0703,0.0664 v 0.203 q 0,0.0625 -0.0703,0.0625 h -0.51921 q -0.28108,0 -0.28108,0.28889 v 0.74953 q 0,0.28888 0.28108,0.28888 h 0.51921 q 0.0703,0 0.0703,0.0664 z m 0.70269,0.26546 h -0.24594 q -0.0664,0 -0.0664,-0.0664 v -2.61165 q 0,-0.0664 0.0664,-0.0664 h 0.24594 q 0.0664,0 0.0664,0.0664 v 2.61165 q 0,0.0664 -0.0664,0.0664 z m 1.98704,0 h -0.84322 q -0.28888,0 -0.44894,-0.16005 -0.15615,-0.16006 -0.15615,-0.44504 v -0.78076 q 0,-0.28888 0.15615,-0.44503 0.16006,-0.16006 0.44894,-0.16006 h 0.32011 q 0.28888,0 0.44894,0.16006 0.16006,0.15615 0.16006,0.44503 v 0.49578 q 0,0.0703 -0.0703,0.0703 h -1.04622 q -0.043,0 -0.043,0.039 v 0.16786 q 0,0.28498 0.28498,0.28498 h 0.78857 q 0.0703,0 0.0703,0.0703 v 0.19519 q 0,0.0625 -0.0703,0.0625 z m -1.0306,-1.08526 h 0.69878 q 0.039,0 0.039,-0.039 v -0.24985 q 0,-0.14834 -0.0664,-0.21471 -0.0664,-0.0703 -0.21471,-0.0703 h -0.21471 q -0.14834,0 -0.21471,0.0703 -0.0664,0.0664 -0.0664,0.21471 v 0.24985 q 0,0.039 0.039,0.039 z"
         id="path22" />
    </g>
    <path
       style="font-weight:600;font-size:3.90381px;font-family:Rajdhani;-inkscape-font-specification:'Rajdhani Semi-Bold';text-align:center;text-anchor:middle;fill:#ffffff;stroke-width:0.325317"
       d="m 290.14962,130.67422 v 0.203 q 0,0.0625 -0.0703,0.0625 h -0.57386 q -0.28888,0 -0.44894,-0.16005 -0.15615,-0.16006 -0.15615,-0.44504 v -0.78076 q 0,-0.28888 0.15615,-0.44503 0.16006,-0.16006 0.44894,-0.16006 h 0.57386 q 0.0703,0 0.0703,0.0664 v 0.203 q 0,0.0625 -0.0703,0.0625 h -0.51921 q -0.28107,0 -0.28107,0.28888 v 0.74954 q 0,0.28888 0.28107,0.28888 h 0.51921 q 0.0703,0 0.0703,0.0664 z m 0.24594,-1.72548 h 0.26156 q 0.0625,0 0.0742,0.0664 l 0.406,1.56934 h 0.0273 l 0.39819,-1.56934 q 0.0156,-0.0664 0.082,-0.0664 h 0.25765 q 0.0703,0 0.0469,0.0664 l -0.52702,1.85431 q -0.0156,0.0703 -0.0859,0.0703 h -0.37477 q -0.0703,0 -0.0859,-0.0703 l -0.52701,-1.85431 q -0.0156,-0.0664 0.0468,-0.0664 z m 2.49063,0.57386 h 0.21471 q 0.28888,0 0.28888,-0.28498 v -0.203 q 0,-0.28107 -0.28888,-0.28107 h -0.23032 q -0.14444,0 -0.21471,0.0664 -0.0664,0.0664 -0.0664,0.21471 v 0.11321 q 0,0.0664 -0.0664,0.0664 h -0.24985 q -0.0664,0 -0.0664,-0.0664 v -0.12101 q 0,-0.28498 0.16006,-0.44114 0.16005,-0.15615 0.44893,-0.15615 h 0.33963 q 0.28889,0 0.44894,0.15615 0.16006,0.15616 0.16006,0.44114 v 0.2147 q 0,0.34354 -0.31231,0.43723 0.31231,0.0742 0.31231,0.43723 v 0.22642 q 0,0.28498 -0.16006,0.44113 -0.16005,0.15615 -0.44894,0.15615 h -0.33963 q -0.28888,0 -0.44893,-0.15615 -0.16006,-0.15615 -0.16006,-0.44113 v -0.13663 q 0,-0.0703 0.0664,-0.0703 h 0.24985 q 0.0664,0 0.0664,0.0703 v 0.12882 q 0,0.14444 0.0664,0.21471 0.0703,0.0664 0.21471,0.0664 h 0.23032 q 0.28888,0 0.28888,-0.28108 v -0.21471 q 0,-0.28498 -0.28888,-0.28498 h -0.21471 q -0.0664,0 -0.0664,-0.0664 v -0.17567 q 0,-0.0703 0.0664,-0.0703 z m 1.30778,1.35072 v -0.35915 q 0,-0.24204 0.2069,-0.406 l 0.73782,-0.60119 q 0.18738,-0.14834 0.18738,-0.34353 v -0.12883 q 0,-0.28107 -0.29278,-0.28107 H 294.842 q -0.14835,0 -0.21471,0.0664 -0.0664,0.0664 -0.0664,0.21471 v 0.14444 q 0,0.0703 -0.0664,0.0703 h -0.24984 q -0.0664,0 -0.0664,-0.0703 v -0.15224 q 0,-0.28498 0.16006,-0.44114 0.16005,-0.15615 0.44894,-0.15615 h 0.30449 q 0.28498,0 0.44504,0.15615 0.16005,0.15616 0.16005,0.44114 v 0.16005 q 0,0.3045 -0.23813,0.49969 l -0.74953,0.6129 q -0.0898,0.0742 -0.0898,0.17567 v 0.12492 h 1.01499 q 0.0703,0 0.0703,0.0664 v 0.2069 q 0,0.0664 -0.0703,0.0664 h -1.37023 q -0.0703,0 -0.0703,-0.0664 z m 3.35337,0.0664 h -0.84322 q -0.28889,0 -0.44894,-0.16005 -0.15616,-0.16006 -0.15616,-0.44504 v -0.78076 q 0,-0.28888 0.15616,-0.44503 0.16005,-0.16006 0.44894,-0.16006 h 0.32011 q 0.28888,0 0.44894,0.16006 0.16005,0.15615 0.16005,0.44503 v 0.49578 q 0,0.0703 -0.0703,0.0703 h -1.04622 q -0.0429,0 -0.0429,0.039 v 0.16786 q 0,0.28498 0.28498,0.28498 h 0.78857 q 0.0703,0 0.0703,0.0703 v 0.19519 q 0,0.0625 -0.0703,0.0625 z m -1.03061,-1.08526 h 0.69878 q 0.039,0 0.039,-0.039 v -0.24984 q 0,-0.14834 -0.0664,-0.21471 -0.0664,-0.0703 -0.21471,-0.0703 h -0.21471 q -0.14835,0 -0.21471,0.0703 -0.0664,0.0664 -0.0664,0.21471 v 0.24984 q 0,0.039 0.039,0.039 z m 2.59213,0.27327 v -1.38195 l -0.76905,1.38195 z m 0.29669,0.81199 h -0.23032 q -0.0664,0 -0.0664,-0.0664 v -0.4099 h -1.0306 q -0.11321,0 -0.11321,-0.11321 v -0.12102 q 0,-0.0859 0.0351,-0.15225 l 0.87055,-1.54981 q 0.0312,-0.0586 0.0586,-0.0781 0.0273,-0.0195 0.082,-0.0195 h 0.34353 q 0.11321,0 0.11321,0.11321 v 1.58495 h 0.28498 q 0.0664,0 0.0664,0.0664 v 0.19519 q 0,0.0742 -0.0664,0.0742 h -0.28498 v 0.4099 q 0,0.0664 -0.0625,0.0664 z m 1.38586,-0.33182 h 0.27717 q 0.28107,0 0.28107,-0.28888 v -1.26874 q 0,-0.28888 -0.28107,-0.28888 h -0.27717 q -0.28108,0 -0.28108,0.28888 v 1.26874 q 0,0.28888 0.28108,0.28888 z m 0.33182,0.33182 h -0.39038 q -0.28888,0 -0.44894,-0.16005 -0.16005,-0.16006 -0.16005,-0.44504 v -1.29997 q 0,-0.28888 0.16005,-0.44503 0.16006,-0.16006 0.44894,-0.16006 h 0.39038 q 0.28498,0 0.44504,0.16006 0.16005,0.15615 0.16005,0.44503 v 1.29997 q 0,0.28498 -0.16005,0.44504 -0.16006,0.16005 -0.44504,0.16005 z m 1.39366,0.55044 h -0.24594 q -0.0664,0 -0.0664,-0.0664 v -2.40865 q 0,-0.0664 0.0664,-0.0664 h 0.24594 q 0.0664,0 0.0664,0.0664 v 0.14054 h 0.0156 q 0.0937,-0.2069 0.39429,-0.2069 h 0.19909 q 0.28107,0 0.42942,0.15615 0.15225,0.15615 0.15225,0.44894 v 0.78076 q 0,0.28888 -0.15225,0.44894 -0.14835,0.15615 -0.42942,0.15615 h -0.19909 q -0.3006,0 -0.39429,-0.2069 h -0.0156 v 0.69097 q 0,0.0664 -0.0664,0.0664 z m 0.38648,-0.88226 h 0.2069 q 0.28107,0 0.28107,-0.28888 v -0.74954 q 0,-0.28888 -0.28107,-0.28888 h -0.2069 q -0.32011,0 -0.32011,0.33183 v 0.66364 q 0,0.33183 0.32011,0.33183 z"
       id="text1-8-7-5-7-8"
       aria-label="cv32e40p" />
    <path
       style="font-weight:600;font-size:3.90381px;font-family:Rajdhani;-inkscape-font-specification:'Rajdhani Semi-Bold';text-align:center;text-anchor:middle;fill:#ffffff;stroke-width:0.325317"
       d="m 313.51051,129.75684 h 0.21471 q 0.28888,0 0.28888,-0.28498 v -0.203 q 0,-0.28107 -0.28888,-0.28107 h -0.23033 q -0.14444,0 -0.21471,0.0664 -0.0664,0.0664 -0.0664,0.21471 v 0.11321 q 0,0.0664 -0.0664,0.0664 h -0.24984 q -0.0664,0 -0.0664,-0.0664 v -0.12102 q 0,-0.28498 0.16005,-0.44113 0.16006,-0.15615 0.44894,-0.15615 h 0.33963 q 0.28888,0 0.44894,0.15615 0.16006,0.15615 0.16006,0.44113 v 0.21471 q 0,0.34354 -0.31231,0.43723 0.31231,0.0742 0.31231,0.43723 v 0.22642 q 0,0.28497 -0.16006,0.44113 -0.16006,0.15615 -0.44894,0.15615 h -0.33963 q -0.28888,0 -0.44894,-0.15615 -0.16005,-0.15616 -0.16005,-0.44113 V 130.44 q 0,-0.0703 0.0664,-0.0703 h 0.24984 q 0.0664,0 0.0664,0.0703 v 0.12883 q 0,0.14444 0.0664,0.21471 0.0703,0.0664 0.21471,0.0664 h 0.23033 q 0.28888,0 0.28888,-0.28107 v -0.21471 q 0,-0.28498 -0.28888,-0.28498 h -0.21471 q -0.0664,0 -0.0664,-0.0664 v -0.17567 q 0,-0.0703 0.0664,-0.0703 z m 2.99032,1.41708 h -0.7183 q -0.0664,0 -0.0664,-0.0664 v -0.19128 q 0,-0.0625 0.0664,-0.0625 h 0.65584 q 0.25375,0 0.25375,-0.17567 v -0.0469 q 0,-0.15615 -0.18348,-0.23813 l -0.42552,-0.203 q -0.19909,-0.0937 -0.28888,-0.2069 -0.0898,-0.11321 -0.0898,-0.29669 0,-0.50359 0.55825,-0.50359 h 0.64803 q 0.0625,0 0.0625,0.0664 v 0.19129 q 0,0.0664 -0.0625,0.0664 h -0.56996 q -0.11711,0 -0.17957,0.0429 -0.0625,0.039 -0.0625,0.10541 v 0.0429 q 0,0.12492 0.19909,0.21861 l 0.42942,0.21862 q 0.203,0.0898 0.27717,0.21471 0.0781,0.12101 0.0781,0.3162 0,0.5075 -0.58167,0.5075 z m 1.31949,0 h -0.24594 q -0.0664,0 -0.0664,-0.0664 v -2.61164 q 0,-0.0664 0.0664,-0.0664 h 0.24594 q 0.0664,0 0.0664,0.0664 v 2.61164 q 0,0.0664 -0.0664,0.0664 z m 1.48735,0 h -0.34354 q -0.28888,0 -0.44894,-0.16006 -0.15615,-0.16005 -0.15615,-0.44503 v -0.78076 q 0,-0.28888 0.15615,-0.44504 0.16006,-0.16005 0.44894,-0.16005 h 0.34354 q 0.28497,0 0.44503,0.16005 0.16396,0.15616 0.16396,0.44504 v 0.78076 q 0,0.28498 -0.16396,0.44503 -0.16006,0.16006 -0.44503,0.16006 z m -0.28889,-0.33182 h 0.23814 q 0.28107,0 0.28107,-0.28498 v -0.75734 q 0,-0.28498 -0.28107,-0.28498 h -0.23814 q -0.14834,0 -0.21471,0.0703 -0.0664,0.0664 -0.0664,0.21471 v 0.75734 q 0,0.14834 0.0664,0.21861 0.0664,0.0664 0.21471,0.0664 z m 1.40537,-1.3273 h -0.18738 q -0.039,0 -0.0546,-0.0117 -0.0117,-0.0156 -0.0117,-0.0507 v -0.203 q 0,-0.0664 0.0664,-0.0664 h 0.18738 q 0.039,0 0.039,-0.039 v -0.35134 q 0,-0.0664 0.0703,-0.0664 h 0.24594 q 0.0664,0 0.0664,0.0664 v 0.35134 q 0,0.039 0.0429,0.039 h 0.36305 q 0.0703,0 0.0703,0.0664 v 0.203 q 0,0.0625 -0.0703,0.0625 h -0.36305 q -0.0429,0 -0.0429,0.039 v 1.00328 q 0,0.28498 0.29278,0.28498 h 0.15225 q 0.0703,0 0.0703,0.0664 v 0.203 q 0,0.0625 -0.0703,0.0625 h -0.21081 q -0.28888,0 -0.45284,-0.15615 -0.16396,-0.15616 -0.16396,-0.44113 v -1.0228 q 0,-0.039 -0.039,-0.039 z m 2.02218,1.65912 h -0.7183 q -0.0664,0 -0.0664,-0.0664 v -0.19128 q 0,-0.0625 0.0664,-0.0625 h 0.65584 q 0.25374,0 0.25374,-0.17567 v -0.0469 q 0,-0.15615 -0.18347,-0.23813 l -0.42552,-0.203 q -0.19909,-0.0937 -0.28888,-0.2069 -0.0898,-0.11321 -0.0898,-0.29669 0,-0.50359 0.55825,-0.50359 h 0.64803 q 0.0625,0 0.0625,0.0664 v 0.19129 q 0,0.0664 -0.0625,0.0664 h -0.56996 q -0.11711,0 -0.17957,0.0429 -0.0625,0.039 -0.0625,0.10541 v 0.0429 q 0,0.12492 0.19909,0.21861 l 0.42942,0.21862 q 0.203,0.0898 0.27717,0.21471 0.0781,0.12101 0.0781,0.3162 0,0.5075 -0.58167,0.5075 z"
       id="text1-8-7-5-7-2-1"
       aria-label="3 slots" />
    <rect
       style="fill:#1a57a9;fill-opacity:1;stroke-width:0.351886"
       id="rect1-2-0-5"
       width="27.528179"
       height="35.467922"
       x="237.59584"
       y="110.69558"
       ry="0.85377383" />
    <rect
       style="fill:#bd4c96;fill-opacity:1;stroke-width:0.183153"
       id="rect1-7-0-0"
       width="27.528181"
       height="9.6084595"
       x="237.59584"
       y="149.6033"
       ry="0.83933091" />
    <path
       style="font-weight:600;font-size:5.73885px;font-family:Rajdhani;-inkscape-font-specification:'Rajdhani Semi-Bold';fill:#ffffff;stroke-width:0.478236"
       d="m 249.15606,152.66003 v 3.49496 q 0,0.0976 -0.0976,0.0976 h -0.36155 q -0.0976,0 -0.0976,-0.0976 v -3.49496 q 0,-0.0976 0.0976,-0.0976 h 0.36155 q 0.0976,0 0.0976,0.0976 z m 1.10186,3.59252 h -0.32711 q -0.12052,0 -0.0804,-0.1033 0.12626,-0.32138 0.64276,-1.73313 0.51649,-1.41176 0.64849,-1.75035 0.0459,-0.1033 0.13199,-0.1033 h 0.33285 q 0.10904,0 0.0746,0.10904 l -1.29124,3.47774 q -0.0344,0.1033 -0.132,0.1033 z m 2.99568,-0.4878 h 0.49928 q 0.41894,0 0.41894,-0.42468 v -1.86513 q 0,-0.42467 -0.41894,-0.42467 h -0.49928 q -0.4132,0 -0.4132,0.42467 v 1.86513 q 0,0.42468 0.4132,0.42468 z m 0.58536,0.4878 h -0.6657 q -0.42468,0 -0.65997,-0.23529 -0.22956,-0.2353 -0.22956,-0.65423 v -1.91104 q 0,-0.42468 0.22956,-0.65423 0.23529,-0.23529 0.65997,-0.23529 h 0.6657 q 0.42468,0 0.65997,0.23529 0.23529,0.22955 0.23529,0.65423 v 1.91104 q 0,0.41893 -0.23529,0.65423 -0.23529,0.23529 -0.65997,0.23529 z"
       id="text1-7-9-9"
       aria-label="I/O" />
    <path
       style="fill:none;fill-opacity:1;stroke:#000000;stroke-width:0.965;stroke-dasharray:none;stroke-opacity:1;marker-start:url(#Triangle-6-7-2-5);marker-end:url(#Triangle-6-7-2-5)"
       d="m 270.75075,136.02356 h 5.86226"
       id="path4-41-7-6-7" />
    <path
       style="font-weight:600;font-size:5.73885px;font-family:Rajdhani;-inkscape-font-specification:'Rajdhani Semi-Bold';text-align:center;text-anchor:middle;fill:#ffffff;stroke-width:0.325317"
       d="m 244.99252,121.53443 h 0.64275 q 0.0976,0 0.0976,0.0976 v 3.49496 q 0,0.0976 -0.0976,0.0976 h -0.35581 q -0.0976,0 -0.0976,-0.0976 v -2.89812 h -0.023 l -0.74605,2.10042 q -0.0344,0.0918 -0.12625,0.0918 h -0.36729 q -0.0861,0 -0.12051,-0.0918 l -0.76327,-2.10616 h -0.023 v 2.90386 q 0,0.0574 -0.023,0.0803 -0.0172,0.0172 -0.0746,0.0172 h -0.35007 q -0.0976,0 -0.0976,-0.0976 v -3.49496 q 0,-0.0976 0.0976,-0.0976 h 0.64276 q 0.0631,0 0.0918,0.0631 l 0.78622,2.21519 h 0.0287 l 0.79197,-2.21519 q 0.0115,-0.0631 0.0861,-0.0631 z m 3.59252,3.69008 h -1.23959 q -0.42468,0 -0.65997,-0.23529 -0.22955,-0.2353 -0.22955,-0.65423 v -1.14777 q 0,-0.42468 0.22955,-0.65423 0.23529,-0.23529 0.65997,-0.23529 h 0.47058 q 0.42468,0 0.65997,0.23529 0.23529,0.22955 0.23529,0.65423 v 0.72883 q 0,0.1033 -0.1033,0.1033 h -1.53801 q -0.0631,0 -0.0631,0.0574 v 0.24677 q 0,0.41894 0.41893,0.41894 h 1.15925 q 0.1033,0 0.1033,0.1033 v 0.28694 q 0,0.0918 -0.1033,0.0918 z m -1.51506,-1.5954 h 1.02726 q 0.0574,0 0.0574,-0.0574 v -0.36729 q 0,-0.21807 -0.0976,-0.31563 -0.0976,-0.1033 -0.31564,-0.1033 h -0.31564 q -0.21807,0 -0.31564,0.1033 -0.0976,0.0976 -0.0976,0.31563 v 0.36729 q 0,0.0574 0.0574,0.0574 z m 2.7317,1.5954 h -0.36155 q -0.0976,0 -0.0976,-0.0976 v -2.73169 q 0,-0.0976 0.0976,-0.0976 h 0.36155 q 0.0976,0 0.0976,0.0976 v 0.2066 h 0.023 q 0.16643,-0.30416 0.60832,-0.30416 h 0.18938 q 0.49928,0 0.71162,0.37876 0.0918,-0.18364 0.2812,-0.2812 0.18938,-0.0976 0.40746,-0.0976 h 0.18364 q 0.41894,0 0.63702,0.23529 0.22381,0.22955 0.22381,0.65423 v 1.93973 q 0,0.0976 -0.0976,0.0976 h -0.36729 q -0.0976,0 -0.0976,-0.0976 v -1.91678 q 0,-0.42467 -0.41319,-0.42467 h -0.16643 q -0.47632,0 -0.47632,0.49928 v 1.84217 q 0,0.0976 -0.1033,0.0976 h -0.36155 q -0.0976,0 -0.0976,-0.0976 v -1.91678 q 0,-0.42467 -0.4132,-0.42467 h -0.20086 q -0.47058,0 -0.47058,0.4878 v 1.85365 q 0,0.0976 -0.0976,0.0976 z m 5.39452,0 h -0.50502 q -0.42468,0 -0.65997,-0.23529 -0.22955,-0.2353 -0.22955,-0.65423 v -1.14777 q 0,-0.42468 0.22955,-0.65423 0.23529,-0.23529 0.65997,-0.23529 h 0.50502 q 0.41893,0 0.65423,0.23529 0.24103,0.22955 0.24103,0.65423 v 1.14777 q 0,0.41893 -0.24103,0.65423 -0.2353,0.23529 -0.65423,0.23529 z m -0.42468,-0.4878 h 0.35007 q 0.4132,0 0.4132,-0.41894 v -1.11334 q 0,-0.41893 -0.4132,-0.41893 h -0.35007 q -0.21807,0 -0.31563,0.1033 -0.0976,0.0976 -0.0976,0.31563 v 1.11334 q 0,0.21808 0.0976,0.32138 0.0976,0.0976 0.31563,0.0976 z m 2.43901,0.4878 h -0.36154 q -0.0976,0 -0.0976,-0.0976 v -2.73169 q 0,-0.0976 0.0976,-0.0976 h 0.36154 q 0.0976,0 0.0976,0.0976 v 0.21807 h 0.023 q 0.0574,-0.14347 0.21808,-0.22955 0.16642,-0.0861 0.36728,-0.0861 h 0.21234 q 0.0976,0 0.0976,0.0976 v 0.29842 q 0,0.10904 -0.0976,0.0918 h -0.34433 q -0.47633,0 -0.47633,0.52223 v 1.81922 q 0,0.0976 -0.0976,0.0976 z m 1.80774,0.92969 h -0.30416 q -0.0976,0 -0.0976,-0.0976 v -0.29268 q 0,-0.1033 0.0976,-0.1033 h 0.13199 q 0.35007,0 0.48206,-0.13773 0.13774,-0.13773 0.22956,-0.45337 h -0.22956 q -0.0861,0 -0.12051,-0.0976 l -0.76327,-2.57674 q -0.023,-0.0976 0.0746,-0.0976 h 0.3845 q 0.0918,0 0.11478,0.0976 l 0.62553,2.24963 h 0.023 l 0.62553,-2.24963 q 0.0172,-0.0976 0.11478,-0.0976 h 0.36728 q 0.10904,0 0.0918,0.1033 l -0.78623,2.76038 q -0.13199,0.48207 -0.37302,0.73458 -0.24103,0.25824 -0.68866,0.25824 z"
       id="text1-8-7-5-9-7-8"
       aria-label="Memory&#10;" />
    <g
       id="text1-8-7-5-6-2-1"
       style="font-size:3.90381px;font-family:Rajdhani;-inkscape-font-specification:Rajdhani;text-align:center;text-anchor:middle;fill:#ffffff;stroke-width:0.325317"
       aria-label="&#10;64MiB&#10;20 Cycles">
      <path
         style="font-weight:600;-inkscape-font-specification:'Rajdhani Semi-Bold'"
         d="m 247.42146,129.77245 h 0.26546 q 0.28107,0 0.28107,-0.28888 v -0.31231 q 0,-0.28888 -0.28107,-0.28888 h -0.54653 v 0.60119 q 0,0.28888 0.28107,0.28888 z m 0.32011,0.33182 h -0.37476 q -0.28888,0 -0.44894,-0.16005 -0.16006,-0.16006 -0.16006,-0.44504 v -1.29997 q 0,-0.28888 0.16006,-0.44503 0.16006,-0.16006 0.44894,-0.16006 h 0.77686 q 0.0664,0 0.0664,0.0664 v 0.203 q 0,0.0625 -0.0664,0.0625 h -0.72221 q -0.28107,0 -0.28107,0.28888 v 0.33573 h 0.60118 q 0.28889,0 0.44894,0.16005 0.16006,0.15615 0.16006,0.44504 v 0.34353 q 0,0.28498 -0.16006,0.44504 -0.16005,0.16005 -0.44894,0.16005 z"
         id="path23" />
      <path
         style="font-weight:600;-inkscape-font-specification:'Rajdhani Semi-Bold'"
         d="m 249.84963,129.29228 v -1.38195 l -0.76905,1.38195 z m 0.29669,0.81199 h -0.23033 q -0.0664,0 -0.0664,-0.0664 v -0.4099 h -1.03061 q -0.11321,0 -0.11321,-0.11321 v -0.12102 q 0,-0.0859 0.0351,-0.15225 l 0.87055,-1.54981 q 0.0312,-0.0586 0.0585,-0.0781 0.0273,-0.0195 0.082,-0.0195 h 0.34354 q 0.11321,0 0.11321,0.11321 v 1.58495 h 0.28498 q 0.0664,0 0.0664,0.0664 v 0.19519 q 0,0.0742 -0.0664,0.0742 h -0.28498 v 0.4099 q 0,0.0664 -0.0625,0.0664 z m 2.49454,-2.51015 h 0.43722 q 0.0664,0 0.0664,0.0664 v 2.37742 q 0,0.0664 -0.0664,0.0664 h -0.24203 q -0.0664,0 -0.0664,-0.0664 v -1.97143 h -0.0156 l -0.5075,1.4288 q -0.0234,0.0625 -0.0859,0.0625 h -0.24985 q -0.0585,0 -0.082,-0.0625 l -0.5192,-1.4327 h -0.0156 v 1.97533 q 0,0.039 -0.0156,0.0546 -0.0117,0.0117 -0.0507,0.0117 h -0.23814 q -0.0664,0 -0.0664,-0.0664 v -2.37742 q 0,-0.0664 0.0664,-0.0664 h 0.43723 q 0.0429,0 0.0625,0.0429 l 0.53482,1.50688 h 0.0195 l 0.53873,-1.50688 q 0.008,-0.0429 0.0586,-0.0429 z m 1.05403,0.18739 v -0.35525 q 0,-0.0625 0.0625,-0.0625 h 0.25374 q 0.0625,0 0.0625,0.0625 v 0.35525 q 0,0.0664 -0.0625,0.0664 h -0.25374 q -0.0625,0 -0.0625,-0.0664 z m 0,2.2564 v -1.85822 q 0,-0.0664 0.0625,-0.0664 h 0.24984 q 0.0664,0 0.0664,0.0664 v 1.85822 q 0,0.039 -0.0156,0.0546 -0.0117,0.0117 -0.0469,0.0117 h -0.24984 q -0.0664,0 -0.0664,-0.0664 z m 1.35071,-0.25765 h 0.54654 q 0.29278,0 0.29278,-0.28108 v -0.24203 q 0,-0.28108 -0.3084,-0.28108 h -0.53092 q -0.0429,0 -0.0429,0.039 v 0.72611 q 0,0.039 0.0429,0.039 z m 0,-1.11649 h 0.5075 q 0.29669,0 0.29669,-0.28498 v -0.17958 q 0,-0.28107 -0.28888,-0.28107 h -0.51531 q -0.0429,0 -0.0429,0.039 v 0.66755 q 0,0.039 0.0429,0.039 z m -0.42161,1.37414 v -2.37742 q 0,-0.0664 0.0664,-0.0664 h 0.9252 q 0.28888,0 0.44894,0.15616 0.16005,0.15615 0.16005,0.44113 v 0.19128 q 0,0.33963 -0.32011,0.43723 0.15225,0.0195 0.24985,0.13273 0.10149,0.11321 0.10149,0.3045 v 0.24984 q 0,0.28498 -0.16005,0.44113 -0.16006,0.15615 -0.44504,0.15615 h -0.96033 q -0.0664,0 -0.0664,-0.0664 z"
         id="path24" />
      <path
         style="font-weight:600;-inkscape-font-specification:'Rajdhani Semi-Bold'"
         d="m 244.25547,134.91767 v -0.35915 q 0,-0.24204 0.2069,-0.406 l 0.73782,-0.60118 q 0.18738,-0.14835 0.18738,-0.34354 v -0.12882 q 0,-0.28108 -0.29278,-0.28108 h -0.19129 q -0.14834,0 -0.21471,0.0664 -0.0664,0.0664 -0.0664,0.21471 v 0.14444 q 0,0.0703 -0.0664,0.0703 h -0.24984 q -0.0664,0 -0.0664,-0.0703 v -0.15225 q 0,-0.28498 0.16006,-0.44113 0.16005,-0.15615 0.44894,-0.15615 h 0.30449 q 0.28498,0 0.44504,0.15615 0.16005,0.15615 0.16005,0.44113 v 0.16005 q 0,0.3045 -0.23813,0.49969 l -0.74953,0.6129 q -0.0898,0.0742 -0.0898,0.17567 v 0.12492 h 1.01499 q 0.0703,0 0.0703,0.0664 v 0.2069 q 0,0.0664 -0.0703,0.0664 h -1.37023 q -0.0703,0 -0.0703,-0.0664 z m 2.59213,-0.26546 h 0.27717 q 0.28107,0 0.28107,-0.28888 v -1.26874 q 0,-0.28888 -0.28107,-0.28888 h -0.27717 q -0.28108,0 -0.28108,0.28888 v 1.26874 q 0,0.28888 0.28108,0.28888 z m 0.33182,0.33183 h -0.39038 q -0.28888,0 -0.44894,-0.16006 -0.16006,-0.16006 -0.16006,-0.44504 v -1.29996 q 0,-0.28889 0.16006,-0.44504 0.16006,-0.16005 0.44894,-0.16005 h 0.39038 q 0.28498,0 0.44503,0.16005 0.16006,0.15615 0.16006,0.44504 v 1.29996 q 0,0.28498 -0.16006,0.44504 -0.16005,0.16006 -0.44503,0.16006 z m 3.0684,0 h -0.45285 q -0.28888,0 -0.44893,-0.16006 -0.15616,-0.16006 -0.15616,-0.44504 v -1.29996 q 0,-0.28889 0.15616,-0.44504 0.16005,-0.16005 0.44893,-0.16005 h 0.45285 q 0.28497,0 0.44503,0.16005 0.16006,0.15615 0.16006,0.44504 v 0.18738 q 0,0.0703 -0.0703,0.0703 h -0.24594 q -0.0664,0 -0.0664,-0.0703 v -0.17177 q 0,-0.28888 -0.28107,-0.28888 h -0.33963 q -0.28108,0 -0.28108,0.28888 v 1.26874 q 0,0.28888 0.28108,0.28888 h 0.33963 q 0.28107,0 0.28107,-0.28888 v -0.17177 q 0,-0.0703 0.0664,-0.0703 h 0.24594 q 0.0703,0 0.0703,0.0703 v 0.18738 q 0,0.28498 -0.16006,0.44504 -0.16006,0.16006 -0.44503,0.16006 z m 1.28435,0.63241 h -0.2069 q -0.0664,0 -0.0664,-0.0664 v -0.1991 q 0,-0.0703 0.0664,-0.0703 h 0.0898 q 0.23813,0 0.32792,-0.0937 0.0937,-0.0937 0.15615,-0.3084 h -0.15615 q -0.0586,0 -0.082,-0.0664 l -0.51921,-1.75281 q -0.0156,-0.0664 0.0508,-0.0664 h 0.26156 q 0.0625,0 0.0781,0.0664 l 0.42552,1.53029 h 0.0156 l 0.42552,-1.53029 q 0.0117,-0.0664 0.0781,-0.0664 h 0.24984 q 0.0742,0 0.0625,0.0703 l -0.53482,1.87773 q -0.0898,0.32792 -0.25375,0.49969 -0.16396,0.17567 -0.46846,0.17567 z m 2.79904,-0.89787 v 0.20299 q 0,0.0625 -0.0703,0.0625 h -0.57386 q -0.28888,0 -0.44894,-0.16006 -0.15615,-0.16006 -0.15615,-0.44504 v -0.78076 q 0,-0.28888 0.15615,-0.44503 0.16006,-0.16006 0.44894,-0.16006 h 0.57386 q 0.0703,0 0.0703,0.0664 v 0.203 q 0,0.0625 -0.0703,0.0625 h -0.51921 q -0.28107,0 -0.28107,0.28888 v 0.74953 q 0,0.28888 0.28107,0.28888 h 0.51921 q 0.0703,0 0.0703,0.0664 z m 0.70269,0.26546 h -0.24594 q -0.0664,0 -0.0664,-0.0664 v -2.61165 q 0,-0.0664 0.0664,-0.0664 h 0.24594 q 0.0664,0 0.0664,0.0664 v 2.61165 q 0,0.0664 -0.0664,0.0664 z m 1.98704,0 h -0.84323 q -0.28888,0 -0.44893,-0.16006 -0.15616,-0.16006 -0.15616,-0.44504 v -0.78076 q 0,-0.28888 0.15616,-0.44503 0.16005,-0.16006 0.44893,-0.16006 h 0.32012 q 0.28888,0 0.44893,0.16006 0.16006,0.15615 0.16006,0.44503 v 0.49579 q 0,0.0703 -0.0703,0.0703 h -1.04622 q -0.0429,0 -0.0429,0.039 v 0.16787 q 0,0.28498 0.28498,0.28498 h 0.78857 q 0.0703,0 0.0703,0.0703 v 0.19519 q 0,0.0625 -0.0703,0.0625 z m -1.03061,-1.08526 h 0.69878 q 0.039,0 0.039,-0.039 v -0.24985 q 0,-0.14834 -0.0664,-0.21471 -0.0664,-0.0703 -0.21471,-0.0703 h -0.21471 q -0.14835,0 -0.21471,0.0703 -0.0664,0.0664 -0.0664,0.21471 v 0.24985 q 0,0.039 0.039,0.039 z m 2.2564,1.08526 h -0.7183 q -0.0664,0 -0.0664,-0.0664 v -0.19129 q 0,-0.0625 0.0664,-0.0625 h 0.65584 q 0.25375,0 0.25375,-0.17567 v -0.0468 q 0,-0.15616 -0.18348,-0.23814 l -0.42551,-0.20299 q -0.1991,-0.0937 -0.28889,-0.20691 -0.0898,-0.11321 -0.0898,-0.29669 0,-0.50359 0.55824,-0.50359 h 0.64803 q 0.0625,0 0.0625,0.0664 v 0.19128 q 0,0.0664 -0.0625,0.0664 h -0.56995 q -0.11712,0 -0.17958,0.0429 -0.0625,0.039 -0.0625,0.1054 v 0.0429 q 0,0.12492 0.19909,0.21861 l 0.42942,0.21861 q 0.203,0.0898 0.27717,0.21471 0.0781,0.12102 0.0781,0.31621 0,0.5075 -0.58167,0.5075 z"
         id="path25" />
    </g>
  </g>
</svg>
