<?xml version="1.0" encoding="UTF-8" standalone="no"?>
<!-- Created with Inkscape (http://www.inkscape.org/) -->

<svg
   width="136.90646mm"
   height="71.960403mm"
   viewBox="0 0 136.90646 71.960403"
   version="1.1"
   id="svg1"
   inkscape:version="1.4.4 (dcaf3e7, 2026-05-05)"
   sodipodi:docname="arch.svg"
   xmlns:inkscape="http://www.inkscape.org/namespaces/inkscape"
   xmlns:sodipodi="http://sodipodi.sourceforge.net/DTD/sodipodi-0.dtd"
   xmlns="http://www.w3.org/2000/svg"
   xmlns:svg="http://www.w3.org/2000/svg">
  <sodipodi:namedview
     id="namedview1"
     pagecolor="#ffffff"
     bordercolor="#000000"
     borderopacity="0.25"
     inkscape:showpageshadow="2"
     inkscape:pageopacity="0.0"
     inkscape:pagecheckerboard="0"
     inkscape:deskcolor="#d1d1d1"
     inkscape:document-units="mm"
     inkscape:zoom="1.4520903"
     inkscape:cx="265.47935"
     inkscape:cy="132.56751"
     inkscape:window-width="1920"
     inkscape:window-height="1017"
     inkscape:window-x="-8"
     inkscape:window-y="-8"
     inkscape:window-maximized="1"
     inkscape:current-layer="layer1">
    <inkscape:page
       x="-1.1300805e-21"
       y="0"
       width="136.90646"
       height="71.960403"
       id="page2"
       margin="0"
       bleed="0" />
  </sodipodi:namedview>
  <defs
     id="defs1">
    <marker
       style="overflow:visible"
       id="Triangle-82"
       refX="0"
       refY="0"
       orient="auto-start-reverse"
       inkscape:stockid="Triangle arrow"
       markerWidth="0.5"
       markerHeight="0.5"
       viewBox="0 0 1 1"
       inkscape:isstock="true"
       inkscape:collect="always"
       preserveAspectRatio="xMidYMid">
      <path
         transform="scale(0.5)"
         style="fill:context-stroke;fill-rule:evenodd;stroke:context-stroke;stroke-width:1pt"
         d="M 5.77,0 -2.88,5 V -5 Z"
         id="path135-66" />
    </marker>
    <marker
       style="overflow:visible"
       id="Triangle-6-0"
       refX="0"
       refY="0"
       orient="auto-start-reverse"
       inkscape:stockid="Triangle arrow"
       markerWidth="0.5"
       markerHeight="0.5"
       viewBox="0 0 1 1"
       inkscape:isstock="true"
       inkscape:collect="always"
       preserveAspectRatio="xMidYMid">
      <path
         transform="scale(0.5)"
         style="fill:context-stroke;fill-rule:evenodd;stroke:context-stroke;stroke-width:1pt"
         d="M 5.77,0 -2.88,5 V -5 Z"
         id="path135-5-3" />
    </marker>
    <marker
       style="overflow:visible"
       id="Triangle-6-7-8"
       refX="0"
       refY="0"
       orient="auto-start-reverse"
       inkscape:stockid="Triangle arrow"
       markerWidth="0.5"
       markerHeight="0.5"
       viewBox="0 0 1 1"
       inkscape:isstock="true"
       inkscape:collect="always"
       preserveAspectRatio="xMidYMid">
      <path
         transform="scale(0.5)"
         style="fill:context-stroke;fill-rule:evenodd;stroke:context-stroke;stroke-width:1pt"
         d="M 5.77,0 -2.88,5 V -5 Z"
         id="path135-5-1-0" />
    </marker>
    <marker
       style="overflow:visible"
       id="Triangle-8-1"
       refX="0"
       refY="0"
       orient="auto-start-reverse"
       inkscape:stockid="Triangle arrow"
       markerWidth="0.5"
       markerHeight="0.5"
       viewBox="0 0 1 1"
       inkscape:isstock="true"
       inkscape:collect="always"
       preserveAspectRatio="xMidYMid">
      <path
         transform="scale(0.5)"
         style="fill:context-stroke;fill-rule:evenodd;stroke:context-stroke;stroke-width:1pt"
         d="M 5.77,0 -2.88,5 V -5 Z"
         id="path135-6-2" />
    </marker>
    <marker
       style="overflow:visible"
       id="Triangle-5-0"
       refX="0"
       refY="0"
       orient="auto-start-reverse"
       inkscape:stockid="Triangle arrow"
       markerWidth="0.5"
       markerHeight="0.5"
       viewBox="0 0 1 1"
       inkscape:isstock="true"
       inkscape:collect="always"
       preserveAspectRatio="xMidYMid">
      <path
         transform="scale(0.5)"
         style="fill:context-stroke;fill-rule:evenodd;stroke:context-stroke;stroke-width:1pt"
         d="M 5.77,0 -2.88,5 V -5 Z"
         id="path135-0-9" />
    </marker>
    <marker
       style="overflow:visible"
       id="Triangle-8-9-7"
       refX="0"
       refY="0"
       orient="auto-start-reverse"
       inkscape:stockid="Triangle arrow"
       markerWidth="0.5"
       markerHeight="0.5"
       viewBox="0 0 1 1"
       inkscape:isstock="true"
       inkscape:collect="always"
       preserveAspectRatio="xMidYMid">
      <path
         transform="scale(0.5)"
         style="fill:context-stroke;fill-rule:evenodd;stroke:context-stroke;stroke-width:1pt"
         d="M 5.77,0 -2.88,5 V -5 Z"
         id="path135-6-0-8" />
    </marker>
    <marker
       style="overflow:visible"
       id="Triangle-7-3"
       refX="0"
       refY="0"
       orient="auto-start-reverse"
       inkscape:stockid="Triangle arrow"
       markerWidth="0.5"
       markerHeight="0.5"
       viewBox="0 0 1 1"
       inkscape:isstock="true"
       inkscape:collect="always"
       preserveAspectRatio="xMidYMid">
      <path
         transform="scale(0.5)"
         style="fill:context-stroke;fill-rule:evenodd;stroke:context-stroke;stroke-width:1pt"
         d="M 5.77,0 -2.88,5 V -5 Z"
         id="path135-63-5" />
    </marker>
    <marker
       style="overflow:visible"
       id="Triangle-8-6-1"
       refX="0"
       refY="0"
       orient="auto-start-reverse"
       inkscape:stockid="Triangle arrow"
       markerWidth="0.5"
       markerHeight="0.5"
       viewBox="0 0 1 1"
       inkscape:isstock="true"
       inkscape:collect="always"
       preserveAspectRatio="xMidYMid">
      <path
         transform="scale(0.5)"
         style="fill:context-stroke;fill-rule:evenodd;stroke:context-stroke;stroke-width:1pt"
         d="M 5.77,0 -2.88,5 V -5 Z"
         id="path135-6-1-2" />
    </marker>
    <marker
       style="overflow:visible"
       id="Triangle-5-5-0"
       refX="0"
       refY="0"
       orient="auto-start-reverse"
       inkscape:stockid="Triangle arrow"
       markerWidth="0.5"
       markerHeight="0.5"
       viewBox="0 0 1 1"
       inkscape:isstock="true"
       inkscape:collect="always"
       preserveAspectRatio="xMidYMid">
      <path
         transform="scale(0.5)"
         style="fill:context-stroke;fill-rule:evenodd;stroke:context-stroke;stroke-width:1pt"
         d="M 5.77,0 -2.88,5 V -5 Z"
         id="path135-0-4-1" />
    </marker>
    <marker
       style="overflow:visible"
       id="Triangle-8-9-2-6"
       refX="0"
       refY="0"
       orient="auto-start-reverse"
       inkscape:stockid="Triangle arrow"
       markerWidth="0.5"
       markerHeight="0.5"
       viewBox="0 0 1 1"
       inkscape:isstock="true"
       inkscape:collect="always"
       preserveAspectRatio="xMidYMid">
      <path
         transform="scale(0.5)"
         style="fill:context-stroke;fill-rule:evenodd;stroke:context-stroke;stroke-width:1pt"
         d="M 5.77,0 -2.88,5 V -5 Z"
         id="path135-6-0-0-4" />
    </marker>
  </defs>
  <g
     inkscape:label="Ebene 1"
     inkscape:groupmode="layer"
     id="layer1"
     transform="translate(-33.63336,-178.59376)">
    <rect
       style="fill:#f18828;fill-opacity:1;stroke-width:0.229576"
       id="rect1-18"
       width="20.385908"
       height="20.385908"
       x="79.402779"
       y="178.59375"
       ry="0.49072382"
       inkscape:export-filename="arch.svg"
       inkscape:export-xdpi="96"
       inkscape:export-ydpi="96" />
    <rect
       style="fill:#bd4c96;fill-opacity:1;stroke-width:0.229576"
       id="rect1-7-9"
       width="20.385908"
       height="20.385908"
       x="33.633358"
       y="230.16823"
       ry="0.49072382" />
    <rect
       style="fill:#1a57a9;fill-opacity:1;stroke-width:0.34995"
       id="rect1-2-8"
       width="20.385908"
       height="47.368603"
       x="33.633362"
       y="179.20084"
       ry="1.1402436" />
    <rect
       style="fill:#575756;fill-opacity:1;stroke-width:0.299935;stroke-dasharray:none"
       id="rect1-2-1-41"
       width="98.164146"
       height="7.2441344"
       x="72.375694"
       y="210.6134"
       ry="0.17437877" />
    <rect
       style="fill:#575756;fill-opacity:1;stroke-width:0.255716;stroke-dasharray:none"
       id="rect1-2-1-4-4"
       width="71.353317"
       height="7.2441344"
       x="179.20084"
       y="-74.68708"
       ry="0.17437877"
       transform="rotate(90)" />
    <rect
       style="fill:#009fe3;fill-opacity:1;stroke-width:0.229576"
       id="rect1-6-39"
       width="20.385908"
       height="20.385908"
       x="101.39396"
       y="178.59375"
       ry="0.49072382" />
    <path
       style="font-weight:600;font-size:5.73885px;font-family:Rajdhani;-inkscape-font-specification:'Rajdhani Semi-Bold';fill:#ffffff;stroke-width:0.478236"
       d="m 84.833004,190.2247 h -0.665707 q -0.424675,0 -0.659967,-0.23529 -0.229554,-0.23529 -0.229554,-0.65423 v -1.91104 q 0,-0.42467 0.229554,-0.65423 0.235292,-0.23529 0.659967,-0.23529 h 0.665707 q 0.418936,0 0.654229,0.23529 0.235293,0.22956 0.235293,0.65423 v 0.27547 q 0,0.1033 -0.1033,0.1033 h -0.361547 q -0.09756,0 -0.09756,-0.1033 v -0.25251 q 0,-0.42468 -0.413197,-0.42468 h -0.49928 q -0.413197,0 -0.413197,0.42468 v 1.86512 q 0,0.42468 0.413197,0.42468 h 0.49928 q 0.413197,0 0.413197,-0.42468 v -0.25251 q 0,-0.10329 0.09756,-0.10329 h 0.361547 q 0.1033,0 0.1033,0.10329 v 0.27547 q 0,0.41894 -0.235293,0.65423 -0.235293,0.23529 -0.654229,0.23529 z m 2.880908,0 h -0.505019 q -0.424675,0 -0.659968,-0.23529 -0.229554,-0.23529 -0.229554,-0.65423 v -1.14777 q 0,-0.42468 0.229554,-0.65423 0.235293,-0.23529 0.659968,-0.23529 h 0.505019 q 0.418936,0 0.654229,0.23529 0.241031,0.22955 0.241031,0.65423 v 1.14777 q 0,0.41894 -0.241031,0.65423 -0.235293,0.23529 -0.654229,0.23529 z m -0.424675,-0.4878 h 0.35007 q 0.413197,0 0.413197,-0.41894 v -1.11333 q 0,-0.41894 -0.413197,-0.41894 h -0.35007 q -0.218076,0 -0.315637,0.1033 -0.09756,0.0976 -0.09756,0.31564 v 1.11333 q 0,0.21808 0.09756,0.32138 0.09756,0.0976 0.315637,0.0976 z m 2.43901,0.4878 h -0.361548 q -0.09756,0 -0.09756,-0.0976 v -2.73169 q 0,-0.0976 0.09756,-0.0976 h 0.361548 q 0.09756,0 0.09756,0.0976 v 0.21807 h 0.02296 q 0.05739,-0.14347 0.218077,-0.22955 0.166426,-0.0861 0.367286,-0.0861 h 0.212338 q 0.09756,0 0.09756,0.0976 v 0.29842 q 0,0.10904 -0.09756,0.0918 h -0.344331 q -0.476325,0 -0.476325,0.52223 v 1.81922 q 0,0.0976 -0.09756,0.0976 z m 3.535126,0 h -1.239591 q -0.424675,0 -0.659968,-0.23529 -0.229554,-0.23529 -0.229554,-0.65423 v -1.14777 q 0,-0.42468 0.229554,-0.65423 0.235293,-0.23529 0.659968,-0.23529 h 0.470585 q 0.424675,0 0.659968,0.23529 0.235293,0.22955 0.235293,0.65423 v 0.72883 q 0,0.1033 -0.103299,0.1033 h -1.538012 q -0.06313,0 -0.06313,0.0574 v 0.24677 q 0,0.41894 0.418936,0.41894 h 1.159248 q 0.103299,0 0.103299,0.1033 v 0.28694 q 0,0.0918 -0.103299,0.0918 z m -1.515056,-1.5954 h 1.027254 q 0.05739,0 0.05739,-0.0574 v -0.36728 q 0,-0.21808 -0.09756,-0.31564 -0.09756,-0.1033 -0.315637,-0.1033 h -0.315637 q -0.218076,0 -0.315636,0.1033 -0.09756,0.0976 -0.09756,0.31564 v 0.36728 q 0,0.0574 0.05739,0.0574 z m 3.437576,-1.19368 v -0.33859 q 0,-0.0918 0.08034,-0.13773 l 0.59684,-0.36155 q 0.109039,-0.0631 0.183644,-0.0631 h 0.344331 q 0.09756,0 0.09756,0.0976 v 3.49496 q 0,0.0976 -0.09182,0.0976 h -0.373025 q -0.09756,0 -0.09756,-0.0976 v -2.99568 l -0.625535,0.36155 q -0.114777,0.0516 -0.114777,-0.0574 z"
       id="text1-8-88"
       aria-label="Core 1" />
    <g
       id="text1-8-7-8"
       style="font-size:3.90381px;font-family:Rajdhani;-inkscape-font-specification:Rajdhani;text-align:center;text-anchor:middle;fill:#ffffff;stroke-width:0.325317"
       aria-label="Scatchpad&#10;4kB, 1 Cycle"
       transform="translate(47.920859)">
      <path
         style="font-weight:600;-inkscape-font-specification:'Rajdhani Semi-Bold'"
         d="m 55.52367,187.11002 v -0.1015 q 0,-0.0664 0.06636,-0.0664 h 0.249844 q 0.06636,0 0.06636,0.0664 v 0.0703 q 0,0.16396 0.07027,0.23814 0.07417,0.0703 0.242037,0.0703 h 0.269362 q 0.167864,0 0.242037,-0.0742 0.07417,-0.0781 0.07417,-0.24984 v -0.0898 q 0,-0.12492 -0.09759,-0.19519 -0.09369,-0.0742 -0.234229,-0.0937 -0.140537,-0.0234 -0.308401,-0.0625 -0.167864,-0.039 -0.308401,-0.0898 -0.140537,-0.0507 -0.238132,-0.19129 -0.09369,-0.14053 -0.09369,-0.35915 v -0.16396 q 0,-0.28497 0.160057,-0.44503 0.16396,-0.16396 0.448938,-0.16396 h 0.413804 q 0.288882,0 0.448938,0.16396 0.16396,0.16006 0.16396,0.44503 v 0.0859 q 0,0.0664 -0.06637,0.0664 H 56.84315 q -0.06637,0 -0.06637,-0.0664 v -0.0507 q 0,-0.16787 -0.07417,-0.23813 -0.07027,-0.0742 -0.238132,-0.0742 h -0.24594 q -0.167864,0 -0.242037,0.0781 -0.07027,0.0742 -0.07027,0.25765 v 0.12102 q 0,0.17567 0.253747,0.23813 0.113211,0.0273 0.24594,0.0469 0.136634,0.0195 0.273267,0.0585 0.136634,0.039 0.249844,0.10541 0.113211,0.0625 0.183479,0.19519 0.07027,0.12882 0.07027,0.31621 v 0.15225 q 0,0.28497 -0.16396,0.44893 -0.160057,0.16006 -0.445035,0.16006 h -0.437226 q -0.284979,0 -0.448939,-0.16006 -0.16396,-0.16396 -0.16396,-0.44893 z m 3.357278,0.34353 v 0.203 q 0,0.0625 -0.07027,0.0625 h -0.57386 q -0.288882,0 -0.448939,-0.16006 -0.156152,-0.16005 -0.156152,-0.44503 v -0.78076 q 0,-0.28889 0.156152,-0.44504 0.160057,-0.16005 0.448939,-0.16005 h 0.57386 q 0.07027,0 0.07027,0.0664 v 0.203 q 0,0.0625 -0.07027,0.0625 h -0.519207 q -0.281074,0 -0.281074,0.28888 v 0.74953 q 0,0.28889 0.281074,0.28889 h 0.519207 q 0.07027,0 0.07027,0.0664 z m 1.089166,0.26546 h -0.152249 q -0.288881,0 -0.448938,-0.16006 -0.156152,-0.16005 -0.156152,-0.44503 v -0.78076 q 0,-0.28889 0.156152,-0.44504 0.160057,-0.16005 0.448938,-0.16005 h 0.874454 q 0.07027,0 0.07027,0.0664 v 1.85821 q 0,0.0664 -0.07027,0.0664 h -0.24594 q -0.06636,0 -0.06636,-0.0664 v -0.14053 h -0.01562 q -0.09369,0.2069 -0.394285,0.2069 z m 0.4099,-0.66365 v -0.95643 q 0,-0.039 -0.04294,-0.039 h -0.464553 q -0.281074,0 -0.281074,0.28888 v 0.74953 q 0,0.28889 0.281074,0.28889 h 0.187383 q 0.320112,0 0.320112,-0.33183 z m 0.929104,-0.99547 h -0.187383 q -0.03904,0 -0.05465,-0.0117 -0.01171,-0.0156 -0.01171,-0.0507 v -0.203 q 0,-0.0664 0.06636,-0.0664 h 0.187383 q 0.03904,0 0.03904,-0.039 v -0.35134 q 0,-0.0664 0.07027,-0.0664 h 0.24594 q 0.06636,0 0.06636,0.0664 v 0.35134 q 0,0.039 0.04294,0.039 h 0.363054 q 0.07027,0 0.07027,0.0664 v 0.203 q 0,0.0625 -0.07027,0.0625 h -0.363054 q -0.04294,0 -0.04294,0.039 v 1.00328 q 0,0.28498 0.292786,0.28498 h 0.152248 q 0.07027,0 0.07027,0.0664 v 0.203 q 0,0.0625 -0.07027,0.0625 h -0.210805 q -0.288882,0 -0.452842,-0.15615 -0.16396,-0.15616 -0.16396,-0.44113 v -1.0228 q 0,-0.039 -0.03904,-0.039 z m 2.52186,1.39366 v 0.203 q 0,0.0625 -0.07027,0.0625 h -0.57386 q -0.288882,0 -0.448938,-0.16006 -0.156152,-0.16005 -0.156152,-0.44503 v -0.78076 q 0,-0.28889 0.156152,-0.44504 0.160056,-0.16005 0.448938,-0.16005 h 0.57386 q 0.07027,0 0.07027,0.0664 v 0.203 q 0,0.0625 -0.07027,0.0625 h -0.519206 q -0.281075,0 -0.281075,0.28888 v 0.74953 q 0,0.28889 0.281075,0.28889 h 0.519206 q 0.07027,0 0.07027,0.0664 z m 0.683169,0.26546 h -0.24594 q -0.06637,0 -0.06637,-0.0664 V 185.041 q 0,-0.0664 0.06637,-0.0664 h 0.24594 q 0.06637,0 0.06637,0.0664 v 0.89397 h 0.01561 q 0.09369,-0.2069 0.394285,-0.2069 h 0.171768 q 0.284978,0 0.437226,0.15615 0.152249,0.15615 0.152249,0.44894 v 1.31948 q 0,0.0664 -0.07027,0.0664 h -0.24594 q -0.06636,0 -0.06636,-0.0664 v -1.30387 q 0,-0.28888 -0.284979,-0.28888 h -0.183479 q -0.320112,0 -0.320112,0.33182 v 1.26093 q 0,0.0664 -0.06637,0.0664 z m 2.018271,0.55044 h -0.24594 q -0.06637,0 -0.06637,-0.0664 v -2.40865 q 0,-0.0664 0.06637,-0.0664 h 0.24594 q 0.06636,0 0.06636,0.0664 v 0.14054 h 0.01562 q 0.09369,-0.2069 0.394285,-0.2069 h 0.199094 q 0.281074,0 0.429419,0.15615 0.152249,0.15615 0.152249,0.44894 v 0.78076 q 0,0.28888 -0.152249,0.44894 -0.148345,0.15615 -0.429419,0.15615 h -0.199094 q -0.300594,0 -0.394285,-0.2069 h -0.01562 v 0.69097 q 0,0.0664 -0.06636,0.0664 z m 0.386477,-0.88226 h 0.206902 q 0.281074,0 0.281074,-0.28889 v -0.74953 q 0,-0.28888 -0.281074,-0.28888 h -0.206902 q -0.320113,0 -0.320113,0.33182 v 0.66365 q 0,0.33183 0.320113,0.33183 z m 2.041692,0.33182 h -0.152249 q -0.288882,0 -0.448938,-0.16006 -0.156152,-0.16005 -0.156152,-0.44503 v -0.78076 q 0,-0.28889 0.156152,-0.44504 0.160056,-0.16005 0.448938,-0.16005 h 0.874454 q 0.07027,0 0.07027,0.0664 v 1.85821 q 0,0.0664 -0.07027,0.0664 h -0.24594 q -0.06637,0 -0.06637,-0.0664 v -0.14053 h -0.01561 q -0.09369,0.2069 -0.394285,0.2069 z m 0.4099,-0.66365 v -0.95643 q 0,-0.039 -0.04294,-0.039 h -0.464553 q -0.281075,0 -0.281075,0.28888 v 0.74953 q 0,0.28889 0.281075,0.28889 h 0.187383 q 0.320112,0 0.320112,-0.33183 z m 1.61227,0.66365 h -0.199095 q -0.281074,0 -0.433323,-0.15615 -0.148344,-0.16006 -0.148344,-0.44894 v -0.78076 q 0,-0.29279 0.148344,-0.44894 0.152249,-0.15615 0.433323,-0.15615 h 0.199095 q 0.300593,0 0.390381,0.2069 h 0.01561 V 185.041 q 0,-0.0664 0.06637,-0.0664 h 0.249843 q 0.06637,0 0.06637,0.0664 v 2.61164 q 0,0.0664 -0.06637,0.0664 h -0.249843 q -0.06637,0 -0.06637,-0.0664 v -0.14053 h -0.01561 q -0.08979,0.2069 -0.390381,0.2069 z m 0.405996,-0.66365 v -0.66365 q 0,-0.33182 -0.320113,-0.33182 h -0.206901 q -0.281075,0 -0.281075,0.28888 v 0.74953 q 0,0.28889 0.281075,0.28889 h 0.206901 q 0.320113,0 0.320113,-0.33183 z"
         id="path10" />
      <path
         style="font-weight:600;-inkscape-font-specification:'Rajdhani Semi-Bold'"
         d="m 55.806688,191.78678 v -1.38195 l -0.76905,1.38195 z m 0.29669,0.81199 h -0.230325 q -0.06636,0 -0.06636,-0.0664 v -0.4099 h -1.030606 q -0.11321,0 -0.11321,-0.11321 v -0.12102 q 0,-0.0859 0.03513,-0.15225 l 0.87055,-1.54981 q 0.03123,-0.0586 0.05856,-0.0781 0.02733,-0.0195 0.08198,-0.0195 h 0.343535 q 0.113211,0 0.113211,0.11321 v 1.58495 h 0.284978 q 0.06636,0 0.06636,0.0664 v 0.19519 q 0,0.0742 -0.06636,0.0742 h -0.284978 v 0.4099 q 0,0.0664 -0.06246,0.0664 z m 1.869929,-1.99094 h 0.281074 q 0.03513,0 0.04685,0.0234 0.01562,0.0195 -0.0078,0.0547 l -0.550437,0.87445 v 0.0156 l 0.593379,0.94473 q 0.01952,0.0312 0.0039,0.0546 -0.01171,0.0234 -0.05465,0.0234 h -0.253747 q -0.08979,0 -0.13273,-0.0664 l -0.550437,-0.90178 q -0.02733,-0.0507 0,-0.10541 l 0.511399,-0.85493 q 0.03513,-0.0625 0.113211,-0.0625 z m -0.8198,1.99094 h -0.245941 q -0.06636,0 -0.06636,-0.0664 v -2.61165 q 0,-0.0664 0.06636,-0.0664 h 0.245941 q 0.06636,0 0.06636,0.0664 v 2.61165 q 0,0.0664 -0.06636,0.0664 z m 1.928479,-0.32401 h 0.546534 q 0.292785,0 0.292785,-0.28108 v -0.24203 q 0,-0.28108 -0.308401,-0.28108 h -0.530918 q -0.04294,0 -0.04294,0.039 v 0.72611 q 0,0.039 0.04294,0.039 z m 0,-1.11649 h 0.507496 q 0.296689,0 0.296689,-0.28498 v -0.17958 q 0,-0.28107 -0.288882,-0.28107 h -0.515303 q -0.04294,0 -0.04294,0.039 v 0.66755 q 0,0.039 0.04294,0.039 z m -0.421611,1.37414 v -2.37742 q 0,-0.0664 0.06636,-0.0664 h 0.925203 q 0.288882,0 0.448939,0.15615 0.160056,0.15616 0.160056,0.44114 v 0.19128 q 0,0.33963 -0.320113,0.43723 0.152249,0.0195 0.249844,0.13273 0.101499,0.11321 0.101499,0.3045 v 0.24984 q 0,0.28498 -0.160056,0.44113 -0.160056,0.15615 -0.445034,0.15615 h -0.960338 q -0.06636,0 -0.06636,-0.0664 z m 2.455497,-0.47627 v 0.3045 q 0,0.0937 -0.07417,0.23423 l -0.206902,0.37867 q -0.01562,0.0351 -0.05856,0.0351 -0.05465,0 -0.05465,-0.0625 v -0.89007 q 0,-0.0625 0.06636,-0.0625 h 0.26546 q 0.06246,0 0.06246,0.0625 z m 1.229701,-1.35462 v -0.23032 q 0,-0.0625 0.05465,-0.0937 l 0.405996,-0.24594 q 0.07417,-0.0429 0.124922,-0.0429 h 0.234229 q 0.06636,0 0.06636,0.0664 v 2.37742 q 0,0.0664 -0.06246,0.0664 h -0.253748 q -0.06636,0 -0.06636,-0.0664 v -2.03779 l -0.425515,0.24594 q -0.07808,0.0351 -0.07808,-0.039 z m 3.400221,1.89725 h -0.452842 q -0.288882,0 -0.448938,-0.16005 -0.156153,-0.16006 -0.156153,-0.44504 v -1.29997 q 0,-0.28888 0.156153,-0.44503 0.160056,-0.16006 0.448938,-0.16006 h 0.452842 q 0.284978,0 0.445034,0.16006 0.160056,0.15615 0.160056,0.44503 v 0.18739 q 0,0.0703 -0.07027,0.0703 h -0.24594 q -0.06637,0 -0.06637,-0.0703 v -0.17177 q 0,-0.28888 -0.281075,-0.28888 h -0.339631 q -0.281074,0 -0.281074,0.28888 v 1.26874 q 0,0.28888 0.281074,0.28888 h 0.339631 q 0.281075,0 0.281075,-0.28888 v -0.17177 q 0,-0.0703 0.06637,-0.0703 h 0.24594 q 0.07027,0 0.07027,0.0703 v 0.18738 q 0,0.28498 -0.160056,0.44504 -0.160056,0.16005 -0.445034,0.16005 z m 1.284357,0.63242 h -0.206902 q -0.06637,0 -0.06637,-0.0664 v -0.19909 q 0,-0.0703 0.06637,-0.0703 h 0.08979 q 0.238133,0 0.32792,-0.0937 0.09369,-0.0937 0.156153,-0.3084 h -0.156153 q -0.05856,0 -0.08198,-0.0664 l -0.519206,-1.75281 q -0.01562,-0.0664 0.05075,-0.0664 h 0.261555 q 0.06246,0 0.07808,0.0664 l 0.425515,1.5303 h 0.01562 l 0.425515,-1.5303 q 0.01171,-0.0664 0.07808,-0.0664 h 0.249843 q 0.07417,0 0.06246,0.0703 l -0.534822,1.87773 q -0.08979,0.32792 -0.253747,0.49969 -0.16396,0.17567 -0.468457,0.17567 z m 2.799035,-0.89788 v 0.203 q 0,0.0625 -0.07027,0.0625 h -0.57386 q -0.288882,0 -0.448938,-0.16005 -0.156152,-0.16006 -0.156152,-0.44504 v -0.78076 q 0,-0.28888 0.156152,-0.44503 0.160056,-0.16006 0.448938,-0.16006 h 0.57386 q 0.07027,0 0.07027,0.0664 v 0.203 q 0,0.0625 -0.07027,0.0625 H 69.23971 q -0.281075,0 -0.281075,0.28888 v 0.74954 q 0,0.28888 0.281075,0.28888 h 0.519206 q 0.07027,0 0.07027,0.0664 z m 0.702689,0.26546 h -0.24594 q -0.06636,0 -0.06636,-0.0664 v -2.61165 q 0,-0.0664 0.06636,-0.0664 h 0.24594 q 0.06637,0 0.06637,0.0664 v 2.61165 q 0,0.0664 -0.06637,0.0664 z m 1.987038,0 H 71.67569 q -0.288882,0 -0.448938,-0.16005 -0.156152,-0.16006 -0.156152,-0.44504 v -0.78076 q 0,-0.28888 0.156152,-0.44503 0.160056,-0.16006 0.448938,-0.16006 h 0.320113 q 0.288882,0 0.448938,0.16006 0.160056,0.15615 0.160056,0.44503 v 0.49578 q 0,0.0703 -0.07027,0.0703 h -1.046222 q -0.04294,0 -0.04294,0.039 v 0.16786 q 0,0.28498 0.284978,0.28498 h 0.788569 q 0.07027,0 0.07027,0.0703 v 0.19519 q 0,0.0625 -0.07027,0.0625 z m -1.030606,-1.08526 h 0.698782 q 0.03904,0 0.03904,-0.039 v -0.24984 q 0,-0.14834 -0.06637,-0.21471 -0.06637,-0.0703 -0.21471,-0.0703 H 71.73034 q -0.148345,0 -0.21471,0.0703 -0.06637,0.0664 -0.06637,0.21471 v 0.24984 q 0,0.039 0.03904,0.039 z"
         id="path13" />
    </g>
    <g
       id="text1-83"
       style="font-size:5.08725px;font-family:Rajdhani;-inkscape-font-specification:Rajdhani;text-align:center;text-anchor:middle;fill:#ffffff;stroke-width:0.423936"
       aria-label="Main&#10;Memory&#10;4MB&#10;2 Cycles"
       transform="translate(47.920859)">
      <path
         style="font-weight:600;-inkscape-font-specification:'Rajdhani Semi-Bold'"
         d="m -6.5834683,190.52484 h 0.5697721 q 0.086483,0 0.086483,0.0865 v 3.09813 q 0,0.0865 -0.086483,0.0865 h -0.3154095 q -0.086483,0 -0.086483,-0.0865 v -2.56906 h -0.020349 l -0.6613425,1.86193 q -0.030524,0.0814 -0.1119195,0.0814 h -0.325584 q -0.076309,0 -0.1068323,-0.0814 l -0.6766043,-1.86702 h -0.020349 v 2.57415 q 0,0.0509 -0.020349,0.0712 -0.015262,0.0153 -0.066134,0.0153 h -0.3103223 q -0.086483,0 -0.086483,-0.0865 v -3.09813 q 0,-0.0865 0.086483,-0.0865 h 0.569772 q 0.05596,0 0.081396,0.056 l 0.6969533,1.96368 h 0.025436 l 0.7020405,-1.96368 q 0.010174,-0.056 0.076309,-0.056 z m 2.2841761,3.2711 h -0.1984027 q -0.3764565,0 -0.5850338,-0.20857 -0.20349,-0.20858 -0.20349,-0.57995 v -1.01745 q 0,-0.37646 0.20349,-0.57995 0.2085773,-0.20857 0.5850338,-0.20857 h 1.139544 q 0.09157,0 0.09157,0.0865 v 2.42153 q 0,0.0865 -0.09157,0.0865 h -0.3204967 q -0.086483,0 -0.086483,-0.0865 v -0.18314 h -0.020349 q -0.122094,0.26962 -0.5138123,0.26962 z m 0.5341613,-0.86483 v -1.24637 q 0,-0.0509 -0.05596,-0.0509 h -0.6053828 q -0.366282,0 -0.366282,0.37646 v 0.97675 q 0,0.37646 0.366282,0.37646 h 0.244188 q 0.4171545,0 0.4171545,-0.43242 z m 1.1598884,-2.16208 v -0.46294 q 0,-0.0814 0.081396,-0.0814 h 0.3306712 q 0.081396,0 0.081396,0.0814 v 0.46294 q 0,0.0865 -0.081396,0.0865 h -0.3306712 q -0.081396,0 -0.081396,-0.0865 z m 0,2.94043 v -2.42153 q 0,-0.0865 0.081396,-0.0865 h 0.325584 q 0.086483,0 0.086483,0.0865 v 2.42153 q 0,0.0509 -0.020349,0.0712 -0.015262,0.0153 -0.061047,0.0153 h -0.325584 q -0.086483,0 -0.086483,-0.0865 z m 1.5668722,0.0865 H -1.358867 q -0.086483,0 -0.086483,-0.0865 v -2.42153 q 0,-0.0865 0.086483,-0.0865 h 0.3204967 q 0.0864833,0 0.0864833,0.0865 v 0.18314 h 0.020349 q 0.122094,-0.26962 0.51381227,-0.26962 h 0.22383901 q 0.37136927,0 0.56977203,0.20349 0.19840275,0.20349 0.19840275,0.58503 v 1.71949 q 0,0.0865 -0.0915705,0.0865 H 0.16222078 q -0.08648326,0 -0.08648326,-0.0865 v -1.69914 q 0,-0.37646 -0.37136927,-0.37646 h -0.23910076 q -0.41715452,0 -0.41715452,0.43242 v 1.64318 q 0,0.0865 -0.0864833,0.0865 z"
         id="path6" />
      <path
         style="font-weight:600;-inkscape-font-specification:'Rajdhani Semi-Bold'"
         d="m -9.9512312,196.88391 h 0.569772 q 0.086483,0 0.086483,0.0865 v 3.09813 q 0,0.0865 -0.086483,0.0865 h -0.3154095 q -0.086483,0 -0.086483,-0.0865 v -2.56906 h -0.020349 l -0.6613433,1.86194 q -0.03052,0.0814 -0.111919,0.0814 h -0.325584 q -0.07631,0 -0.106832,-0.0814 l -0.676605,-1.86702 h -0.02035 v 2.57414 q 0,0.0509 -0.02035,0.0712 -0.01526,0.0153 -0.06613,0.0153 h -0.310322 q -0.08648,0 -0.08648,-0.0865 v -3.09813 q 0,-0.0865 0.08648,-0.0865 h 0.569772 q 0.05596,0 0.0814,0.056 l 0.696953,1.96368 h 0.02544 l 0.702041,-1.96368 q 0.01018,-0.056 0.076309,-0.056 z m 3.1846193,3.2711 h -1.098846 q -0.3764565,0 -0.5850338,-0.20858 -0.20349,-0.20858 -0.20349,-0.57995 v -1.01745 q 0,-0.37645 0.20349,-0.57994 0.2085773,-0.20858 0.5850338,-0.20858 h 0.4171545 q 0.3764565,0 0.5850338,0.20858 0.2085772,0.20349 0.2085772,0.57994 v 0.64608 q 0,0.0916 -0.09157,0.0916 h -1.363383 q -0.05596,0 -0.05596,0.0509 v 0.21875 q 0,0.37137 0.3713693,0.37137 h 1.0276245 q 0.091571,0 0.091571,0.0916 v 0.25436 q 0,0.0814 -0.091571,0.0814 z m -1.343034,-1.41426 h 0.9106178 q 0.050872,0 0.050872,-0.0509 v -0.32559 q 0,-0.19331 -0.086483,-0.27979 -0.086483,-0.0916 -0.2797987,-0.0916 h -0.2797988 q -0.1933155,0 -0.2797988,0.0916 -0.086483,0.0865 -0.086483,0.27979 v 0.32559 q 0,0.0509 0.050873,0.0509 z m 2.4215312,1.41426 h -0.3204968 q -0.086483,0 -0.086483,-0.0865 v -2.42153 q 0,-0.0865 0.086483,-0.0865 h 0.3204968 q 0.086483,0 0.086483,0.0865 v 0.18314 h 0.020349 q 0.1475303,-0.26962 0.5392485,-0.26962 h 0.1678793 q 0.4425908,0 0.630819,0.33576 0.081396,-0.16279 0.2492753,-0.24928 0.1678792,-0.0865 0.3611948,-0.0865 h 0.162792 q 0.3713692,0 0.5646847,0.20858 0.1984028,0.20349 0.1984028,0.57994 v 1.71949 q 0,0.0865 -0.086483,0.0865 h -0.325584 q -0.086483,0 -0.086483,-0.0865 v -1.69914 q 0,-0.37645 -0.366282,-0.37645 h -0.1475303 q -0.4222418,0 -0.4222418,0.44259 v 1.633 q 0,0.0865 -0.09157,0.0865 h -0.3204967 q -0.086483,0 -0.086483,-0.0865 v -1.69914 q 0,-0.37645 -0.366282,-0.37645 H -5.184477 q -0.4171545,0 -0.4171545,0.43241 v 1.64318 q 0,0.0865 -0.086483,0.0865 z m 4.78201898,0 H -1.3537737 q -0.3764566,0 -0.5850338,-0.20858 -0.20349,-0.20858 -0.20349,-0.57995 v -1.01745 q 0,-0.37645 0.20349,-0.57994 0.2085772,-0.20858 0.5850338,-0.20858 h 0.44767798 q 0.37136927,0 0.57994653,0.20858 0.21366451,0.20349 0.21366451,0.57994 v 1.01745 q 0,0.37137 -0.21366451,0.57995 -0.20857726,0.20858 -0.57994653,0.20858 z m -0.37645648,-0.43242 h 0.31032223 q 0.36628202,0 0.36628202,-0.37137 v -0.98693 q 0,-0.37136 -0.36628202,-0.37136 H -1.2825522 q -0.1933155,0 -0.2797988,0.0916 -0.086483,0.0865 -0.086483,0.27979 v 0.98693 q 0,0.19332 0.086483,0.28489 0.086483,0.0865 0.2797988,0.0865 z m 2.16207967,0.43242 H 0.55903071 q -0.0864833,0 -0.0864833,-0.0865 v -2.42153 q 0,-0.0865 0.0864833,-0.0865 h 0.32049676 q 0.0864833,0 0.0864833,0.0865 v 0.19332 h 0.020349 q 0.0508725,-0.12718 0.19331543,-0.20349 0.1475303,-0.0763 0.3255841,-0.0763 h 0.1882282 q 0.086483,0 0.086483,0.0865 v 0.26454 q 0,0.0967 -0.086483,0.0814 h -0.305235 q -0.42224173,0 -0.42224173,0.46294 v 1.61265 q 0,0.0865 -0.0864833,0.0865 z m 1.60247863,0.82413 H 2.2123818 q -0.086483,0 -0.086483,-0.0865 v -0.25945 q 0,-0.0916 0.086483,-0.0916 h 0.1170068 q 0.3103223,0 0.427329,-0.1221 0.122094,-0.12209 0.20349,-0.40189 h -0.20349 q -0.076309,0 -0.1068322,-0.0865 l -0.6766043,-2.28418 q -0.020349,-0.0865 0.066134,-0.0865 h 0.3408458 q 0.081396,0 0.101745,0.0865 l 0.5545103,1.9942 h 0.020349 l 0.5545103,-1.9942 q 0.015262,-0.0865 0.101745,-0.0865 h 0.325584 q 0.096658,0 0.081396,0.0916 l -0.6969533,2.44697 q -0.1170068,0.42733 -0.3306713,0.65117 -0.2136645,0.22892 -0.61047,0.22892 z"
         id="path7" />
      <path
         style="font-weight:600;-inkscape-font-specification:'Rajdhani Semi-Bold'"
         d="m -7.0591309,205.45592 v -1.80088 l -1.0021883,1.80088 z m 0.386631,1.05815 h -0.3001477 q -0.086483,0 -0.086483,-0.0865 v -0.53416 h -1.343034 q -0.1475303,0 -0.1475303,-0.14753 v -0.15771 q 0,-0.11192 0.045785,-0.1984 l 1.1344568,-2.01964 q 0.040698,-0.0763 0.076309,-0.10175 0.035611,-0.0254 0.1068323,-0.0254 h 0.447678 q 0.1475302,0 0.1475302,0.14753 v 2.06542 h 0.3713693 q 0.086483,0 0.086483,0.0865 v 0.25436 q 0,0.0967 -0.086483,0.0967 h -0.3713693 v 0.53416 q 0,0.0865 -0.081396,0.0865 z m 3.2507578,-3.2711 h 0.569772 q 0.086483,0 0.086483,0.0865 v 3.09814 q 0,0.0865 -0.086483,0.0865 h -0.3154095 q -0.086483,0 -0.086483,-0.0865 v -2.56906 h -0.020349 l -0.6613425,1.86193 q -0.030524,0.0814 -0.1119195,0.0814 h -0.325584 q -0.076309,0 -0.1068323,-0.0814 l -0.6766042,-1.86702 h -0.020349 v 2.57415 q 0,0.0509 -0.020349,0.0712 -0.015262,0.0153 -0.066134,0.0153 H -5.573649 q -0.086483,0 -0.086483,-0.0865 v -3.09814 q 0,-0.0865 0.086483,-0.0865 h 0.5697721 q 0.05596,0 0.081396,0.056 l 0.6969532,1.96368 h 0.025436 l 0.7020405,-1.96368 q 0.010174,-0.056 0.076309,-0.056 z m 1.9484178,2.84886 h 0.71221503 q 0.38154377,0 0.38154377,-0.36628 v -0.31541 q 0,-0.36629 -0.40189277,-0.36629 H -1.4733243 q -0.05596,0 -0.05596,0.0509 v 0.94623 q 0,0.0509 0.05596,0.0509 z m 0,-1.45496 h 0.66134253 q 0.38663102,0 0.38663102,-0.37136 v -0.23402 q 0,-0.36628 -0.37645652,-0.36628 H -1.4733243 q -0.05596,0 -0.05596,0.0509 v 0.86992 q 0,0.0509 0.05596,0.0509 z m -0.549423,1.79072 v -3.09814 q 0,-0.0865 0.086483,-0.0865 h 1.20567833 q 0.37645652,0 0.58503378,0.20349 0.20857726,0.20349 0.20857726,0.57486 v 0.24927 q 0,0.44259 -0.41715452,0.56977 0.19840276,0.0254 0.32558401,0.17297 0.13226851,0.14753 0.13226851,0.39681 v 0.32558 q 0,0.37137 -0.20857726,0.57486 -0.20857726,0.20349 -0.57994653,0.20349 H -1.9362641 q -0.086483,0 -0.086483,-0.0865 z"
         id="path8" />
      <path
         style="font-weight:600;-inkscape-font-specification:'Rajdhani Semi-Bold'"
         d="m -12.288827,212.78665 v -0.46803 q 0,-0.31541 0.269624,-0.52907 l 0.961491,-0.78344 q 0.244188,-0.19331 0.244188,-0.44768 v -0.16788 q 0,-0.36628 -0.381544,-0.36628 h -0.249275 q -0.193316,0 -0.279799,0.0865 -0.08648,0.0865 -0.08648,0.27979 v 0.18823 q 0,0.0916 -0.08648,0.0916 h -0.325584 q -0.08648,0 -0.08648,-0.0916 v -0.1984 q 0,-0.37137 0.208577,-0.57486 0.208578,-0.20349 0.585034,-0.20349 h 0.396806 q 0.371369,0 0.579946,0.20349 0.208577,0.20349 0.208577,0.57486 v 0.20858 q 0,0.3968 -0.310322,0.65117 l -0.976752,0.79869 q -0.117007,0.0967 -0.117007,0.22893 v 0.16279 h 1.322685 q 0.09157,0 0.09157,0.0865 v 0.26962 q 0,0.0865 -0.09157,0.0865 h -1.785624 q -0.09157,0 -0.09157,-0.0865 z m 5.1228628,0.0865 h -0.590121 q -0.3764565,0 -0.5850338,-0.20857 -0.20349,-0.20858 -0.20349,-0.57995 v -1.69406 q 0,-0.37645 0.20349,-0.57994 0.2085773,-0.20858 0.5850338,-0.20858 h 0.590121 q 0.3713693,0 0.5799465,0.20858 0.2085773,0.20349 0.2085773,0.57994 v 0.24419 q 0,0.0916 -0.09157,0.0916 h -0.3204968 q -0.086483,0 -0.086483,-0.0916 v -0.22384 q 0,-0.37645 -0.366282,-0.37645 H -7.684863 q -0.366282,0 -0.366282,0.37645 v 1.65336 q 0,0.37646 0.366282,0.37646 h 0.4425908 q 0.366282,0 0.366282,-0.37646 v -0.22384 q 0,-0.0916 0.086483,-0.0916 h 0.3204968 q 0.09157,0 0.09157,0.0916 v 0.24419 q 0,0.37137 -0.2085773,0.57995 -0.2085772,0.20857 -0.5799465,0.20857 z m 1.6737101,0.82414 h -0.2696242 q -0.086483,0 -0.086483,-0.0865 v -0.25945 q 0,-0.0916 0.086483,-0.0916 h 0.1170067 q 0.3103223,0 0.427329,-0.12209 0.122094,-0.12209 0.20349,-0.40189 h -0.20349 q -0.076309,0 -0.1068322,-0.0865 l -0.6766043,-2.28417 q -0.020349,-0.0865 0.066134,-0.0865 h 0.3408457 q 0.081396,0 0.101745,0.0865 l 0.5545103,1.9942 h 0.020349 l 0.5545103,-1.9942 q 0.015262,-0.0865 0.101745,-0.0865 h 0.325584 q 0.096658,0 0.081396,0.0916 l -0.6969533,2.44696 q -0.1170067,0.42733 -0.3306713,0.65117 -0.2136645,0.22893 -0.61047,0.22893 z m 3.6475631,-1.17007 v 0.26454 q 0,0.0814 -0.09157,0.0814 h -0.7478258 q -0.3764565,0 -0.5850337,-0.20857 -0.2034901,-0.20858 -0.2034901,-0.57995 v -1.01745 q 0,-0.37646 0.2034901,-0.57995 0.2085772,-0.20858 0.5850337,-0.20858 h 0.7478258 q 0.09157,0 0.09157,0.0865 v 0.26454 q 0,0.0814 -0.09157,0.0814 h -0.6766043 q -0.366282,0 -0.366282,0.37646 v 0.97675 q 0,0.37646 0.366282,0.37646 h 0.6766043 q 0.09157,0 0.09157,0.0865 z m 0.91570865,0.34593 H -1.2494791 q -0.086483,0 -0.086483,-0.0865 v -3.40337 q 0,-0.0865 0.086483,-0.0865 h 0.32049675 q 0.0864833,0 0.0864833,0.0865 v 3.40337 q 0,0.0865 -0.0864833,0.0865 z m 2.58940955,0 H 0.56158114 q -0.37645651,0 -0.58503377,-0.20857 -0.20349001,-0.20858 -0.20349001,-0.57995 v -1.01745 q 0,-0.37646 0.20349001,-0.57995 0.20857726,-0.20858 0.58503377,-0.20858 h 0.41715452 q 0.37645654,0 0.58503374,0.20858 0.2085773,0.20349 0.2085773,0.57995 v 0.64608 q 0,0.0916 -0.09157,0.0916 H 0.31739313 q -0.0559598,0 -0.0559598,0.0509 v 0.21875 q 0,0.37137 0.37136927,0.37137 h 1.0276246 q 0.09157,0 0.09157,0.0916 v 0.25437 q 0,0.0814 -0.09157,0.0814 z M 0.31739313,211.45888 H 1.2280109 q 0.050873,0 0.050873,-0.0509 v -0.32558 q 0,-0.19332 -0.086483,-0.2798 -0.086483,-0.0916 -0.27979879,-0.0916 H 0.63280265 q -0.19331551,0 -0.27979877,0.0916 -0.0864833,0.0865 -0.0864833,0.2798 v 0.32558 q 0,0.0509 0.0508726,0.0509 z m 2.94043097,1.41425 H 2.32177 q -0.086483,0 -0.086483,-0.0865 v -0.24928 q 0,-0.0814 0.086483,-0.0814 h 0.8546581 q 0.3306712,0 0.3306712,-0.22893 v -0.061 q 0,-0.20349 -0.2391007,-0.31032 l -0.5545103,-0.26453 q -0.2594498,-0.1221 -0.3764565,-0.26963 -0.1170068,-0.14753 -0.1170068,-0.38663 0,-0.65626 0.7274768,-0.65626 h 0.8444836 q 0.081396,0 0.081396,0.0865 v 0.24927 q 0,0.0865 -0.081396,0.0865 H 3.0492468 q -0.1526175,0 -0.2340135,0.056 -0.081396,0.0509 -0.081396,0.13735 v 0.056 q 0,0.16279 0.2594498,0.28489 l 0.5595975,0.28488 q 0.264537,0.11701 0.3611948,0.2798 0.101745,0.15771 0.101745,0.41207 0,0.66134 -0.7580003,0.66134 z"
         id="path9" />
    </g>
    <path
       style="font-weight:600;font-size:5.73885px;font-family:Rajdhani;-inkscape-font-specification:'Rajdhani Semi-Bold';fill:#ffffff;stroke-width:0.478236"
       d="m 41.315575,238.31817 v 3.49496 q 0,0.0976 -0.09756,0.0976 h -0.361547 q -0.09756,0 -0.09756,-0.0976 v -3.49496 q 0,-0.0976 0.09756,-0.0976 h 0.361547 q 0.09756,0 0.09756,0.0976 z m 1.101861,3.59252 h -0.327114 q -0.120516,0 -0.08034,-0.1033 0.126254,-0.32137 0.642751,-1.73313 0.516496,-1.41176 0.64849,-1.75035 0.04591,-0.1033 0.131993,-0.1033 h 0.332854 q 0.109038,0 0.0746,0.10904 l -1.291242,3.47774 q -0.03443,0.1033 -0.131993,0.1033 z m 2.995676,-0.4878 h 0.49928 q 0.418936,0 0.418936,-0.42468 v -1.86512 q 0,-0.42468 -0.418936,-0.42468 h -0.49928 q -0.413197,0 -0.413197,0.42468 v 1.86512 q 0,0.42468 0.413197,0.42468 z m 0.585363,0.4878 h -0.665707 q -0.424675,0 -0.659968,-0.23529 -0.229554,-0.2353 -0.229554,-0.65423 v -1.91104 q 0,-0.42467 0.229554,-0.65423 0.235293,-0.23529 0.659968,-0.23529 h 0.665707 q 0.424675,0 0.659967,0.23529 0.235293,0.22956 0.235293,0.65423 v 1.91104 q 0,0.41893 -0.235293,0.65423 -0.235292,0.23529 -0.659967,0.23529 z"
       id="text1-7-0"
       aria-label="I/O" />
    <path
       style="font-weight:600;font-size:5.73885px;font-family:Rajdhani;-inkscape-font-specification:'Rajdhani Semi-Bold';fill:#ffffff;stroke-width:0.478236"
       d="m 122.07756,215.60418 h 0.80344 q 0.43041,0 0.43041,-0.4132 v -0.35581 q 0,-0.41319 -0.45337,-0.41319 h -0.78048 q -0.0631,0 -0.0631,0.0574 v 1.06742 q 0,0.0574 0.0631,0.0574 z m 0,-1.64131 h 0.74605 q 0.43615,0 0.43615,-0.41894 v -0.26398 q 0,-0.4132 -0.42468,-0.4132 h -0.75752 q -0.0631,0 -0.0631,0.0574 v 0.98134 q 0,0.0574 0.0631,0.0574 z m -0.6198,2.02007 v -3.49495 q 0,-0.0976 0.0976,-0.0976 h 1.36011 q 0.42467,0 0.65997,0.22956 0.23529,0.22955 0.23529,0.64849 v 0.2812 q 0,0.49928 -0.47059,0.64275 0.22382,0.0287 0.36729,0.19512 0.14921,0.16643 0.14921,0.44763 v 0.36729 q 0,0.41894 -0.23529,0.64849 -0.2353,0.22956 -0.65423,0.22956 h -1.41176 q -0.0976,0 -0.0976,-0.0976 z m 4.1951,0.0976 h -0.25825 q -0.4132,0 -0.63701,-0.22956 -0.21808,-0.23529 -0.21808,-0.65997 v -1.93973 q 0,-0.0976 0.0976,-0.0976 h 0.36155 q 0.0976,0 0.0976,0.0976 v 1.91678 q 0,0.42467 0.4132,0.42467 h 0.27546 q 0.47059,0 0.47059,-0.4878 v -1.85365 q 0,-0.0976 0.0976,-0.0976 h 0.36155 q 0.1033,0 0.1033,0.0976 v 2.73169 q 0,0.0976 -0.1033,0.0976 H 126.353 q -0.0976,0 -0.0976,-0.0976 v -0.20659 h -0.023 q -0.13773,0.30416 -0.57963,0.30416 z m 2.92681,0 h -1.05594 q -0.0976,0 -0.0976,-0.0976 v -0.2812 q 0,-0.0918 0.0976,-0.0918 h 0.96412 q 0.37303,0 0.37303,-0.25825 v -0.0689 q 0,-0.22956 -0.26973,-0.35007 l -0.62553,-0.29842 q -0.29268,-0.13774 -0.42468,-0.30416 -0.13199,-0.16643 -0.13199,-0.43616 0,-0.74031 0.82066,-0.74031 h 0.95264 q 0.0918,0 0.0918,0.0976 v 0.28121 q 0,0.0976 -0.0918,0.0976 h -0.83787 q -0.17216,0 -0.26399,0.0631 -0.0918,0.0574 -0.0918,0.15495 v 0.0631 q 0,0.18364 0.29269,0.32138 l 0.63127,0.32137 q 0.29842,0.13199 0.40746,0.31564 0.11477,0.1779 0.11477,0.46484 0,0.74606 -0.85508,0.74606 z"
       id="text1-7-7-4"
       aria-label="Bus" />
    <path
       style="font-weight:600;font-size:5.73885px;font-family:Rajdhani;-inkscape-font-specification:'Rajdhani Semi-Bold';fill:#ffffff;stroke-width:0.478236"
       d="m 69.601979,198.59229 v 0.80344 q 0,0.43041 0.413198,0.43041 h 0.355808 q 0.413198,0 0.413198,-0.45337 v -0.78048 q 0,-0.0631 -0.05739,-0.0631 h -1.067426 q -0.05739,0 -0.05739,0.0631 z m 1.641312,0 v 0.74605 q 0,0.43615 0.418936,0.43615 h 0.263987 q 0.413197,0 0.413197,-0.42467 v -0.75753 q 0,-0.0631 -0.05739,-0.0631 h -0.981343 q -0.05739,0 -0.05739,0.0631 z m -2.020076,-0.6198 h 3.49496 q 0.09756,0 0.09756,0.0976 v 1.36011 q 0,0.42468 -0.229554,0.65997 -0.229554,0.23529 -0.64849,0.23529 h -0.281203 q -0.49928,0 -0.642751,-0.47058 -0.02869,0.22381 -0.195121,0.36728 -0.166427,0.14921 -0.447631,0.14921 h -0.367286 q -0.418936,0 -0.64849,-0.23529 -0.229554,-0.23529 -0.229554,-0.65423 v -1.41176 q 0,-0.0976 0.09756,-0.0976 z m -0.09756,4.1951 v -0.25824 q 0,-0.4132 0.229554,-0.63702 0.235293,-0.21807 0.659968,-0.21807 h 1.939731 q 0.09756,0 0.09756,0.0976 v 0.36155 q 0,0.0976 -0.09756,0.0976 h -1.916776 q -0.424675,0 -0.424675,0.41319 v 0.27547 q 0,0.47058 0.487802,0.47058 h 1.853649 q 0.09756,0 0.09756,0.0976 v 0.36155 q 0,0.1033 -0.09756,0.1033 h -2.731693 q -0.09756,0 -0.09756,-0.1033 v -0.36155 q 0,-0.0976 0.09756,-0.0976 h 0.206599 v -0.023 q -0.304159,-0.13773 -0.304159,-0.57963 z m 0,2.92682 v -1.05595 q 0,-0.0976 0.09756,-0.0976 h 0.281204 q 0.09182,0 0.09182,0.0976 v 0.96413 q 0,0.37302 0.258248,0.37302 h 0.06887 q 0.229554,0 0.35007,-0.26972 l 0.29842,-0.62554 q 0.137732,-0.29268 0.304159,-0.42467 0.166427,-0.132 0.436153,-0.132 0.740311,0 0.740311,0.82066 v 0.95265 q 0,0.0918 -0.09756,0.0918 h -0.281204 q -0.09756,0 -0.09756,-0.0918 v -0.83787 q 0,-0.17217 -0.06313,-0.26399 -0.05739,-0.0918 -0.154948,-0.0918 h -0.06313 q -0.183643,0 -0.321375,0.29268 l -0.321376,0.63127 q -0.131994,0.29842 -0.315637,0.40746 -0.177904,0.11478 -0.464847,0.11478 -0.74605,0 -0.74605,-0.85509 z"
       id="text1-7-7-9-5"
       aria-label="Bus" />
    <path
       style="fill:none;fill-opacity:1;stroke:#000000;stroke-width:0.965;stroke-dasharray:none;stroke-opacity:1;marker-start:url(#Triangle-82);marker-end:url(#Triangle-82)"
       d="m 89.595732,201.8654 v 5.86226"
       id="path11"
       sodipodi:nodetypes="cc" />
    <path
       style="fill:none;fill-opacity:1;stroke:#000000;stroke-width:0.965;stroke-dasharray:none;stroke-opacity:1;marker-start:url(#Triangle-6-0);marker-end:url(#Triangle-6-0)"
       d="m 57.787439,201.96098 h 5.86226"
       id="path4-41-0"
       sodipodi:nodetypes="cc" />
    <path
       style="fill:none;fill-opacity:1;stroke:#000000;stroke-width:0.965;stroke-dasharray:none;stroke-opacity:1;marker-start:url(#Triangle-6-7-8);marker-end:url(#Triangle-6-7-8)"
       d="m 57.799977,240.06565 h 5.86226"
       id="path4-41-7-9"
       sodipodi:nodetypes="cc" />
    <path
       style="fill:none;fill-opacity:1;stroke:#000000;stroke-width:0.965;stroke-dasharray:none;stroke-opacity:1;marker-start:url(#Triangle-8-1);marker-end:url(#Triangle-8-1)"
       d="m 111.55468,201.8654 v 5.86226"
       id="path4-4-9"
       sodipodi:nodetypes="cc" />
    <rect
       style="fill:#f18828;fill-opacity:1;stroke-width:0.229576"
       id="rect1-1-6"
       width="20.385908"
       height="20.385908"
       x="128.16273"
       y="178.59375"
       ry="0.49072382" />
    <rect
       style="fill:#009fe3;fill-opacity:1;stroke-width:0.229576"
       id="rect1-6-3-8"
       width="20.385908"
       height="20.385908"
       x="150.15392"
       y="178.59375"
       ry="0.49072382" />
    <path
       style="font-weight:600;font-size:5.73885px;font-family:Rajdhani;-inkscape-font-specification:'Rajdhani Semi-Bold';fill:#ffffff;stroke-width:0.478236"
       d="m 132.77754,190.2247 h -0.66571 q -0.42467,0 -0.65997,-0.23529 -0.22955,-0.23529 -0.22955,-0.65423 v -1.91104 q 0,-0.42467 0.22955,-0.65423 0.2353,-0.23529 0.65997,-0.23529 h 0.66571 q 0.41893,0 0.65423,0.23529 0.23529,0.22956 0.23529,0.65423 v 0.27547 q 0,0.1033 -0.1033,0.1033 h -0.36155 q -0.0976,0 -0.0976,-0.1033 v -0.25251 q 0,-0.42468 -0.4132,-0.42468 h -0.49928 q -0.41319,0 -0.41319,0.42468 v 1.86512 q 0,0.42468 0.41319,0.42468 h 0.49928 q 0.4132,0 0.4132,-0.42468 v -0.25251 q 0,-0.10329 0.0976,-0.10329 h 0.36155 q 0.1033,0 0.1033,0.10329 v 0.27547 q 0,0.41894 -0.23529,0.65423 -0.2353,0.23529 -0.65423,0.23529 z m 2.88091,0 h -0.50502 q -0.42468,0 -0.65997,-0.23529 -0.22955,-0.23529 -0.22955,-0.65423 v -1.14777 q 0,-0.42468 0.22955,-0.65423 0.23529,-0.23529 0.65997,-0.23529 h 0.50502 q 0.41893,0 0.65422,0.23529 0.24104,0.22955 0.24104,0.65423 v 1.14777 q 0,0.41894 -0.24104,0.65423 -0.23529,0.23529 -0.65422,0.23529 z m -0.42468,-0.4878 h 0.35007 q 0.4132,0 0.4132,-0.41894 v -1.11333 q 0,-0.41894 -0.4132,-0.41894 h -0.35007 q -0.21808,0 -0.31564,0.1033 -0.0976,0.0976 -0.0976,0.31564 v 1.11333 q 0,0.21808 0.0976,0.32138 0.0976,0.0976 0.31564,0.0976 z m 2.43901,0.4878 h -0.36155 q -0.0976,0 -0.0976,-0.0976 v -2.73169 q 0,-0.0976 0.0976,-0.0976 h 0.36155 q 0.0976,0 0.0976,0.0976 v 0.21807 h 0.023 q 0.0574,-0.14347 0.21808,-0.22955 0.16642,-0.0861 0.36728,-0.0861 h 0.21234 q 0.0976,0 0.0976,0.0976 v 0.29842 q 0,0.10904 -0.0976,0.0918 h -0.34433 q -0.47633,0 -0.47633,0.52223 v 1.81922 q 0,0.0976 -0.0976,0.0976 z m 3.53513,0 h -1.23959 q -0.42468,0 -0.65997,-0.23529 -0.22956,-0.23529 -0.22956,-0.65423 v -1.14777 q 0,-0.42468 0.22956,-0.65423 0.23529,-0.23529 0.65997,-0.23529 h 0.47058 q 0.42468,0 0.65997,0.23529 0.23529,0.22955 0.23529,0.65423 v 0.72883 q 0,0.1033 -0.1033,0.1033 h -1.53801 q -0.0631,0 -0.0631,0.0574 v 0.24677 q 0,0.41894 0.41894,0.41894 h 1.15924 q 0.1033,0 0.1033,0.1033 v 0.28694 q 0,0.0918 -0.1033,0.0918 z m -1.51506,-1.5954 h 1.02725 q 0.0574,0 0.0574,-0.0574 v -0.36728 q 0,-0.21808 -0.0976,-0.31564 -0.0976,-0.1033 -0.31563,-0.1033 h -0.31564 q -0.21808,0 -0.31564,0.1033 -0.0976,0.0976 -0.0976,0.31564 v 0.36728 q 0,0.0574 0.0574,0.0574 z m 3.57531,1.49784 v -0.52797 q 0,-0.35581 0.30416,-0.59684 l 1.08464,-0.88379 q 0.27547,-0.21807 0.27547,-0.50502 v -0.18938 q 0,-0.4132 -0.43042,-0.4132 h -0.2812 q -0.21808,0 -0.31564,0.0976 -0.0976,0.0976 -0.0976,0.31563 v 0.21234 q 0,0.1033 -0.0976,0.1033 h -0.36728 q -0.0976,0 -0.0976,-0.1033 v -0.22382 q 0,-0.41893 0.23529,-0.64849 0.23529,-0.22955 0.65997,-0.22955 h 0.44763 q 0.41893,0 0.65423,0.22955 0.23529,0.22956 0.23529,0.64849 v 0.2353 q 0,0.44763 -0.35007,0.73457 l -1.10186,0.901 q -0.13199,0.10904 -0.13199,0.25825 v 0.18364 h 1.4921 q 0.1033,0 0.1033,0.0976 v 0.30416 q 0,0.0976 -0.1033,0.0976 h -2.01434 q -0.1033,0 -0.1033,-0.0976 z"
       id="text1-8-8-3"
       aria-label="Core 2" />
    <g
       id="text1-8-7-3-8"
       style="font-size:3.90381px;font-family:Rajdhani;-inkscape-font-specification:Rajdhani;text-align:center;text-anchor:middle;fill:#ffffff;stroke-width:0.325317"
       aria-label="Scatchpad&#10;4kB, 1 Cycle"
       transform="translate(47.920859)">
      <path
         style="font-weight:600;-inkscape-font-specification:'Rajdhani Semi-Bold'"
         d="m 104.28364,187.11002 v -0.1015 q 0,-0.0664 0.0664,-0.0664 h 0.24985 q 0.0664,0 0.0664,0.0664 v 0.0703 q 0,0.16396 0.0703,0.23814 0.0742,0.0703 0.24204,0.0703 h 0.26936 q 0.16786,0 0.24204,-0.0742 0.0742,-0.0781 0.0742,-0.24984 v -0.0898 q 0,-0.12492 -0.0976,-0.19519 -0.0937,-0.0742 -0.23423,-0.0937 -0.14053,-0.0234 -0.3084,-0.0625 -0.16786,-0.039 -0.3084,-0.0898 -0.14054,-0.0507 -0.23813,-0.19129 -0.0937,-0.14053 -0.0937,-0.35915 v -0.16396 q 0,-0.28497 0.16005,-0.44503 0.16396,-0.16396 0.44894,-0.16396 h 0.41381 q 0.28888,0 0.44893,0.16396 0.16396,0.16006 0.16396,0.44503 v 0.0859 q 0,0.0664 -0.0664,0.0664 h -0.24984 q -0.0664,0 -0.0664,-0.0664 v -0.0507 q 0,-0.16787 -0.0742,-0.23813 -0.0703,-0.0742 -0.23813,-0.0742 h -0.24594 q -0.16787,0 -0.24204,0.0781 -0.0703,0.0742 -0.0703,0.25765 v 0.12102 q 0,0.17567 0.25375,0.23813 0.11321,0.0273 0.24594,0.0469 0.13663,0.0195 0.27327,0.0585 0.13663,0.039 0.24984,0.10541 0.11321,0.0625 0.18348,0.19519 0.0703,0.12882 0.0703,0.31621 v 0.15225 q 0,0.28497 -0.16396,0.44893 -0.16006,0.16006 -0.44504,0.16006 h -0.43722 q -0.28498,0 -0.44894,-0.16006 -0.16396,-0.16396 -0.16396,-0.44893 z m 3.35728,0.34353 v 0.203 q 0,0.0625 -0.0703,0.0625 h -0.57386 q -0.28888,0 -0.44894,-0.16006 -0.15615,-0.16005 -0.15615,-0.44503 v -0.78076 q 0,-0.28889 0.15615,-0.44504 0.16006,-0.16005 0.44894,-0.16005 h 0.57386 q 0.0703,0 0.0703,0.0664 v 0.203 q 0,0.0625 -0.0703,0.0625 h -0.51921 q -0.28107,0 -0.28107,0.28888 v 0.74953 q 0,0.28889 0.28107,0.28889 h 0.51921 q 0.0703,0 0.0703,0.0664 z m 1.08916,0.26546 h -0.15225 q -0.28888,0 -0.44893,-0.16006 -0.15616,-0.16005 -0.15616,-0.44503 v -0.78076 q 0,-0.28889 0.15616,-0.44504 0.16005,-0.16005 0.44893,-0.16005 h 0.87446 q 0.0703,0 0.0703,0.0664 v 1.85821 q 0,0.0664 -0.0703,0.0664 h -0.24594 q -0.0664,0 -0.0664,-0.0664 v -0.14053 h -0.0156 q -0.0937,0.2069 -0.39429,0.2069 z m 0.4099,-0.66365 v -0.95643 q 0,-0.039 -0.0429,-0.039 h -0.46455 q -0.28108,0 -0.28108,0.28888 v 0.74953 q 0,0.28889 0.28108,0.28889 h 0.18738 q 0.32011,0 0.32011,-0.33183 z m 0.92911,-0.99547 h -0.18739 q -0.039,0 -0.0546,-0.0117 -0.0117,-0.0156 -0.0117,-0.0507 v -0.203 q 0,-0.0664 0.0664,-0.0664 h 0.18739 q 0.039,0 0.039,-0.039 v -0.35134 q 0,-0.0664 0.0703,-0.0664 h 0.24594 q 0.0664,0 0.0664,0.0664 v 0.35134 q 0,0.039 0.0429,0.039 h 0.36305 q 0.0703,0 0.0703,0.0664 v 0.203 q 0,0.0625 -0.0703,0.0625 h -0.36305 q -0.0429,0 -0.0429,0.039 v 1.00328 q 0,0.28498 0.29278,0.28498 h 0.15225 q 0.0703,0 0.0703,0.0664 v 0.203 q 0,0.0625 -0.0703,0.0625 h -0.2108 q -0.28889,0 -0.45285,-0.15615 -0.16396,-0.15616 -0.16396,-0.44113 v -1.0228 q 0,-0.039 -0.039,-0.039 z m 2.52186,1.39366 v 0.203 q 0,0.0625 -0.0703,0.0625 h -0.57386 q -0.28888,0 -0.44894,-0.16006 -0.15615,-0.16005 -0.15615,-0.44503 v -0.78076 q 0,-0.28889 0.15615,-0.44504 0.16006,-0.16005 0.44894,-0.16005 h 0.57386 q 0.0703,0 0.0703,0.0664 v 0.203 q 0,0.0625 -0.0703,0.0625 h -0.51921 q -0.28107,0 -0.28107,0.28888 v 0.74953 q 0,0.28889 0.28107,0.28889 h 0.51921 q 0.0703,0 0.0703,0.0664 z m 0.68317,0.26546 h -0.24595 q -0.0664,0 -0.0664,-0.0664 V 185.041 q 0,-0.0664 0.0664,-0.0664 h 0.24595 q 0.0664,0 0.0664,0.0664 v 0.89397 h 0.0156 q 0.0937,-0.2069 0.39428,-0.2069 h 0.17177 q 0.28498,0 0.43722,0.15615 0.15225,0.15615 0.15225,0.44894 v 1.31948 q 0,0.0664 -0.0703,0.0664 h -0.24594 q -0.0664,0 -0.0664,-0.0664 v -1.30387 q 0,-0.28888 -0.28498,-0.28888 h -0.18348 q -0.32011,0 -0.32011,0.33182 v 1.26093 q 0,0.0664 -0.0664,0.0664 z m 2.01827,0.55044 h -0.24594 q -0.0664,0 -0.0664,-0.0664 v -2.40865 q 0,-0.0664 0.0664,-0.0664 h 0.24594 q 0.0664,0 0.0664,0.0664 v 0.14054 h 0.0156 q 0.0937,-0.2069 0.39428,-0.2069 h 0.19909 q 0.28108,0 0.42942,0.15615 0.15225,0.15615 0.15225,0.44894 v 0.78076 q 0,0.28888 -0.15225,0.44894 -0.14834,0.15615 -0.42942,0.15615 h -0.19909 q -0.30059,0 -0.39428,-0.2069 h -0.0156 v 0.69097 q 0,0.0664 -0.0664,0.0664 z m 0.38647,-0.88226 h 0.2069 q 0.28108,0 0.28108,-0.28889 v -0.74953 q 0,-0.28888 -0.28108,-0.28888 h -0.2069 q -0.32011,0 -0.32011,0.33182 v 0.66365 q 0,0.33183 0.32011,0.33183 z m 2.04169,0.33182 h -0.15224 q -0.28889,0 -0.44894,-0.16006 -0.15615,-0.16005 -0.15615,-0.44503 v -0.78076 q 0,-0.28889 0.15615,-0.44504 0.16005,-0.16005 0.44894,-0.16005 h 0.87445 q 0.0703,0 0.0703,0.0664 v 1.85821 q 0,0.0664 -0.0703,0.0664 h -0.24594 q -0.0664,0 -0.0664,-0.0664 v -0.14053 h -0.0156 q -0.0937,0.2069 -0.39429,0.2069 z m 0.4099,-0.66365 v -0.95643 q 0,-0.039 -0.0429,-0.039 H 117.623 q -0.28107,0 -0.28107,0.28888 v 0.74953 q 0,0.28889 0.28107,0.28889 h 0.18738 q 0.32011,0 0.32011,-0.33183 z m 1.61227,0.66365 h -0.19909 q -0.28107,0 -0.43332,-0.15615 -0.14835,-0.16006 -0.14835,-0.44894 v -0.78076 q 0,-0.29279 0.14835,-0.44894 0.15225,-0.15615 0.43332,-0.15615 h 0.19909 q 0.3006,0 0.39039,0.2069 h 0.0156 V 185.041 q 0,-0.0664 0.0664,-0.0664 h 0.24984 q 0.0664,0 0.0664,0.0664 v 2.61164 q 0,0.0664 -0.0664,0.0664 h -0.24984 q -0.0664,0 -0.0664,-0.0664 v -0.14053 h -0.0156 q -0.0898,0.2069 -0.39039,0.2069 z m 0.406,-0.66365 v -0.66365 q 0,-0.33182 -0.32011,-0.33182 h -0.2069 q -0.28108,0 -0.28108,0.28888 v 0.74953 q 0,0.28889 0.28108,0.28889 h 0.2069 q 0.32011,0 0.32011,-0.33183 z"
         id="path14" />
      <path
         style="font-weight:600;-inkscape-font-specification:'Rajdhani Semi-Bold'"
         d="m 104.56666,191.78678 v -1.38195 l -0.76905,1.38195 z m 0.29669,0.81199 h -0.23033 q -0.0664,0 -0.0664,-0.0664 v -0.4099 h -1.03061 q -0.11321,0 -0.11321,-0.11321 v -0.12102 q 0,-0.0859 0.0351,-0.15225 l 0.87055,-1.54981 q 0.0312,-0.0586 0.0586,-0.0781 0.0273,-0.0195 0.082,-0.0195 h 0.34354 q 0.11321,0 0.11321,0.11321 v 1.58495 h 0.28497 q 0.0664,0 0.0664,0.0664 v 0.19519 q 0,0.0742 -0.0664,0.0742 h -0.28497 v 0.4099 q 0,0.0664 -0.0625,0.0664 z m 1.86992,-1.99094 h 0.28108 q 0.0351,0 0.0468,0.0234 0.0156,0.0195 -0.008,0.0547 l -0.55044,0.87445 v 0.0156 l 0.59338,0.94473 q 0.0195,0.0312 0.004,0.0546 -0.0117,0.0234 -0.0546,0.0234 h -0.25375 q -0.0898,0 -0.13273,-0.0664 l -0.55044,-0.90178 q -0.0273,-0.0507 0,-0.10541 l 0.5114,-0.85493 q 0.0351,-0.0625 0.11321,-0.0625 z m -0.8198,1.99094 h -0.24594 q -0.0664,0 -0.0664,-0.0664 v -2.61165 q 0,-0.0664 0.0664,-0.0664 h 0.24594 q 0.0664,0 0.0664,0.0664 v 2.61165 q 0,0.0664 -0.0664,0.0664 z m 1.92848,-0.32401 h 0.54654 q 0.29278,0 0.29278,-0.28108 v -0.24203 q 0,-0.28108 -0.3084,-0.28108 h -0.53092 q -0.0429,0 -0.0429,0.039 v 0.72611 q 0,0.039 0.0429,0.039 z m 0,-1.11649 h 0.5075 q 0.29669,0 0.29669,-0.28498 v -0.17958 q 0,-0.28107 -0.28888,-0.28107 h -0.51531 q -0.0429,0 -0.0429,0.039 v 0.66755 q 0,0.039 0.0429,0.039 z m -0.42161,1.37414 v -2.37742 q 0,-0.0664 0.0664,-0.0664 h 0.9252 q 0.28888,0 0.44894,0.15615 0.16005,0.15616 0.16005,0.44114 v 0.19128 q 0,0.33963 -0.32011,0.43723 0.15225,0.0195 0.24985,0.13273 0.1015,0.11321 0.1015,0.3045 v 0.24984 q 0,0.28498 -0.16006,0.44113 -0.16006,0.15615 -0.44504,0.15615 h -0.96033 q -0.0664,0 -0.0664,-0.0664 z m 2.4555,-0.47627 v 0.3045 q 0,0.0937 -0.0742,0.23423 l -0.20691,0.37867 q -0.0156,0.0351 -0.0585,0.0351 -0.0547,0 -0.0547,-0.0625 v -0.89007 q 0,-0.0625 0.0664,-0.0625 h 0.26546 q 0.0625,0 0.0625,0.0625 z m 1.2297,-1.35462 v -0.23032 q 0,-0.0625 0.0546,-0.0937 l 0.406,-0.24594 q 0.0742,-0.0429 0.12492,-0.0429 h 0.23423 q 0.0664,0 0.0664,0.0664 v 2.37742 q 0,0.0664 -0.0625,0.0664 h -0.25374 q -0.0664,0 -0.0664,-0.0664 v -2.03779 l -0.42551,0.24594 q -0.0781,0.0351 -0.0781,-0.039 z m 3.40022,1.89725 h -0.45284 q -0.28888,0 -0.44894,-0.16005 -0.15615,-0.16006 -0.15615,-0.44504 v -1.29997 q 0,-0.28888 0.15615,-0.44503 0.16006,-0.16006 0.44894,-0.16006 h 0.45284 q 0.28498,0 0.44504,0.16006 0.16005,0.15615 0.16005,0.44503 v 0.18739 q 0,0.0703 -0.0703,0.0703 h -0.24594 q -0.0664,0 -0.0664,-0.0703 v -0.17177 q 0,-0.28888 -0.28108,-0.28888 h -0.33963 q -0.28107,0 -0.28107,0.28888 v 1.26874 q 0,0.28888 0.28107,0.28888 h 0.33963 q 0.28108,0 0.28108,-0.28888 v -0.17177 q 0,-0.0703 0.0664,-0.0703 h 0.24594 q 0.0703,0 0.0703,0.0703 v 0.18738 q 0,0.28498 -0.16005,0.44504 -0.16006,0.16005 -0.44504,0.16005 z m 1.28436,0.63242 h -0.2069 q -0.0664,0 -0.0664,-0.0664 v -0.19909 q 0,-0.0703 0.0664,-0.0703 h 0.0898 q 0.23814,0 0.32792,-0.0937 0.0937,-0.0937 0.15616,-0.3084 h -0.15616 q -0.0585,0 -0.082,-0.0664 l -0.5192,-1.75281 q -0.0156,-0.0664 0.0508,-0.0664 h 0.26155 q 0.0625,0 0.0781,0.0664 l 0.42551,1.5303 h 0.0156 l 0.42551,-1.5303 q 0.0117,-0.0664 0.0781,-0.0664 h 0.24984 q 0.0742,0 0.0625,0.0703 l -0.53483,1.87773 q -0.0898,0.32792 -0.25374,0.49969 -0.16396,0.17567 -0.46846,0.17567 z m 2.79903,-0.89788 v 0.203 q 0,0.0625 -0.0703,0.0625 h -0.57386 q -0.28889,0 -0.44894,-0.16005 -0.15616,-0.16006 -0.15616,-0.44504 v -0.78076 q 0,-0.28888 0.15616,-0.44503 0.16005,-0.16006 0.44894,-0.16006 h 0.57386 q 0.0703,0 0.0703,0.0664 v 0.203 q 0,0.0625 -0.0703,0.0625 h -0.51921 q -0.28108,0 -0.28108,0.28888 v 0.74954 q 0,0.28888 0.28108,0.28888 h 0.51921 q 0.0703,0 0.0703,0.0664 z m 0.70269,0.26546 h -0.24594 q -0.0664,0 -0.0664,-0.0664 v -2.61165 q 0,-0.0664 0.0664,-0.0664 h 0.24594 q 0.0664,0 0.0664,0.0664 v 2.61165 q 0,0.0664 -0.0664,0.0664 z m 1.98704,0 h -0.84322 q -0.28888,0 -0.44894,-0.16005 -0.15615,-0.16006 -0.15615,-0.44504 v -0.78076 q 0,-0.28888 0.15615,-0.44503 0.16006,-0.16006 0.44894,-0.16006 h 0.32011 q 0.28888,0 0.44894,0.16006 0.16005,0.15615 0.16005,0.44503 v 0.49578 q 0,0.0703 -0.0703,0.0703 h -1.04622 q -0.0429,0 -0.0429,0.039 v 0.16786 q 0,0.28498 0.28498,0.28498 h 0.78857 q 0.0703,0 0.0703,0.0703 v 0.19519 q 0,0.0625 -0.0703,0.0625 z m -1.0306,-1.08526 h 0.69878 q 0.039,0 0.039,-0.039 v -0.24984 q 0,-0.14834 -0.0664,-0.21471 -0.0664,-0.0703 -0.21471,-0.0703 h -0.21471 q -0.14834,0 -0.21471,0.0703 -0.0664,0.0664 -0.0664,0.21471 v 0.24984 q 0,0.039 0.039,0.039 z"
         id="path15" />
    </g>
    <rect
       style="fill:#f18828;fill-opacity:1;stroke-width:0.229576"
       id="rect1-4-9"
       width="20.385908"
       height="20.385908"
       x="79.402779"
       y="230.16824"
       ry="0.49072382" />
    <rect
       style="fill:#009fe3;fill-opacity:1;stroke-width:0.229576"
       id="rect1-6-9-2"
       width="20.385908"
       height="20.385908"
       x="101.39396"
       y="230.16824"
       ry="0.49072382" />
    <path
       style="font-weight:600;font-size:5.73885px;font-family:Rajdhani;-inkscape-font-specification:'Rajdhani Semi-Bold';fill:#ffffff;stroke-width:0.478236"
       d="m 84.833004,241.79918 h -0.665707 q -0.424675,0 -0.659967,-0.23529 -0.229554,-0.2353 -0.229554,-0.65423 v -1.91104 q 0,-0.42467 0.229554,-0.65423 0.235292,-0.23529 0.659967,-0.23529 h 0.665707 q 0.418936,0 0.654229,0.23529 0.235293,0.22956 0.235293,0.65423 v 0.27547 q 0,0.10329 -0.1033,0.10329 h -0.361547 q -0.09756,0 -0.09756,-0.10329 v -0.25251 q 0,-0.42468 -0.413197,-0.42468 h -0.49928 q -0.413197,0 -0.413197,0.42468 v 1.86512 q 0,0.42468 0.413197,0.42468 h 0.49928 q 0.413197,0 0.413197,-0.42468 v -0.25251 q 0,-0.1033 0.09756,-0.1033 h 0.361547 q 0.1033,0 0.1033,0.1033 v 0.27547 q 0,0.41893 -0.235293,0.65423 -0.235293,0.23529 -0.654229,0.23529 z m 2.880908,0 h -0.505019 q -0.424675,0 -0.659968,-0.23529 -0.229554,-0.2353 -0.229554,-0.65423 v -1.14777 q 0,-0.42468 0.229554,-0.65423 0.235293,-0.23529 0.659968,-0.23529 h 0.505019 q 0.418936,0 0.654229,0.23529 0.241031,0.22955 0.241031,0.65423 v 1.14777 q 0,0.41893 -0.241031,0.65423 -0.235293,0.23529 -0.654229,0.23529 z m -0.424675,-0.4878 h 0.35007 q 0.413197,0 0.413197,-0.41894 v -1.11334 q 0,-0.41893 -0.413197,-0.41893 h -0.35007 q -0.218076,0 -0.315637,0.1033 -0.09756,0.0976 -0.09756,0.31563 v 1.11334 q 0,0.21808 0.09756,0.32138 0.09756,0.0976 0.315637,0.0976 z m 2.43901,0.4878 h -0.361548 q -0.09756,0 -0.09756,-0.0976 v -2.73169 q 0,-0.0976 0.09756,-0.0976 h 0.361548 q 0.09756,0 0.09756,0.0976 v 0.21807 h 0.02296 q 0.05739,-0.14347 0.218077,-0.22955 0.166426,-0.0861 0.367286,-0.0861 h 0.212338 q 0.09756,0 0.09756,0.0976 v 0.29842 q 0,0.10903 -0.09756,0.0918 h -0.344331 q -0.476325,0 -0.476325,0.52223 v 1.81922 q 0,0.0976 -0.09756,0.0976 z m 3.535126,0 h -1.239591 q -0.424675,0 -0.659968,-0.23529 -0.229554,-0.2353 -0.229554,-0.65423 v -1.14777 q 0,-0.42468 0.229554,-0.65423 0.235293,-0.23529 0.659968,-0.23529 h 0.470585 q 0.424675,0 0.659968,0.23529 0.235293,0.22955 0.235293,0.65423 v 0.72883 q 0,0.1033 -0.103299,0.1033 h -1.538012 q -0.06313,0 -0.06313,0.0574 v 0.24677 q 0,0.41894 0.418936,0.41894 h 1.159248 q 0.103299,0 0.103299,0.10329 v 0.28695 q 0,0.0918 -0.103299,0.0918 z m -1.515056,-1.5954 h 1.027254 q 0.05739,0 0.05739,-0.0574 v -0.36729 q 0,-0.21807 -0.09756,-0.31563 -0.09756,-0.1033 -0.315637,-0.1033 h -0.315637 q -0.218076,0 -0.315636,0.1033 -0.09756,0.0976 -0.09756,0.31563 v 0.36729 q 0,0.0574 0.05739,0.0574 z m 4.545174,-0.4878 h 0.315637 q 0.424675,0 0.424675,-0.41894 v -0.29842 q 0,-0.4132 -0.424675,-0.4132 h -0.338592 q -0.212338,0 -0.315637,0.0976 -0.09756,0.0976 -0.09756,0.31564 v 0.16643 q 0,0.0976 -0.09756,0.0976 h -0.367286 q -0.09756,0 -0.09756,-0.0976 v -0.17791 q 0,-0.41893 0.235293,-0.64849 0.235293,-0.22955 0.659968,-0.22955 h 0.49928 q 0.424675,0 0.659968,0.22955 0.235292,0.22956 0.235292,0.64849 v 0.31564 q 0,0.50502 -0.459108,0.64275 0.459108,0.10904 0.459108,0.64275 v 0.33286 q 0,0.41893 -0.235292,0.64849 -0.235293,0.22955 -0.659968,0.22955 h -0.49928 q -0.424675,0 -0.659968,-0.22955 -0.235293,-0.22956 -0.235293,-0.64849 v -0.20086 q 0,-0.1033 0.09756,-0.1033 h 0.367286 q 0.09756,0 0.09756,0.1033 v 0.18938 q 0,0.21233 0.09756,0.31563 0.103299,0.0976 0.315637,0.0976 h 0.338592 q 0.424675,0 0.424675,-0.41319 v -0.31564 q 0,-0.41894 -0.424675,-0.41894 h -0.315637 q -0.09756,0 -0.09756,-0.0976 v -0.25824 q 0,-0.1033 0.09756,-0.1033 z"
       id="text1-8-6-5"
       aria-label="Core 3" />
    <g
       id="text1-8-7-7-3"
       style="font-size:3.90381px;font-family:Rajdhani;-inkscape-font-specification:Rajdhani;text-align:center;text-anchor:middle;fill:#ffffff;stroke-width:0.325317"
       aria-label="Scatchpad&#10;4kB, 1 Cycle"
       transform="translate(47.920859)">
      <path
         style="font-weight:600;-inkscape-font-specification:'Rajdhani Semi-Bold'"
         d="m 55.52367,238.68449 v -0.1015 q 0,-0.0664 0.06636,-0.0664 h 0.249844 q 0.06636,0 0.06636,0.0664 v 0.0703 q 0,0.16396 0.07027,0.23814 0.07417,0.0703 0.242037,0.0703 h 0.269362 q 0.167864,0 0.242037,-0.0742 0.07417,-0.0781 0.07417,-0.24984 v -0.0898 q 0,-0.12492 -0.09759,-0.19519 -0.09369,-0.0742 -0.234229,-0.0937 -0.140537,-0.0234 -0.308401,-0.0625 -0.167864,-0.039 -0.308401,-0.0898 -0.140537,-0.0507 -0.238132,-0.19129 -0.09369,-0.14053 -0.09369,-0.35915 v -0.16396 q 0,-0.28498 0.160057,-0.44503 0.16396,-0.16396 0.448938,-0.16396 h 0.413804 q 0.288882,0 0.448938,0.16396 0.16396,0.16005 0.16396,0.44503 v 0.0859 q 0,0.0664 -0.06637,0.0664 H 56.84315 q -0.06637,0 -0.06637,-0.0664 v -0.0507 q 0,-0.16787 -0.07417,-0.23814 -0.07027,-0.0742 -0.238132,-0.0742 h -0.24594 q -0.167864,0 -0.242037,0.0781 -0.07027,0.0742 -0.07027,0.25765 v 0.12102 q 0,0.17567 0.253747,0.23813 0.113211,0.0273 0.24594,0.0469 0.136634,0.0195 0.273267,0.0585 0.136634,0.039 0.249844,0.10541 0.113211,0.0625 0.183479,0.19519 0.07027,0.12882 0.07027,0.3162 v 0.15225 q 0,0.28498 -0.16396,0.44894 -0.160057,0.16006 -0.445035,0.16006 h -0.437226 q -0.284979,0 -0.448939,-0.16006 -0.16396,-0.16396 -0.16396,-0.44894 z m 3.357278,0.34354 v 0.203 q 0,0.0625 -0.07027,0.0625 h -0.57386 q -0.288882,0 -0.448939,-0.16006 -0.156152,-0.16005 -0.156152,-0.44503 v -0.78077 q 0,-0.28888 0.156152,-0.44503 0.160057,-0.16006 0.448939,-0.16006 h 0.57386 q 0.07027,0 0.07027,0.0664 v 0.203 q 0,0.0625 -0.07027,0.0625 h -0.519207 q -0.281074,0 -0.281074,0.28888 v 0.74953 q 0,0.28888 0.281074,0.28888 h 0.519207 q 0.07027,0 0.07027,0.0664 z m 1.089166,0.26546 h -0.152249 q -0.288881,0 -0.448938,-0.16006 -0.156152,-0.16005 -0.156152,-0.44503 v -0.78077 q 0,-0.28888 0.156152,-0.44503 0.160057,-0.16006 0.448938,-0.16006 h 0.874454 q 0.07027,0 0.07027,0.0664 v 1.85821 q 0,0.0664 -0.07027,0.0664 h -0.24594 q -0.06636,0 -0.06636,-0.0664 v -0.14053 h -0.01562 q -0.09369,0.2069 -0.394285,0.2069 z m 0.4099,-0.66365 v -0.95643 q 0,-0.039 -0.04294,-0.039 h -0.464553 q -0.281074,0 -0.281074,0.28888 v 0.74953 q 0,0.28888 0.281074,0.28888 h 0.187383 q 0.320112,0 0.320112,-0.33182 z m 0.929104,-0.99547 h -0.187383 q -0.03904,0 -0.05465,-0.0117 -0.01171,-0.0156 -0.01171,-0.0507 v -0.203 q 0,-0.0664 0.06636,-0.0664 h 0.187383 q 0.03904,0 0.03904,-0.039 v -0.35135 q 0,-0.0664 0.07027,-0.0664 h 0.24594 q 0.06636,0 0.06636,0.0664 v 0.35135 q 0,0.039 0.04294,0.039 h 0.363054 q 0.07027,0 0.07027,0.0664 v 0.203 q 0,0.0625 -0.07027,0.0625 h -0.363054 q -0.04294,0 -0.04294,0.039 v 1.00328 q 0,0.28497 0.292786,0.28497 h 0.152248 q 0.07027,0 0.07027,0.0664 v 0.203 q 0,0.0625 -0.07027,0.0625 h -0.210805 q -0.288882,0 -0.452842,-0.15615 -0.16396,-0.15616 -0.16396,-0.44114 v -1.02279 q 0,-0.039 -0.03904,-0.039 z m 2.52186,1.39366 v 0.203 q 0,0.0625 -0.07027,0.0625 h -0.57386 q -0.288882,0 -0.448938,-0.16006 -0.156152,-0.16005 -0.156152,-0.44503 v -0.78077 q 0,-0.28888 0.156152,-0.44503 0.160056,-0.16006 0.448938,-0.16006 h 0.57386 q 0.07027,0 0.07027,0.0664 v 0.203 q 0,0.0625 -0.07027,0.0625 h -0.519206 q -0.281075,0 -0.281075,0.28888 v 0.74953 q 0,0.28888 0.281075,0.28888 h 0.519206 q 0.07027,0 0.07027,0.0664 z m 0.683169,0.26546 h -0.24594 q -0.06637,0 -0.06637,-0.0664 v -2.61165 q 0,-0.0664 0.06637,-0.0664 h 0.24594 q 0.06637,0 0.06637,0.0664 v 0.89398 h 0.01561 q 0.09369,-0.20691 0.394285,-0.20691 h 0.171768 q 0.284978,0 0.437226,0.15616 0.152249,0.15615 0.152249,0.44893 v 1.31949 q 0,0.0664 -0.07027,0.0664 h -0.24594 q -0.06636,0 -0.06636,-0.0664 v -1.30387 q 0,-0.28888 -0.284979,-0.28888 h -0.183479 q -0.320112,0 -0.320112,0.33182 v 1.26093 q 0,0.0664 -0.06637,0.0664 z m 2.018271,0.55043 h -0.24594 q -0.06637,0 -0.06637,-0.0664 v -2.40865 q 0,-0.0664 0.06637,-0.0664 h 0.24594 q 0.06636,0 0.06636,0.0664 v 0.14054 h 0.01562 q 0.09369,-0.20691 0.394285,-0.20691 h 0.199094 q 0.281074,0 0.429419,0.15616 0.152249,0.15615 0.152249,0.44893 v 0.78077 q 0,0.28888 -0.152249,0.44894 -0.148345,0.15615 -0.429419,0.15615 h -0.199094 q -0.300594,0 -0.394285,-0.2069 h -0.01562 v 0.69097 q 0,0.0664 -0.06636,0.0664 z m 0.386477,-0.88226 h 0.206902 q 0.281074,0 0.281074,-0.28888 v -0.74953 q 0,-0.28888 -0.281074,-0.28888 h -0.206902 q -0.320113,0 -0.320113,0.33182 v 0.66365 q 0,0.33182 0.320113,0.33182 z m 2.041692,0.33183 h -0.152249 q -0.288882,0 -0.448938,-0.16006 -0.156152,-0.16005 -0.156152,-0.44503 v -0.78077 q 0,-0.28888 0.156152,-0.44503 0.160056,-0.16006 0.448938,-0.16006 h 0.874454 q 0.07027,0 0.07027,0.0664 v 1.85821 q 0,0.0664 -0.07027,0.0664 h -0.24594 q -0.06637,0 -0.06637,-0.0664 v -0.14053 h -0.01561 q -0.09369,0.2069 -0.394285,0.2069 z m 0.4099,-0.66365 v -0.95643 q 0,-0.039 -0.04294,-0.039 h -0.464553 q -0.281075,0 -0.281075,0.28888 v 0.74953 q 0,0.28888 0.281075,0.28888 h 0.187383 q 0.320112,0 0.320112,-0.33182 z m 1.61227,0.66365 h -0.199095 q -0.281074,0 -0.433323,-0.15615 -0.148344,-0.16006 -0.148344,-0.44894 v -0.78077 q 0,-0.29278 0.148344,-0.44893 0.152249,-0.15616 0.433323,-0.15616 h 0.199095 q 0.300593,0 0.390381,0.20691 h 0.01561 v -0.89398 q 0,-0.0664 0.06637,-0.0664 h 0.249843 q 0.06637,0 0.06637,0.0664 v 2.61165 q 0,0.0664 -0.06637,0.0664 h -0.249843 q -0.06637,0 -0.06637,-0.0664 v -0.14053 h -0.01561 q -0.08979,0.2069 -0.390381,0.2069 z m 0.405996,-0.66365 v -0.66365 q 0,-0.33182 -0.320113,-0.33182 h -0.206901 q -0.281075,0 -0.281075,0.28888 v 0.74953 q 0,0.28888 0.281075,0.28888 h 0.206901 q 0.320113,0 0.320113,-0.33182 z"
         id="path18" />
      <path
         style="font-weight:600;-inkscape-font-specification:'Rajdhani Semi-Bold'"
         d="m 55.806688,243.36126 v -1.38195 l -0.76905,1.38195 z m 0.29669,0.81199 h -0.230325 q -0.06636,0 -0.06636,-0.0664 v -0.4099 h -1.030606 q -0.11321,0 -0.11321,-0.11322 v -0.12101 q 0,-0.0859 0.03513,-0.15225 l 0.87055,-1.54981 q 0.03123,-0.0586 0.05856,-0.0781 0.02733,-0.0195 0.08198,-0.0195 h 0.343535 q 0.113211,0 0.113211,0.11321 v 1.58495 h 0.284978 q 0.06636,0 0.06636,0.0664 v 0.19519 q 0,0.0742 -0.06636,0.0742 h -0.284978 v 0.4099 q 0,0.0664 -0.06246,0.0664 z m 1.869929,-1.99094 h 0.281074 q 0.03513,0 0.04685,0.0234 0.01562,0.0195 -0.0078,0.0547 l -0.550437,0.87446 v 0.0156 l 0.593379,0.94472 q 0.01952,0.0312 0.0039,0.0547 -0.01171,0.0234 -0.05465,0.0234 h -0.253747 q -0.08979,0 -0.13273,-0.0664 l -0.550437,-0.90178 q -0.02733,-0.0507 0,-0.10541 l 0.511399,-0.85493 q 0.03513,-0.0625 0.113211,-0.0625 z m -0.8198,1.99094 h -0.245941 q -0.06636,0 -0.06636,-0.0664 v -2.61165 q 0,-0.0664 0.06636,-0.0664 h 0.245941 q 0.06636,0 0.06636,0.0664 v 2.61165 q 0,0.0664 -0.06636,0.0664 z m 1.928479,-0.32402 h 0.546534 q 0.292785,0 0.292785,-0.28107 v -0.24204 q 0,-0.28107 -0.308401,-0.28107 h -0.530918 q -0.04294,0 -0.04294,0.039 v 0.72611 q 0,0.039 0.04294,0.039 z m 0,-1.11649 h 0.507496 q 0.296689,0 0.296689,-0.28497 v -0.17958 q 0,-0.28107 -0.288882,-0.28107 h -0.515303 q -0.04294,0 -0.04294,0.039 v 0.66756 q 0,0.039 0.04294,0.039 z m -0.421611,1.37415 v -2.37742 q 0,-0.0664 0.06636,-0.0664 h 0.925203 q 0.288882,0 0.448939,0.15615 0.160056,0.15616 0.160056,0.44113 v 0.19129 q 0,0.33963 -0.320113,0.43723 0.152249,0.0195 0.249844,0.13273 0.101499,0.11321 0.101499,0.30449 v 0.24985 q 0,0.28498 -0.160056,0.44113 -0.160056,0.15615 -0.445034,0.15615 h -0.960338 q -0.06636,0 -0.06636,-0.0664 z m 2.455497,-0.47627 v 0.3045 q 0,0.0937 -0.07417,0.23423 l -0.206902,0.37867 q -0.01562,0.0351 -0.05856,0.0351 -0.05465,0 -0.05465,-0.0625 v -0.89007 q 0,-0.0625 0.06636,-0.0625 h 0.26546 q 0.06246,0 0.06246,0.0625 z m 1.229701,-1.35462 v -0.23033 q 0,-0.0625 0.05465,-0.0937 l 0.405996,-0.24594 q 0.07417,-0.0429 0.124922,-0.0429 h 0.234229 q 0.06636,0 0.06636,0.0664 v 2.37742 q 0,0.0664 -0.06246,0.0664 h -0.253748 q -0.06636,0 -0.06636,-0.0664 v -2.03779 l -0.425515,0.24594 q -0.07808,0.0351 -0.07808,-0.039 z m 3.400221,1.89725 h -0.452842 q -0.288882,0 -0.448938,-0.16006 -0.156153,-0.16005 -0.156153,-0.44503 v -1.29997 q 0,-0.28888 0.156153,-0.44503 0.160056,-0.16006 0.448938,-0.16006 h 0.452842 q 0.284978,0 0.445034,0.16006 0.160056,0.15615 0.160056,0.44503 v 0.18738 q 0,0.0703 -0.07027,0.0703 h -0.24594 q -0.06637,0 -0.06637,-0.0703 v -0.17176 q 0,-0.28889 -0.281075,-0.28889 h -0.339631 q -0.281074,0 -0.281074,0.28889 v 1.26873 q 0,0.28889 0.281074,0.28889 h 0.339631 q 0.281075,0 0.281075,-0.28889 v -0.17176 q 0,-0.0703 0.06637,-0.0703 h 0.24594 q 0.07027,0 0.07027,0.0703 v 0.18738 q 0,0.28498 -0.160056,0.44503 -0.160056,0.16006 -0.445034,0.16006 z m 1.284357,0.63242 h -0.206902 q -0.06637,0 -0.06637,-0.0664 v -0.19909 q 0,-0.0703 0.06637,-0.0703 h 0.08979 q 0.238133,0 0.32792,-0.0937 0.09369,-0.0937 0.156153,-0.3084 h -0.156153 q -0.05856,0 -0.08198,-0.0664 l -0.519206,-1.75281 q -0.01562,-0.0664 0.05075,-0.0664 h 0.261555 q 0.06246,0 0.07808,0.0664 l 0.425515,1.5303 h 0.01562 l 0.425515,-1.5303 q 0.01171,-0.0664 0.07808,-0.0664 h 0.249843 q 0.07417,0 0.06246,0.0703 l -0.534822,1.87773 q -0.08979,0.32792 -0.253747,0.49969 -0.16396,0.17567 -0.468457,0.17567 z m 2.799035,-0.89788 v 0.203 q 0,0.0625 -0.07027,0.0625 h -0.57386 q -0.288882,0 -0.448938,-0.16006 -0.156152,-0.16005 -0.156152,-0.44503 v -0.78076 q 0,-0.28888 0.156152,-0.44504 0.160056,-0.16005 0.448938,-0.16005 h 0.57386 q 0.07027,0 0.07027,0.0664 v 0.203 q 0,0.0625 -0.07027,0.0625 H 69.23971 q -0.281075,0 -0.281075,0.28888 v 0.74953 q 0,0.28889 0.281075,0.28889 h 0.519206 q 0.07027,0 0.07027,0.0664 z m 0.702689,0.26546 h -0.24594 q -0.06636,0 -0.06636,-0.0664 v -2.61165 q 0,-0.0664 0.06636,-0.0664 h 0.24594 q 0.06637,0 0.06637,0.0664 v 2.61165 q 0,0.0664 -0.06637,0.0664 z m 1.987038,0 H 71.67569 q -0.288882,0 -0.448938,-0.16006 -0.156152,-0.16005 -0.156152,-0.44503 v -0.78076 q 0,-0.28888 0.156152,-0.44504 0.160056,-0.16005 0.448938,-0.16005 h 0.320113 q 0.288882,0 0.448938,0.16005 0.160056,0.15616 0.160056,0.44504 v 0.49578 q 0,0.0703 -0.07027,0.0703 h -1.046222 q -0.04294,0 -0.04294,0.039 v 0.16786 q 0,0.28498 0.284978,0.28498 h 0.788569 q 0.07027,0 0.07027,0.0703 v 0.19519 q 0,0.0625 -0.07027,0.0625 z m -1.030606,-1.08526 h 0.698782 q 0.03904,0 0.03904,-0.039 v -0.24984 q 0,-0.14835 -0.06637,-0.21471 -0.06637,-0.0703 -0.21471,-0.0703 H 71.73034 q -0.148345,0 -0.21471,0.0703 -0.06637,0.0664 -0.06637,0.21471 v 0.24984 q 0,0.039 0.03904,0.039 z"
         id="path19" />
    </g>
    <rect
       style="fill:#f18828;fill-opacity:1;stroke-width:0.229576"
       id="rect1-1-2-7"
       width="20.385908"
       height="20.385908"
       x="128.16275"
       y="230.16824"
       ry="0.49072382" />
    <rect
       style="fill:#009fe3;fill-opacity:1;stroke-width:0.229576"
       id="rect1-6-3-9-4"
       width="20.385908"
       height="20.385908"
       x="150.15392"
       y="230.16824"
       ry="0.49072382" />
    <path
       style="font-weight:600;font-size:5.73885px;font-family:Rajdhani;-inkscape-font-specification:'Rajdhani Semi-Bold';fill:#ffffff;stroke-width:0.478236"
       d="m 133.59296,241.93633 h -0.66571 q -0.42467,0 -0.65996,-0.2353 -0.22956,-0.23529 -0.22956,-0.65423 v -1.91103 q 0,-0.42468 0.22956,-0.65423 0.23529,-0.2353 0.65996,-0.2353 h 0.66571 q 0.41894,0 0.65423,0.2353 0.23529,0.22955 0.23529,0.65423 v 0.27546 q 0,0.1033 -0.1033,0.1033 h -0.36155 q -0.0976,0 -0.0976,-0.1033 v -0.25251 q 0,-0.42467 -0.41319,-0.42467 h -0.49928 q -0.4132,0 -0.4132,0.42467 v 1.86513 q 0,0.42467 0.4132,0.42467 h 0.49928 q 0.41319,0 0.41319,-0.42467 v -0.25251 q 0,-0.1033 0.0976,-0.1033 h 0.36155 q 0.1033,0 0.1033,0.1033 v 0.27546 q 0,0.41894 -0.23529,0.65423 -0.23529,0.2353 -0.65423,0.2353 z m 2.88091,0 h -0.50502 q -0.42468,0 -0.65997,-0.2353 -0.22955,-0.23529 -0.22955,-0.65423 v -1.14777 q 0,-0.42467 0.22955,-0.65423 0.23529,-0.23529 0.65997,-0.23529 h 0.50502 q 0.41893,0 0.65423,0.23529 0.24103,0.22956 0.24103,0.65423 v 1.14777 q 0,0.41894 -0.24103,0.65423 -0.2353,0.2353 -0.65423,0.2353 z m -0.42468,-0.48781 h 0.35007 q 0.4132,0 0.4132,-0.41893 v -1.11334 q 0,-0.41894 -0.4132,-0.41894 h -0.35007 q -0.21807,0 -0.31563,0.1033 -0.0976,0.0976 -0.0976,0.31564 v 1.11334 q 0,0.21807 0.0976,0.32137 0.0976,0.0976 0.31563,0.0976 z m 2.43901,0.48781 h -0.36155 q -0.0976,0 -0.0976,-0.0976 v -2.73169 q 0,-0.0976 0.0976,-0.0976 h 0.36155 q 0.0976,0 0.0976,0.0976 v 0.21808 h 0.023 q 0.0574,-0.14347 0.21808,-0.22956 0.16643,-0.0861 0.36728,-0.0861 h 0.21234 q 0.0976,0 0.0976,0.0976 v 0.29842 q 0,0.10904 -0.0976,0.0918 h -0.34433 q -0.47632,0 -0.47632,0.52224 v 1.81921 q 0,0.0976 -0.0976,0.0976 z m 3.53513,0 h -1.23959 q -0.42468,0 -0.65997,-0.2353 -0.22955,-0.23529 -0.22955,-0.65423 v -1.14777 q 0,-0.42467 0.22955,-0.65423 0.23529,-0.23529 0.65997,-0.23529 h 0.47058 q 0.42468,0 0.65997,0.23529 0.23529,0.22956 0.23529,0.65423 v 0.72884 q 0,0.1033 -0.1033,0.1033 h -1.53801 q -0.0631,0 -0.0631,0.0574 v 0.24677 q 0,0.41893 0.41894,0.41893 h 1.15925 q 0.1033,0 0.1033,0.1033 v 0.28694 q 0,0.0918 -0.1033,0.0918 z m -1.51506,-1.59541 h 1.02726 q 0.0574,0 0.0574,-0.0574 v -0.36729 q 0,-0.21808 -0.0976,-0.31564 -0.0976,-0.1033 -0.31564,-0.1033 h -0.31564 q -0.21807,0 -0.31563,0.1033 -0.0976,0.0976 -0.0976,0.31564 v 0.36729 q 0,0.0574 0.0574,0.0574 z m 5.17645,0.40172 v -2.03155 l -1.13055,2.03155 z m 0.43615,1.19369 h -0.33859 q -0.0976,0 -0.0976,-0.0976 v -0.60257 h -1.51506 q -0.16642,0 -0.16642,-0.16643 v -0.17791 q 0,-0.12625 0.0516,-0.22381 l 1.27976,-2.27832 q 0.0459,-0.0861 0.0861,-0.11478 0.0402,-0.0287 0.12052,-0.0287 h 0.50502 q 0.16642,0 0.16642,0.16643 v 2.32997 h 0.41894 q 0.0976,0 0.0976,0.0976 v 0.28695 q 0,0.10904 -0.0976,0.10904 h -0.41894 v 0.60257 q 0,0.0976 -0.0918,0.0976 z"
       id="text1-8-8-1-3"
       aria-label="Core 4" />
    <g
       id="text1-8-7-3-5-0"
       style="font-size:3.90381px;font-family:Rajdhani;-inkscape-font-specification:Rajdhani;text-align:center;text-anchor:middle;fill:#ffffff;stroke-width:0.325317"
       aria-label="Scatchpad&#10;4kB, 1 Cycle"
       transform="translate(47.920859)">
      <path
         style="font-weight:600;-inkscape-font-specification:'Rajdhani Semi-Bold'"
         d="m 104.28362,238.68449 v -0.1015 q 0,-0.0664 0.0664,-0.0664 h 0.24984 q 0.0664,0 0.0664,0.0664 v 0.0703 q 0,0.16396 0.0703,0.23814 0.0742,0.0703 0.24203,0.0703 h 0.26937 q 0.16786,0 0.24203,-0.0742 0.0742,-0.0781 0.0742,-0.24984 v -0.0898 q 0,-0.12492 -0.0976,-0.19519 -0.0937,-0.0742 -0.23423,-0.0937 -0.14054,-0.0234 -0.3084,-0.0625 -0.16786,-0.039 -0.3084,-0.0898 -0.14054,-0.0507 -0.23813,-0.19129 -0.0937,-0.14053 -0.0937,-0.35915 v -0.16396 q 0,-0.28498 0.16005,-0.44503 0.16396,-0.16396 0.44894,-0.16396 h 0.4138 q 0.28889,0 0.44894,0.16396 0.16396,0.16005 0.16396,0.44503 v 0.0859 q 0,0.0664 -0.0664,0.0664 h -0.24985 q -0.0664,0 -0.0664,-0.0664 v -0.0507 q 0,-0.16787 -0.0742,-0.23814 -0.0703,-0.0742 -0.23814,-0.0742 h -0.24594 q -0.16786,0 -0.24203,0.0781 -0.0703,0.0742 -0.0703,0.25765 v 0.12102 q 0,0.17567 0.25375,0.23813 0.11321,0.0273 0.24594,0.0469 0.13663,0.0195 0.27326,0.0585 0.13664,0.039 0.24985,0.10541 0.11321,0.0625 0.18348,0.19519 0.0703,0.12882 0.0703,0.3162 v 0.15225 q 0,0.28498 -0.16396,0.44894 -0.16005,0.16006 -0.44503,0.16006 h -0.43723 q -0.28497,0 -0.44893,-0.16006 -0.16396,-0.16396 -0.16396,-0.44894 z m 3.35727,0.34354 v 0.203 q 0,0.0625 -0.0703,0.0625 h -0.57386 q -0.28888,0 -0.44893,-0.16006 -0.15616,-0.16005 -0.15616,-0.44503 v -0.78077 q 0,-0.28888 0.15616,-0.44503 0.16005,-0.16006 0.44893,-0.16006 h 0.57386 q 0.0703,0 0.0703,0.0664 v 0.203 q 0,0.0625 -0.0703,0.0625 h -0.5192 q -0.28108,0 -0.28108,0.28888 v 0.74953 q 0,0.28888 0.28108,0.28888 h 0.5192 q 0.0703,0 0.0703,0.0664 z m 1.08917,0.26546 h -0.15225 q -0.28888,0 -0.44894,-0.16006 -0.15615,-0.16005 -0.15615,-0.44503 v -0.78077 q 0,-0.28888 0.15615,-0.44503 0.16006,-0.16006 0.44894,-0.16006 h 0.87445 q 0.0703,0 0.0703,0.0664 v 1.85821 q 0,0.0664 -0.0703,0.0664 h -0.24594 q -0.0664,0 -0.0664,-0.0664 v -0.14053 h -0.0156 q -0.0937,0.2069 -0.39428,0.2069 z m 0.4099,-0.66365 v -0.95643 q 0,-0.039 -0.0429,-0.039 h -0.46456 q -0.28107,0 -0.28107,0.28888 v 0.74953 q 0,0.28888 0.28107,0.28888 h 0.18739 q 0.32011,0 0.32011,-0.33182 z m 0.9291,-0.99547 h -0.18738 q -0.039,0 -0.0547,-0.0117 -0.0117,-0.0156 -0.0117,-0.0507 v -0.203 q 0,-0.0664 0.0664,-0.0664 h 0.18738 q 0.039,0 0.039,-0.039 v -0.35135 q 0,-0.0664 0.0703,-0.0664 h 0.24594 q 0.0664,0 0.0664,0.0664 v 0.35135 q 0,0.039 0.043,0.039 h 0.36305 q 0.0703,0 0.0703,0.0664 v 0.203 q 0,0.0625 -0.0703,0.0625 h -0.36305 q -0.043,0 -0.043,0.039 v 1.00328 q 0,0.28497 0.29279,0.28497 h 0.15225 q 0.0703,0 0.0703,0.0664 v 0.203 q 0,0.0625 -0.0703,0.0625 h -0.21081 q -0.28888,0 -0.45284,-0.15615 -0.16396,-0.15616 -0.16396,-0.44114 v -1.02279 q 0,-0.039 -0.039,-0.039 z m 2.52186,1.39366 v 0.203 q 0,0.0625 -0.0703,0.0625 h -0.57386 q -0.28888,0 -0.44893,-0.16006 -0.15616,-0.16005 -0.15616,-0.44503 v -0.78077 q 0,-0.28888 0.15616,-0.44503 0.16005,-0.16006 0.44893,-0.16006 h 0.57386 q 0.0703,0 0.0703,0.0664 v 0.203 q 0,0.0625 -0.0703,0.0625 h -0.5192 q -0.28108,0 -0.28108,0.28888 v 0.74953 q 0,0.28888 0.28108,0.28888 h 0.5192 q 0.0703,0 0.0703,0.0664 z m 0.68317,0.26546 h -0.24594 q -0.0664,0 -0.0664,-0.0664 v -2.61165 q 0,-0.0664 0.0664,-0.0664 h 0.24594 q 0.0664,0 0.0664,0.0664 v 0.89398 h 0.0156 q 0.0937,-0.20691 0.39429,-0.20691 h 0.17176 q 0.28498,0 0.43723,0.15616 0.15225,0.15615 0.15225,0.44893 v 1.31949 q 0,0.0664 -0.0703,0.0664 h -0.24594 q -0.0664,0 -0.0664,-0.0664 v -1.30387 q 0,-0.28888 -0.28498,-0.28888 h -0.18348 q -0.32011,0 -0.32011,0.33182 v 1.26093 q 0,0.0664 -0.0664,0.0664 z m 2.01827,0.55043 h -0.24594 q -0.0664,0 -0.0664,-0.0664 v -2.40865 q 0,-0.0664 0.0664,-0.0664 h 0.24594 q 0.0664,0 0.0664,0.0664 v 0.14054 h 0.0156 q 0.0937,-0.20691 0.39429,-0.20691 h 0.19909 q 0.28108,0 0.42942,0.15616 0.15225,0.15615 0.15225,0.44893 v 0.78077 q 0,0.28888 -0.15225,0.44894 -0.14834,0.15615 -0.42942,0.15615 h -0.19909 q -0.3006,0 -0.39429,-0.2069 h -0.0156 v 0.69097 q 0,0.0664 -0.0664,0.0664 z m 0.38648,-0.88226 h 0.2069 q 0.28108,0 0.28108,-0.28888 v -0.74953 q 0,-0.28888 -0.28108,-0.28888 h -0.2069 q -0.32011,0 -0.32011,0.33182 v 0.66365 q 0,0.33182 0.32011,0.33182 z m 2.04169,0.33183 h -0.15225 q -0.28888,0 -0.44893,-0.16006 -0.15616,-0.16005 -0.15616,-0.44503 v -0.78077 q 0,-0.28888 0.15616,-0.44503 0.16005,-0.16006 0.44893,-0.16006 h 0.87446 q 0.0703,0 0.0703,0.0664 v 1.85821 q 0,0.0664 -0.0703,0.0664 h -0.24594 q -0.0664,0 -0.0664,-0.0664 v -0.14053 h -0.0156 q -0.0937,0.2069 -0.39429,0.2069 z m 0.4099,-0.66365 v -0.95643 q 0,-0.039 -0.0429,-0.039 h -0.46455 q -0.28108,0 -0.28108,0.28888 v 0.74953 q 0,0.28888 0.28108,0.28888 h 0.18738 q 0.32011,0 0.32011,-0.33182 z m 1.61227,0.66365 h -0.19909 q -0.28108,0 -0.43333,-0.15615 -0.14834,-0.16006 -0.14834,-0.44894 v -0.78077 q 0,-0.29278 0.14834,-0.44893 0.15225,-0.15616 0.43333,-0.15616 h 0.19909 q 0.30059,0 0.39038,0.20691 h 0.0156 v -0.89398 q 0,-0.0664 0.0664,-0.0664 h 0.24985 q 0.0664,0 0.0664,0.0664 v 2.61165 q 0,0.0664 -0.0664,0.0664 h -0.24985 q -0.0664,0 -0.0664,-0.0664 v -0.14053 h -0.0156 q -0.0898,0.2069 -0.39038,0.2069 z m 0.406,-0.66365 v -0.66365 q 0,-0.33182 -0.32011,-0.33182 h -0.20691 q -0.28107,0 -0.28107,0.28888 v 0.74953 q 0,0.28888 0.28107,0.28888 h 0.20691 q 0.32011,0 0.32011,-0.33182 z"
         id="path16" />
      <path
         style="font-weight:600;-inkscape-font-specification:'Rajdhani Semi-Bold'"
         d="m 104.56663,243.36126 v -1.38195 l -0.76905,1.38195 z m 0.29669,0.81199 H 104.633 q -0.0664,0 -0.0664,-0.0664 v -0.4099 h -1.0306 q -0.11321,0 -0.11321,-0.11322 v -0.12101 q 0,-0.0859 0.0351,-0.15225 l 0.87055,-1.54981 q 0.0312,-0.0586 0.0586,-0.0781 0.0273,-0.0195 0.082,-0.0195 h 0.34353 q 0.11321,0 0.11321,0.11321 v 1.58495 h 0.28498 q 0.0664,0 0.0664,0.0664 v 0.19519 q 0,0.0742 -0.0664,0.0742 h -0.28498 v 0.4099 q 0,0.0664 -0.0625,0.0664 z m 1.86993,-1.99094 h 0.28108 q 0.0351,0 0.0468,0.0234 0.0156,0.0195 -0.008,0.0547 l -0.55043,0.87446 v 0.0156 l 0.59338,0.94472 q 0.0195,0.0312 0.004,0.0547 -0.0117,0.0234 -0.0547,0.0234 h -0.25375 q -0.0898,0 -0.13273,-0.0664 l -0.55044,-0.90178 q -0.0273,-0.0507 0,-0.10541 l 0.5114,-0.85493 q 0.0351,-0.0625 0.11321,-0.0625 z m -0.8198,1.99094 h -0.24594 q -0.0664,0 -0.0664,-0.0664 v -2.61165 q 0,-0.0664 0.0664,-0.0664 h 0.24594 q 0.0664,0 0.0664,0.0664 v 2.61165 q 0,0.0664 -0.0664,0.0664 z m 1.92848,-0.32402 h 0.54653 q 0.29279,0 0.29279,-0.28107 v -0.24204 q 0,-0.28107 -0.3084,-0.28107 h -0.53092 q -0.0429,0 -0.0429,0.039 v 0.72611 q 0,0.039 0.0429,0.039 z m 0,-1.11649 h 0.5075 q 0.29669,0 0.29669,-0.28497 v -0.17958 q 0,-0.28107 -0.28889,-0.28107 h -0.5153 q -0.0429,0 -0.0429,0.039 v 0.66756 q 0,0.039 0.0429,0.039 z m -0.42161,1.37415 v -2.37742 q 0,-0.0664 0.0664,-0.0664 h 0.92521 q 0.28888,0 0.44894,0.15615 0.16005,0.15616 0.16005,0.44113 v 0.19129 q 0,0.33963 -0.32011,0.43723 0.15225,0.0195 0.24984,0.13273 0.1015,0.11321 0.1015,0.30449 v 0.24985 q 0,0.28498 -0.16005,0.44113 -0.16006,0.15615 -0.44504,0.15615 h -0.96034 q -0.0664,0 -0.0664,-0.0664 z m 2.4555,-0.47627 v 0.3045 q 0,0.0937 -0.0742,0.23423 l -0.2069,0.37867 q -0.0156,0.0351 -0.0586,0.0351 -0.0546,0 -0.0546,-0.0625 v -0.89007 q 0,-0.0625 0.0664,-0.0625 h 0.26546 q 0.0625,0 0.0625,0.0625 z m 1.2297,-1.35462 v -0.23033 q 0,-0.0625 0.0546,-0.0937 l 0.406,-0.24594 q 0.0742,-0.0429 0.12492,-0.0429 h 0.23423 q 0.0664,0 0.0664,0.0664 v 2.37742 q 0,0.0664 -0.0625,0.0664 h -0.25375 q -0.0664,0 -0.0664,-0.0664 v -2.03779 l -0.42552,0.24594 q -0.0781,0.0351 -0.0781,-0.039 z m 3.40022,1.89725 h -0.45284 q -0.28889,0 -0.44894,-0.16006 -0.15615,-0.16005 -0.15615,-0.44503 v -1.29997 q 0,-0.28888 0.15615,-0.44503 0.16005,-0.16006 0.44894,-0.16006 h 0.45284 q 0.28498,0 0.44503,0.16006 0.16006,0.15615 0.16006,0.44503 v 0.18738 q 0,0.0703 -0.0703,0.0703 h -0.24594 q -0.0664,0 -0.0664,-0.0703 v -0.17176 q 0,-0.28889 -0.28108,-0.28889 h -0.33963 q -0.28107,0 -0.28107,0.28889 v 1.26873 q 0,0.28889 0.28107,0.28889 h 0.33963 q 0.28108,0 0.28108,-0.28889 v -0.17176 q 0,-0.0703 0.0664,-0.0703 h 0.24594 q 0.0703,0 0.0703,0.0703 v 0.18738 q 0,0.28498 -0.16006,0.44503 -0.16005,0.16006 -0.44503,0.16006 z m 1.28436,0.63242 h -0.20691 q -0.0664,0 -0.0664,-0.0664 v -0.19909 q 0,-0.0703 0.0664,-0.0703 h 0.0898 q 0.23813,0 0.32792,-0.0937 0.0937,-0.0937 0.15615,-0.3084 h -0.15615 q -0.0586,0 -0.082,-0.0664 l -0.51921,-1.75281 q -0.0156,-0.0664 0.0508,-0.0664 h 0.26156 q 0.0625,0 0.0781,0.0664 l 0.42551,1.5303 h 0.0156 l 0.42551,-1.5303 q 0.0117,-0.0664 0.0781,-0.0664 h 0.24984 q 0.0742,0 0.0625,0.0703 l -0.53482,1.87773 q -0.0898,0.32792 -0.25375,0.49969 -0.16396,0.17567 -0.46845,0.17567 z m 2.79903,-0.89788 v 0.203 q 0,0.0625 -0.0703,0.0625 H 117.945 q -0.28888,0 -0.44894,-0.16006 -0.15615,-0.16005 -0.15615,-0.44503 v -0.78076 q 0,-0.28888 0.15615,-0.44504 0.16006,-0.16005 0.44894,-0.16005 h 0.57386 q 0.0703,0 0.0703,0.0664 v 0.203 q 0,0.0625 -0.0703,0.0625 h -0.5192 q -0.28108,0 -0.28108,0.28888 v 0.74953 q 0,0.28889 0.28108,0.28889 h 0.5192 q 0.0703,0 0.0703,0.0664 z m 0.70269,0.26546 h -0.24594 q -0.0664,0 -0.0664,-0.0664 v -2.61165 q 0,-0.0664 0.0664,-0.0664 h 0.24594 q 0.0664,0 0.0664,0.0664 v 2.61165 q 0,0.0664 -0.0664,0.0664 z m 1.98704,0 h -0.84322 q -0.28889,0 -0.44894,-0.16006 -0.15616,-0.16005 -0.15616,-0.44503 v -0.78076 q 0,-0.28888 0.15616,-0.44504 0.16005,-0.16005 0.44894,-0.16005 h 0.32011 q 0.28888,0 0.44894,0.16005 0.16005,0.15616 0.16005,0.44504 v 0.49578 q 0,0.0703 -0.0703,0.0703 h -1.04622 q -0.0429,0 -0.0429,0.039 v 0.16786 q 0,0.28498 0.28498,0.28498 h 0.78857 q 0.0703,0 0.0703,0.0703 v 0.19519 q 0,0.0625 -0.0703,0.0625 z m -1.03061,-1.08526 h 0.69878 q 0.039,0 0.039,-0.039 v -0.24984 q 0,-0.14835 -0.0664,-0.21471 -0.0664,-0.0703 -0.21471,-0.0703 h -0.21471 q -0.14835,0 -0.21471,0.0703 -0.0664,0.0664 -0.0664,0.21471 v 0.24984 q 0,0.039 0.039,0.039 z"
         id="path17" />
    </g>
    <path
       style="fill:none;fill-opacity:1;stroke:#000000;stroke-width:0.965;stroke-dasharray:none;stroke-opacity:1;marker-start:url(#Triangle-5-0);marker-end:url(#Triangle-5-0)"
       d="m 138.35571,201.8654 v 5.86226"
       id="path4-6-0"
       sodipodi:nodetypes="cc" />
    <path
       style="fill:none;fill-opacity:1;stroke:#000000;stroke-width:0.965;stroke-dasharray:none;stroke-opacity:1;marker-start:url(#Triangle-8-9-7);marker-end:url(#Triangle-8-9-7)"
       d="m 160.31467,201.8654 v 5.86226"
       id="path4-4-0-68"
       sodipodi:nodetypes="cc" />
    <path
       style="fill:none;fill-opacity:1;stroke:#000000;stroke-width:0.965;stroke-dasharray:none;stroke-opacity:1;marker-start:url(#Triangle-7-3);marker-end:url(#Triangle-7-3)"
       d="m 89.595732,221.08175 v 5.86226"
       id="path12"
       sodipodi:nodetypes="cc" />
    <path
       style="fill:none;fill-opacity:1;stroke:#000000;stroke-width:0.965;stroke-dasharray:none;stroke-opacity:1;marker-start:url(#Triangle-8-6-1);marker-end:url(#Triangle-8-6-1)"
       d="m 111.55468,221.08175 v 5.86226"
       id="path4-4-7-1"
       sodipodi:nodetypes="cc" />
    <path
       style="fill:none;fill-opacity:1;stroke:#000000;stroke-width:0.965;stroke-dasharray:none;stroke-opacity:1;marker-start:url(#Triangle-5-5-0);marker-end:url(#Triangle-5-5-0)"
       d="m 138.35571,221.08175 v 5.86226"
       id="path4-6-2-9"
       sodipodi:nodetypes="cc" />
    <path
       style="fill:none;fill-opacity:1;stroke:#000000;stroke-width:0.965;stroke-dasharray:none;stroke-opacity:1;marker-start:url(#Triangle-8-9-2-6);marker-end:url(#Triangle-8-9-2-6)"
       d="m 160.31466,221.08175 v 5.86226"
       id="path4-4-0-6-8"
       sodipodi:nodetypes="cc" />
  </g>
</svg>
