<?xml version="1.0" encoding="UTF-8" standalone="no"?>
<!-- Created with Inkscape (http://www.inkscape.org/) -->

<svg
   width="147.73708mm"
   height="91.625885mm"
   viewBox="0 0 147.73708 91.625885"
   version="1.1"
   id="svg1"
   xmlns="http://www.w3.org/2000/svg"
   xmlns:svg="http://www.w3.org/2000/svg">
  <defs
     id="defs1">
    <marker
       style="overflow:visible"
       id="Triangle-6-7-2-5"
       refX="0"
       refY="0"
       orient="auto-start-reverse"
       markerWidth="0.5"
       markerHeight="0.5"
       viewBox="0 0 1 1"
       preserveAspectRatio="xMidYMid">
      <path
         transform="scale(0.5)"
         style="fill:context-stroke;fill-rule:evenodd;stroke:context-stroke;stroke-width:1pt"
         d="M 5.77,0 -2.88,5 V -5 Z"
         id="path135-5-1-6-4" />
    </marker>
  </defs>
  <g
     id="layer1"
     transform="translate(-237.59581,-105.05504)">
    <rect
       style="fill:#f4f4f4;fill-opacity:1;stroke:#575756;stroke-width:0.448076;stroke-opacity:1"
       id="rect12-0-4-5-0"
       width="73.871712"
       height="80.851692"
       x="307.7551"
       y="115.60519"
       ry="1.6865193" />
    <rect
       style="fill:#f4f4f4;fill-opacity:1;stroke:#575756;stroke-width:0.448076;stroke-opacity:1"
       id="rect12-0-4-0"
       width="73.871712"
       height="80.851692"
       x="305.64874"
       y="113.40097"
       ry="1.6865193" />
    <rect
       style="fill:#f4f4f4;fill-opacity:1;stroke:#575756;stroke-width:0.448076;stroke-opacity:1"
       id="rect12-0-1"
       width="73.871712"
       height="80.851692"
       x="302.97015"
       y="110.74604"
       ry="1.6865193" />
    <rect
       style="fill:#f4f4f4;fill-opacity:1;stroke:#575756;stroke-width:0.448076;stroke-opacity:1"
       id="rect12-4"
       width="73.871712"
       height="80.851692"
       x="300.24109"
       y="108.10248"
       ry="1.6865193" />
    <rect
       style="fill:#f18828;fill-opacity:1;stroke-width:0.329473"
       id="rect1-8-6"
       width="29.256598"
       height="29.256598"
       x="306.76846"
       y="121.31384"
       ry="0.70425653" />
    <rect
       style="fill:#84679e;fill-opacity:1;stroke-width:0.329473"
       id="rect1-6-2-0"
       width="29.256598"
       height="29.256598"
       x="338.32883"
       y="121.31384"
       ry="0.70425653" />
    <path
       style="font-weight:600;font-size:5.73885px;font-family:Rajdhani;-inkscape-font-specification:'Rajdhani Semi-Bold';fill:#ffffff;stroke-width:0.686335"
       d="m 316.37276,135.40996 h -0.95537 q -0.60948,0 -0.94715,-0.33768 -0.32945,-0.33767 -0.32945,-0.93891 v -2.7426 q 0,-0.60946 0.32945,-0.9389 0.33767,-0.33769 0.94715,-0.33769 h 0.95537 q 0.60124,0 0.93891,0.33769 0.33767,0.32944 0.33767,0.9389 v 0.39533 q 0,0.14825 -0.14823,0.14825 h -0.51887 q -0.14007,0 -0.14007,-0.14825 v -0.36238 q 0,-0.60948 -0.593,-0.60948 h -0.71648 q -0.593,0 -0.593,0.60948 v 2.67672 q 0,0.60946 0.593,0.60946 h 0.71653 q 0.593,0 0.593,-0.60946 v -0.36239 q 0,-0.14825 0.14007,-0.14825 h 0.51888 q 0.14823,0 0.14823,0.14825 v 0.39532 q 0,0.60124 -0.33767,0.93891 -0.33768,0.33768 -0.93891,0.33768 z m 4.1345,0 h -0.72477 q -0.60946,0 -0.94715,-0.33768 -0.32943,-0.33767 -0.32943,-0.93891 v -1.64721 q 0,-0.60946 0.32943,-0.93891 0.33769,-0.33767 0.94715,-0.33767 h 0.72477 q 0.60124,0 0.93892,0.33767 0.34591,0.32945 0.34591,0.93891 v 1.64721 q 0,0.60124 -0.34591,0.93891 -0.33768,0.33768 -0.93892,0.33768 z m -0.60946,-0.70006 h 0.5024 q 0.59299,0 0.59299,-0.60124 v -1.59778 q 0,-0.60124 -0.59299,-0.60124 h -0.5024 q -0.31297,0 -0.45298,0.14825 -0.14007,0.14007 -0.14007,0.45299 v 1.59778 q 0,0.31298 0.14007,0.46123 0.14007,0.14006 0.45298,0.14006 z m 3.50032,0.70006 h -0.51887 q -0.14007,0 -0.14007,-0.14007 v -3.9203 q 0,-0.14007 0.14007,-0.14007 h 0.51887 q 0.14007,0 0.14007,0.14007 v 0.31298 h 0.033 q 0.0824,-0.20592 0.31297,-0.32945 0.23884,-0.12357 0.5271,-0.12357 h 0.30474 q 0.14007,0 0.14007,0.14007 v 0.42828 q 0,0.15648 -0.14007,0.13174 h -0.49416 q -0.68359,0 -0.68359,0.74949 v 2.61082 q 0,0.14007 -0.14007,0.14007 z m 5.07339,0 h -1.77899 q -0.60946,0 -0.94714,-0.33768 -0.32944,-0.33767 -0.32944,-0.93891 v -1.64721 q 0,-0.60946 0.32944,-0.93891 0.33768,-0.33767 0.94714,-0.33767 h 0.67537 q 0.60946,0 0.94713,0.33767 0.33769,0.32945 0.33769,0.93891 v 1.04599 q 0,0.14824 -0.14825,0.14824 h -2.20726 q -0.0906,0 -0.0906,0.0824 v 0.35415 q 0,0.60124 0.60123,0.60124 h 1.66368 q 0.14825,0 0.14825,0.14825 v 0.4118 q 0,0.13174 -0.14825,0.13174 z m -2.17431,-2.28962 h 1.47425 q 0.0824,0 0.0824,-0.0824 v -0.5271 q 0,-0.31297 -0.14007,-0.45298 -0.14007,-0.14825 -0.45298,-0.14825 h -0.45299 q -0.31296,0 -0.45297,0.14825 -0.14007,0.14007 -0.14007,0.45298 v 0.5271 q 0,0.0824 0.0824,0.0824 z"
       id="text1-8-4-7"
       aria-label="Core" />
    <path
       style="font-weight:600;font-size:5.73885px;font-family:Rajdhani;-inkscape-font-specification:'Rajdhani Semi-Bold';stroke-width:0.686335"
       d="m 332.15298,117.05887 h -0.95538 q -0.60946,0 -0.94715,-0.33767 -0.32944,-0.33767 -0.32944,-0.93891 v -2.74261 q 0,-0.60946 0.32944,-0.93889 0.33769,-0.33769 0.94715,-0.33769 h 0.95538 q 0.60122,0 0.93891,0.33769 0.33768,0.32943 0.33768,0.93889 v 0.39534 q 0,0.14825 -0.14825,0.14825 h -0.51888 q -0.14007,0 -0.14007,-0.14825 v -0.36239 q 0,-0.60946 -0.59298,-0.60946 h -0.71654 q -0.593,0 -0.593,0.60946 v 2.67672 q 0,0.60946 0.593,0.60946 h 0.71654 q 0.59298,0 0.59298,-0.60946 v -0.36238 q 0,-0.14825 0.14007,-0.14825 h 0.51888 q 0.14825,0 0.14825,0.14825 v 0.39532 q 0,0.60124 -0.33768,0.93891 -0.33769,0.33767 -0.93891,0.33767 z m 4.13451,0 h -0.72478 q -0.60947,0 -0.94715,-0.33767 -0.32943,-0.33767 -0.32943,-0.93891 v -1.64721 q 0,-0.60946 0.32943,-0.93891 0.33768,-0.33767 0.94715,-0.33767 h 0.72478 q 0.60122,0 0.93891,0.33767 0.34591,0.32945 0.34591,0.93891 v 1.64721 q 0,0.60124 -0.34591,0.93891 -0.33769,0.33767 -0.93891,0.33767 z m -0.60948,-0.70006 h 0.5024 q 0.593,0 0.593,-0.60122 v -1.5978 q 0,-0.60123 -0.593,-0.60123 h -0.5024 q -0.31296,0 -0.45299,0.14825 -0.14007,0.14007 -0.14007,0.45298 v 1.5978 q 0,0.31296 0.14007,0.46121 0.14007,0.14007 0.45299,0.14007 z m 3.50032,0.70006 h -0.51888 q -0.14007,0 -0.14007,-0.14007 v -3.92035 q 0,-0.14007 0.14007,-0.14007 h 0.51888 q 0.14007,0 0.14007,0.14007 v 0.31298 h 0.033 q 0.0824,-0.2059 0.31296,-0.32945 0.23885,-0.12357 0.52711,-0.12357 h 0.30473 q 0.14007,0 0.14007,0.14007 v 0.42827 q 0,0.15649 -0.14007,0.13175 h -0.49416 q -0.6836,0 -0.6836,0.74949 v 2.61081 q 0,0.14007 -0.14007,0.14007 z m 5.0734,0 h -1.77899 q -0.60947,0 -0.94714,-0.33767 -0.32945,-0.33767 -0.32945,-0.93891 v -1.64721 q 0,-0.60946 0.32945,-0.93891 0.33767,-0.33767 0.94714,-0.33767 h 0.67535 q 0.60948,0 0.94715,0.33767 0.33767,0.32945 0.33767,0.93891 v 1.04599 q 0,0.14823 -0.14825,0.14823 h -2.20725 q -0.0906,0 -0.0906,0.0824 v 0.35415 q 0,0.60124 0.60124,0.60124 h 1.66368 q 0.14825,0 0.14825,0.14824 v 0.4118 q 0,0.13175 -0.14825,0.13175 z m -2.17432,-2.28962 h 1.47426 q 0.0824,0 0.0824,-0.0824 v -0.5271 q 0,-0.31298 -0.14007,-0.45299 -0.14006,-0.14825 -0.45297,-0.14825 h -0.45298 q -0.31298,0 -0.45299,0.14825 -0.14007,0.14007 -0.14007,0.45299 v 0.5271 q 0,0.0824 0.0824,0.0824 z"
       id="text1-8-4-8-7"
       aria-label="Core" />
    <path
       style="font-weight:600;font-size:5.73885px;font-family:Rajdhani;-inkscape-font-specification:'Rajdhani Semi-Bold';stroke-width:0.686335"
       d="m 377.24895,108.71627 -0.48046,-0.40119 q -0.13908,-0.11613 0.0203,-0.16556 l 2.12357,-0.83413 0.40812,-2.15925 q 0.0203,-0.16556 0.14662,-0.06 l 0.48678,0.40647 q 0.12012,0.1003 0.0746,0.24476 l -0.39588,1.51496 0.0253,0.0211 1.38843,-0.68616 q 0.13406,-0.0705 0.24782,0.0245 l 0.48046,0.40119 q 0.13277,0.11086 -0.0265,0.16031 l -2.02125,0.80154 -0.42825,2.26047 q -0.0265,0.16032 -0.14662,0.06 l -0.49943,-0.41702 q -0.10752,-0.0898 -0.0619,-0.23421 l 0.39699,-1.56769 -0.0253,-0.0212 -1.46539,0.67556 q -0.13406,0.0705 -0.24784,-0.0245 z m 5.28943,2.18492 1.8687,-2.23795 -3.11412,1.19802 z m -0.61754,1.71614 -0.37299,-0.31145 q -0.10751,-0.0898 -0.0177,-0.19729 l 0.55428,-0.6638 -1.66898,-1.39361 q -0.18334,-0.15309 -0.0303,-0.33643 l 0.16364,-0.19597 q 0.11614,-0.13909 0.26283,-0.19901 l 3.50548,-1.3326 q 0.12976,-0.0526 0.20043,-0.0472 0.0707,0.005 0.15916,0.0792 l 0.55632,0.46453 q 0.18334,0.15309 0.0302,0.33643 l -2.1432,2.56668 0.4615,0.38536 q 0.10751,0.0898 0.0177,0.19729 l -0.26394,0.3161 q -0.1003,0.12011 -0.20782,0.0303 l -0.4615,-0.38536 -0.55428,0.6638 q -0.0898,0.10751 -0.1909,0.0231 z"
       id="text1-8-4-8-8-7"
       aria-label="x4" />
    <path
       style="font-weight:600;font-size:5.73885px;font-family:Rajdhani;-inkscape-font-specification:'Rajdhani Semi-Bold';text-align:center;text-anchor:middle;fill:#ffffff;stroke-width:0.466875"
       d="m 346.94027,134.7099 h 1.16129 q 0.593,0 0.593,-0.60946 v -2.67672 q 0,-0.60948 -0.593,-0.60948 h -1.16129 q -0.0906,0 -0.0906,0.0824 v 3.72269 q 0,0.0906 0.0906,0.0906 z m -0.88948,0.56005 v -5.01576 q 0,-0.14006 0.14007,-0.14006 h 2.02607 q 0.60122,0 0.93891,0.33768 0.34591,0.32944 0.34591,0.9389 v 2.74261 q 0,0.60123 -0.34591,0.93891 -0.33769,0.33767 -0.93891,0.33767 h -2.02607 q -0.14007,0 -0.14007,-0.14007 z m 8.19487,-5.15577 h 0.92243 q 0.14007,0 0.14007,0.14007 V 135.27 q 0,0.14007 -0.14007,0.14007 h -0.51063 q -0.14007,0 -0.14007,-0.14007 v -4.1592 h -0.033 l -1.07069,3.01439 q -0.0494,0.13175 -0.18118,0.13175 h -0.52711 q -0.12357,0 -0.17295,-0.13175 l -1.0954,-3.02263 h -0.033 V 135.27 q 0,0.0824 -0.033,0.11539 -0.0247,0.0247 -0.10706,0.0247 h -0.5024 q -0.14007,0 -0.14007,-0.14007 v -5.01575 q 0,-0.14007 0.14007,-0.14007 h 0.92244 q 0.0906,0 0.13174,0.0906 l 1.12834,3.17912 h 0.0412 l 1.13657,-3.17912 q 0.0165,-0.0906 0.12356,-0.0906 z m 2.55317,5.29578 h -0.593 q -0.11524,0 -0.0824,-0.14007 l 1.43307,-5.01575 q 0.0412,-0.14007 0.19766,-0.14007 h 0.8236 q 0.16473,0 0.19766,0.14007 l 1.43307,5.01575 q 0.033,0.14007 -0.0906,0.14007 h -0.58477 q -0.074,0 -0.10706,-0.0247 -0.0247,-0.033 -0.0412,-0.11538 l -0.31298,-1.07069 h -1.81192 l -0.31297,1.07069 q -0.033,0.14007 -0.14825,0.14007 z m 1.35071,-4.50512 -0.72478,2.63553 h 1.49074 l -0.73301,-2.63553 z"
       id="text1-8-7-5-3"
       aria-label="DMA&#10;" />
    <rect
       style="fill:#009fe3;fill-opacity:1;stroke-width:0.475029"
       id="rect1-6-2-1-9"
       width="60.817001"
       height="29.256598"
       x="306.76846"
       y="153.52083"
       ry="0.70425653" />
    <path
       style="font-weight:600;font-size:5.73885px;font-family:Rajdhani;-inkscape-font-specification:'Rajdhani Semi-Bold';text-align:center;text-anchor:middle;fill:#ffffff;stroke-width:0.466875"
       d="m 318.65819,161.27184 v -0.21414 q 0,-0.14007 0.14007,-0.14007 h 0.52711 q 0.14007,0 0.14007,0.14007 v 0.14825 q 0,0.34591 0.14825,0.5024 0.15649,0.14825 0.51064,0.14825 h 0.56828 q 0.35415,0 0.51064,-0.15649 0.15647,-0.16471 0.15647,-0.5271 v -0.18943 q 0,-0.26355 -0.2059,-0.4118 -0.19766,-0.15649 -0.49416,-0.19766 -0.2965,-0.0494 -0.65065,-0.13175 -0.35415,-0.0824 -0.65065,-0.18944 -0.29649,-0.10706 -0.50239,-0.40356 -0.19767,-0.2965 -0.19767,-0.75771 v -0.34592 q 0,-0.60123 0.33768,-0.9389 0.34592,-0.34593 0.94715,-0.34593 h 0.87302 q 0.60946,0 0.94715,0.34593 0.34591,0.33767 0.34591,0.9389 v 0.1812 q 0,0.14007 -0.14007,0.14007 h -0.52711 q -0.14007,0 -0.14007,-0.14007 v -0.10707 q 0,-0.35414 -0.15649,-0.50239 -0.14825,-0.15648 -0.5024,-0.15648 h -0.51886 q -0.35415,0 -0.51063,0.16471 -0.14825,0.15649 -0.14825,0.54359 v 0.25531 q 0,0.37063 0.53533,0.5024 0.23885,0.0577 0.51888,0.0989 0.28826,0.0412 0.57652,0.12357 0.28826,0.0824 0.52711,0.22237 0.23884,0.13175 0.38709,0.4118 0.14825,0.27179 0.14825,0.66712 v 0.3212 q 0,0.60124 -0.34592,0.94715 -0.33767,0.33767 -0.93891,0.33767 h -0.92243 q -0.60124,0 -0.94715,-0.33767 -0.34591,-0.34591 -0.34591,-0.94715 z m 7.083,0.72477 v 0.42828 q 0,0.13174 -0.14825,0.13174 h -1.2107 q -0.60946,0 -0.94714,-0.33767 -0.32945,-0.33768 -0.32945,-0.93891 v -1.64721 q 0,-0.60946 0.32945,-0.93891 0.33768,-0.33768 0.94714,-0.33768 h 1.2107 q 0.14825,0 0.14825,0.14007 v 0.42828 q 0,0.13174 -0.14825,0.13174 h -1.09539 q -0.593,0 -0.593,0.60948 v 1.58132 q 0,0.60946 0.593,0.60946 h 1.09539 q 0.14825,0 0.14825,0.14007 z m 1.44132,0.56005 h -0.51888 q -0.14006,0 -0.14006,-0.14007 v -3.92035 q 0,-0.14007 0.14006,-0.14007 h 0.51888 q 0.14007,0 0.14007,0.14007 v 0.31297 h 0.0329 q 0.0824,-0.2059 0.31298,-0.32945 0.23885,-0.12356 0.52711,-0.12356 h 0.30472 q 0.14007,0 0.14007,0.14007 v 0.42827 q 0,0.15649 -0.14007,0.13175 h -0.49416 q -0.68358,0 -0.68358,0.74948 v 2.61082 q 0,0.14007 -0.14007,0.14007 z m 3.61561,0 h -0.32121 q -0.60946,0 -0.94715,-0.33767 -0.32943,-0.33768 -0.32943,-0.93891 v -1.64721 q 0,-0.60946 0.32943,-0.93891 0.33769,-0.33768 0.94715,-0.33768 h 1.84487 q 0.14825,0 0.14825,0.14007 v 3.92036 q 0,0.14006 -0.14825,0.14006 h -0.51886 q -0.14007,0 -0.14007,-0.14006 v -0.2965 h -0.033 q -0.19766,0.43651 -0.83183,0.43651 z m 0.86479,-1.40012 v -2.01783 q 0,-0.0824 -0.0906,-0.0824 h -0.98008 q -0.593,0 -0.593,0.60947 v 1.58133 q 0,0.60946 0.593,0.60946 h 0.39532 q 0.67536,0 0.67536,-0.70007 z m 1.96017,-2.1002 h -0.39534 q -0.0824,0 -0.11524,-0.0247 -0.0247,-0.033 -0.0247,-0.10706 v -0.42828 q 0,-0.14007 0.14007,-0.14007 h 0.39533 q 0.0824,0 0.0824,-0.0824 v -0.74124 q 0,-0.14007 0.14824,-0.14007 h 0.51887 q 0.14007,0 0.14007,0.14007 v 0.74124 q 0,0.0824 0.0906,0.0824 h 0.76594 q 0.14825,0 0.14825,0.14007 v 0.42828 q 0,0.13174 -0.14825,0.13174 h -0.76594 q -0.0906,0 -0.0906,0.0824 v 2.11667 q 0,0.60122 0.61771,0.60122 h 0.3212 q 0.14825,0 0.14825,0.14007 v 0.42828 q 0,0.13174 -0.14825,0.13174 h -0.44475 q -0.60946,0 -0.95537,-0.32943 -0.34591,-0.32944 -0.34591,-0.93068 v -2.15784 q 0,-0.0824 -0.0824,-0.0824 z m 5.32047,2.94027 v 0.42828 q 0,0.13174 -0.14825,0.13174 h -1.21069 q -0.60946,0 -0.94714,-0.33767 -0.32945,-0.33768 -0.32945,-0.93891 v -1.64721 q 0,-0.60946 0.32945,-0.93891 0.33768,-0.33768 0.94714,-0.33768 h 1.21069 q 0.14825,0 0.14825,0.14007 v 0.42828 q 0,0.13174 -0.14825,0.13174 h -1.09538 q -0.593,0 -0.593,0.60948 v 1.58132 q 0,0.60946 0.593,0.60946 h 1.09538 q 0.14825,0 0.14825,0.14007 z m 1.44133,0.56005 H 339.866 q -0.14007,0 -0.14007,-0.14007 v -5.50991 q 0,-0.14007 0.14007,-0.14007 h 0.51888 q 0.14007,0 0.14007,0.14007 v 1.88606 h 0.033 q 0.19768,-0.43651 0.83185,-0.43651 h 0.36239 q 0.60122,0 0.92244,0.32943 0.32119,0.32945 0.32119,0.94715 v 2.78378 q 0,0.14007 -0.14825,0.14007 h -0.51886 q -0.14007,0 -0.14007,-0.14007 v -2.75083 q 0,-0.60947 -0.60123,-0.60947 h -0.3871 q -0.67535,0 -0.67535,0.70006 v 2.66024 q 0,0.14007 -0.14007,0.14007 z m 4.25802,1.16129 h -0.51886 q -0.14007,0 -0.14007,-0.14007 v -5.08164 q 0,-0.14007 0.14007,-0.14007 h 0.51886 q 0.14007,0 0.14007,0.14007 v 0.2965 h 0.033 q 0.19766,-0.43651 0.83184,-0.43651 h 0.42003 q 0.593,0 0.90598,0.32943 0.32119,0.32945 0.32119,0.94715 v 1.64721 q 0,0.60947 -0.32119,0.94715 -0.31298,0.32943 -0.90598,0.32943 h -0.42003 q -0.63418,0 -0.83184,-0.43651 h -0.033 v 1.45779 q 0,0.14007 -0.14007,0.14007 z m 0.81538,-1.86135 h 0.43651 q 0.593,0 0.593,-0.60946 v -1.58132 q 0,-0.60948 -0.593,-0.60948 h -0.43651 q -0.67536,0 -0.67536,0.70006 v 1.40014 q 0,0.70006 0.67536,0.70006 z m 4.30745,0.70006 h -0.32121 q -0.60948,0 -0.94715,-0.33767 -0.32944,-0.33768 -0.32944,-0.93891 v -1.64721 q 0,-0.60946 0.32944,-0.93891 0.33767,-0.33768 0.94715,-0.33768 h 1.84487 q 0.14825,0 0.14825,0.14007 v 3.92036 q 0,0.14006 -0.14825,0.14006 h -0.51888 q -0.14007,0 -0.14007,-0.14006 v -0.2965 h -0.0329 q -0.19766,0.43651 -0.83184,0.43651 z m 0.86477,-1.40012 v -2.01783 q 0,-0.0824 -0.0906,-0.0824 h -0.98012 q -0.59299,0 -0.59299,0.60947 v 1.58133 q 0,0.60946 0.59299,0.60946 h 0.39533 q 0.67535,0 0.67535,-0.70007 z m 3.40149,1.40012 h -0.42005 q -0.59298,0 -0.91419,-0.32944 -0.31296,-0.33767 -0.31296,-0.94714 v -1.64721 q 0,-0.6177 0.31296,-0.94715 0.32121,-0.32944 0.91419,-0.32944 h 0.42005 q 0.63418,0 0.8236,0.43651 h 0.033 v -1.88605 q 0,-0.14007 0.14007,-0.14007 h 0.5271 q 0.14007,0 0.14007,0.14007 v 5.50991 q 0,0.14007 -0.14007,0.14007 h -0.5271 q -0.14007,0 -0.14007,-0.14007 v -0.2965 h -0.033 q -0.18942,0.43651 -0.8236,0.43651 z m 0.85655,-1.40012 v -1.40014 q 0,-0.70006 -0.67536,-0.70006 h -0.43651 q -0.593,0 -0.593,0.60948 v 1.58132 q 0,0.60946 0.593,0.60946 h 0.43651 q 0.67536,0 0.67536,-0.70006 z"
       id="text1-8-7-5-9-8"
       aria-label="Scratchpad&#10;" />
    <g
       id="text1-8-7-5-6-26"
       style="font-size:3.90381px;font-family:Rajdhani;-inkscape-font-specification:Rajdhani;text-align:center;text-anchor:middle;fill:#ffffff;stroke-width:0.325317"
       aria-label="&#10;256KiB&#10;1 Cycle"
       transform="matrix(1.4351383,0,0,1.4351383,-103.38704,-45.713461)">
      <path
         style="font-weight:600;-inkscape-font-specification:'Rajdhani Semi-Bold'"
         d="m 301.66275,150.00841 v -0.35916 q 0,-0.24203 0.20691,-0.40599 l 0.73782,-0.60119 q 0.18738,-0.14834 0.18738,-0.34353 v -0.12883 q 0,-0.28107 -0.29279,-0.28107 h -0.19128 q -0.14835,0 -0.21471,0.0664 -0.0664,0.0664 -0.0664,0.21471 v 0.14444 q 0,0.0703 -0.0664,0.0703 h -0.24985 q -0.0664,0 -0.0664,-0.0703 v -0.15225 q 0,-0.28498 0.16006,-0.44113 0.16005,-0.15615 0.44893,-0.15615 h 0.3045 q 0.28498,0 0.44503,0.15615 0.16006,0.15615 0.16006,0.44113 v 0.16006 q 0,0.3045 -0.23813,0.49969 l -0.74953,0.6129 q -0.0898,0.0742 -0.0898,0.17567 v 0.12492 h 1.01499 q 0.0703,0 0.0703,0.0664 v 0.20691 q 0,0.0664 -0.0703,0.0664 h -1.37024 q -0.0703,0 -0.0703,-0.0664 z"
         id="path20" />
      <path
         style="font-weight:600;-inkscape-font-specification:'Rajdhani Semi-Bold'"
         d="m 304.43836,148.74747 h -0.24203 q -0.0742,0 -0.12493,0.0273 -0.0468,0.0273 -0.0625,0.0586 -0.0429,0.0898 -0.1054,0.0898 h -0.24594 q -0.0664,0 -0.0664,-0.0664 v -1.2258 q 0,-0.0664 0.0664,-0.0664 h 1.32339 q 0.0703,0 0.0703,0.0664 v 0.22252 q 0,0.0664 -0.0703,0.0664 h -1.00718 v 0.71049 q 0.0664,-0.19129 0.32792,-0.19129 h 0.23032 q 0.28108,0 0.42942,0.14835 0.14835,0.14444 0.14835,0.42942 v 0.45284 q 0,0.28498 -0.16006,0.44503 -0.16006,0.16006 -0.44503,0.16006 h -0.33183 q -0.28888,0 -0.44894,-0.16006 -0.15615,-0.16005 -0.15615,-0.44503 v -0.1015 q 0,-0.0703 0.0664,-0.0703 h 0.24594 q 0.0664,0 0.0664,0.0703 v 0.0976 q 0,0.28497 0.28108,0.28497 h 0.22251 q 0.28888,0 0.28888,-0.28497 v -0.39429 q 0,-0.17567 -0.0703,-0.24984 -0.0664,-0.0742 -0.23033,-0.0742 z m 1.7372,0.99548 h 0.26545 q 0.28108,0 0.28108,-0.28889 v -0.3123 q 0,-0.28888 -0.28108,-0.28888 h -0.54653 v 0.60118 q 0,0.28889 0.28108,0.28889 z m 0.32011,0.33182 h -0.37477 q -0.28888,0 -0.44894,-0.16006 -0.16005,-0.16005 -0.16005,-0.44503 v -1.29997 q 0,-0.28888 0.16005,-0.44503 0.16006,-0.16006 0.44894,-0.16006 h 0.77686 q 0.0664,0 0.0664,0.0664 v 0.203 q 0,0.0625 -0.0664,0.0625 h -0.7222 q -0.28108,0 -0.28108,0.28889 v 0.33572 h 0.60119 q 0.28888,0 0.44894,0.16006 0.16005,0.15615 0.16005,0.44503 v 0.34354 q 0,0.28498 -0.16005,0.44503 -0.16006,0.16006 -0.44894,0.16006 z m 1.41317,0 h -0.24594 q -0.0664,0 -0.0664,-0.0664 v -2.37743 q 0,-0.0664 0.0664,-0.0664 h 0.24594 q 0.0664,0 0.0664,0.0664 v 1.23751 h 0.0117 q 0.039,-0.1054 0.1015,-0.19519 l 0.74563,-1.04232 q 0.0429,-0.0664 0.12492,-0.0664 h 0.28888 q 0.082,0 0.0273,0.0742 l -0.76124,1.03451 0.85883,1.32339 q 0.0469,0.0781 -0.0468,0.0781 h -0.21862 q -0.1054,0 -0.14834,-0.0664 l -0.67536,-1.05794 -0.3084,0.36306 v 0.69488 q 0,0.0664 -0.0664,0.0664 z m 1.80747,-2.32277 v -0.35524 q 0,-0.0625 0.0625,-0.0625 h 0.25375 q 0.0625,0 0.0625,0.0625 v 0.35524 q 0,0.0664 -0.0625,0.0664 h -0.25375 q -0.0625,0 -0.0625,-0.0664 z m 0,2.25641 v -1.85822 q 0,-0.0664 0.0625,-0.0664 h 0.24985 q 0.0664,0 0.0664,0.0664 v 1.85822 q 0,0.039 -0.0156,0.0547 -0.0117,0.0117 -0.0468,0.0117 h -0.24984 q -0.0664,0 -0.0664,-0.0664 z m 1.35072,-0.25766 h 0.54653 q 0.29279,0 0.29279,-0.28107 v -0.24204 q 0,-0.28107 -0.3084,-0.28107 h -0.53092 q -0.0429,0 -0.0429,0.039 v 0.72611 q 0,0.039 0.0429,0.039 z m 0,-1.11649 h 0.50749 q 0.29669,0 0.29669,-0.28497 v -0.17958 q 0,-0.28107 -0.28888,-0.28107 h -0.5153 q -0.0429,0 -0.0429,0.039 v 0.66756 q 0,0.039 0.0429,0.039 z m -0.42161,1.37415 v -2.37743 q 0,-0.0664 0.0664,-0.0664 h 0.9252 q 0.28889,0 0.44894,0.15615 0.16006,0.15615 0.16006,0.44113 v 0.19129 q 0,0.33963 -0.32011,0.43723 0.15224,0.0195 0.24984,0.13273 0.1015,0.11321 0.1015,0.30449 v 0.24985 q 0,0.28498 -0.16006,0.44113 -0.16005,0.15615 -0.44503,0.15615 h -0.96034 q -0.0664,0 -0.0664,-0.0664 z"
         id="path21" />
      <path
         style="font-weight:600;-inkscape-font-specification:'Rajdhani Semi-Bold'"
         d="m 301.82085,153.05728 v -0.23032 q 0,-0.0625 0.0546,-0.0937 l 0.406,-0.24594 q 0.0742,-0.0429 0.12492,-0.0429 h 0.23423 q 0.0664,0 0.0664,0.0664 v 2.37742 q 0,0.0664 -0.0625,0.0664 h -0.25374 q -0.0664,0 -0.0664,-0.0664 v -2.03779 l -0.42551,0.24594 q -0.0781,0.0351 -0.0781,-0.039 z m 3.40022,1.89725 h -0.45284 q -0.28888,0 -0.44894,-0.16005 -0.15615,-0.16006 -0.15615,-0.44504 v -1.29997 q 0,-0.28888 0.15615,-0.44503 0.16006,-0.16006 0.44894,-0.16006 h 0.45284 q 0.28498,0 0.44504,0.16006 0.16005,0.15615 0.16005,0.44503 v 0.18739 q 0,0.0703 -0.0703,0.0703 h -0.24594 q -0.0664,0 -0.0664,-0.0703 v -0.17177 q 0,-0.28888 -0.28108,-0.28888 h -0.33963 q -0.28107,0 -0.28107,0.28888 v 1.26874 q 0,0.28888 0.28107,0.28888 h 0.33963 q 0.28108,0 0.28108,-0.28888 v -0.17177 q 0,-0.0703 0.0664,-0.0703 h 0.24594 q 0.0703,0 0.0703,0.0703 v 0.18738 q 0,0.28498 -0.16005,0.44504 -0.16006,0.16005 -0.44504,0.16005 z m 1.28436,0.63242 h -0.2069 q -0.0664,0 -0.0664,-0.0664 v -0.19909 q 0,-0.0703 0.0664,-0.0703 h 0.0898 q 0.23814,0 0.32792,-0.0937 0.0937,-0.0937 0.15616,-0.3084 h -0.15616 q -0.0585,0 -0.082,-0.0664 l -0.5192,-1.75281 q -0.0156,-0.0664 0.0507,-0.0664 h 0.26155 q 0.0625,0 0.0781,0.0664 l 0.42551,1.5303 h 0.0156 l 0.42551,-1.5303 q 0.0117,-0.0664 0.0781,-0.0664 h 0.24984 q 0.0742,0 0.0625,0.0703 l -0.53483,1.87773 q -0.0898,0.32792 -0.25374,0.49969 -0.16396,0.17567 -0.46846,0.17567 z m 2.79903,-0.89788 v 0.203 q 0,0.0625 -0.0703,0.0625 h -0.57386 q -0.28889,0 -0.44894,-0.16005 -0.15616,-0.16006 -0.15616,-0.44504 v -0.78076 q 0,-0.28888 0.15616,-0.44503 0.16005,-0.16006 0.44894,-0.16006 h 0.57386 q 0.0703,0 0.0703,0.0664 v 0.203 q 0,0.0625 -0.0703,0.0625 h -0.51921 q -0.28108,0 -0.28108,0.28889 v 0.74953 q 0,0.28888 0.28108,0.28888 h 0.51921 q 0.0703,0 0.0703,0.0664 z m 0.70269,0.26546 h -0.24594 q -0.0664,0 -0.0664,-0.0664 v -2.61165 q 0,-0.0664 0.0664,-0.0664 h 0.24594 q 0.0664,0 0.0664,0.0664 v 2.61165 q 0,0.0664 -0.0664,0.0664 z m 1.98704,0 h -0.84322 q -0.28888,0 -0.44894,-0.16005 -0.15615,-0.16006 -0.15615,-0.44504 v -0.78076 q 0,-0.28888 0.15615,-0.44503 0.16006,-0.16006 0.44894,-0.16006 h 0.32011 q 0.28888,0 0.44894,0.16006 0.16006,0.15615 0.16006,0.44503 v 0.49578 q 0,0.0703 -0.0703,0.0703 h -1.04622 q -0.043,0 -0.043,0.039 v 0.16786 q 0,0.28498 0.28498,0.28498 h 0.78857 q 0.0703,0 0.0703,0.0703 v 0.19519 q 0,0.0625 -0.0703,0.0625 z m -1.0306,-1.08526 h 0.69878 q 0.039,0 0.039,-0.039 v -0.24985 q 0,-0.14834 -0.0664,-0.21471 -0.0664,-0.0703 -0.21471,-0.0703 h -0.21471 q -0.14834,0 -0.21471,0.0703 -0.0664,0.0664 -0.0664,0.21471 v 0.24985 q 0,0.039 0.039,0.039 z"
         id="path22" />
    </g>
    <path
       style="font-weight:600;font-size:3.90381px;font-family:Rajdhani;-inkscape-font-specification:'Rajdhani Semi-Bold';text-align:center;text-anchor:middle;fill:#ffffff;stroke-width:0.466875"
       d="m 313.01778,141.82211 v 0.29134 q 0,0.0897 -0.10089,0.0897 h -0.82357 q -0.41458,0 -0.64429,-0.22969 -0.2241,-0.22971 -0.2241,-0.6387 v -1.12049 q 0,-0.41459 0.2241,-0.63868 0.22971,-0.22971 0.64429,-0.22971 h 0.82357 q 0.10089,0 0.10089,0.0953 v 0.29133 q 0,0.0897 -0.10089,0.0897 h -0.74514 q -0.40337,0 -0.40337,0.41458 v 1.0757 q 0,0.41458 0.40337,0.41458 h 0.74514 q 0.10089,0 0.10089,0.0953 z m 0.35296,-2.4763 h 0.37537 q 0.0897,0 0.10649,0.0953 l 0.58267,2.25222 h 0.0392 l 0.57145,-2.25222 q 0.0224,-0.0953 0.11768,-0.0953 h 0.36977 q 0.10089,0 0.0673,0.0953 l -0.75635,2.66119 q -0.0224,0.10089 -0.12328,0.10089 h -0.53785 q -0.10089,0 -0.12327,-0.10089 l -0.75634,-2.66119 q -0.0224,-0.0953 0.0672,-0.0953 z m 3.5744,0.82357 h 0.30814 q 0.41458,0 0.41458,-0.40899 v -0.29133 q 0,-0.40337 -0.41458,-0.40337 h -0.33055 q -0.20729,0 -0.30813,0.0953 -0.0953,0.0953 -0.0953,0.30814 v 0.16247 q 0,0.0953 -0.0953,0.0953 h -0.35857 q -0.0953,0 -0.0953,-0.0953 v -0.17367 q 0,-0.40898 0.22971,-0.63309 0.22969,-0.2241 0.64427,-0.2241 h 0.48742 q 0.41459,0 0.64429,0.2241 0.22971,0.22411 0.22971,0.63309 v 0.30813 q 0,0.49302 -0.44821,0.62748 0.44821,0.10649 0.44821,0.62749 v 0.32494 q 0,0.40899 -0.22971,0.63308 -0.2297,0.2241 -0.64429,0.2241 h -0.48742 q -0.41458,0 -0.64427,-0.2241 -0.22971,-0.22409 -0.22971,-0.63308 v -0.19608 q 0,-0.10089 0.0953,-0.10089 h 0.35857 q 0.0953,0 0.0953,0.10089 v 0.18487 q 0,0.2073 0.0953,0.30814 0.10089,0.0953 0.30813,0.0953 h 0.33055 q 0.41458,0 0.41458,-0.40339 v -0.30814 q 0,-0.40899 -0.41458,-0.40899 h -0.30814 q -0.0953,0 -0.0953,-0.0953 v -0.25211 q 0,-0.10089 0.0953,-0.10089 z m 1.87684,1.93847 v -0.51543 q 0,-0.34736 0.29693,-0.58267 l 1.05888,-0.86279 q 0.26891,-0.21289 0.26891,-0.49301 v -0.18489 q 0,-0.40337 -0.42018,-0.40337 h -0.27453 q -0.2129,0 -0.30813,0.0953 -0.0953,0.0953 -0.0953,0.30814 v 0.20729 q 0,0.10089 -0.0953,0.10089 h -0.35856 q -0.0953,0 -0.0953,-0.10089 v -0.21849 q 0,-0.40898 0.22971,-0.63309 0.22969,-0.2241 0.64429,-0.2241 h 0.43699 q 0.40898,0 0.63869,0.2241 0.22969,0.22411 0.22969,0.63309 v 0.2297 q 0,0.437 -0.34175,0.71712 l -1.07567,0.8796 q -0.12888,0.10648 -0.12888,0.25211 v 0.17928 h 1.45665 q 0.10089,0 0.10089,0.0953 v 0.29693 q 0,0.0953 -0.10089,0.0953 h -1.96647 q -0.10089,0 -0.10089,-0.0953 z m 4.81255,0.0953 h -1.21014 q -0.41459,0 -0.64429,-0.22969 -0.22411,-0.22971 -0.22411,-0.6387 v -1.12049 q 0,-0.41459 0.22411,-0.63868 0.2297,-0.22971 0.64429,-0.22971 h 0.45941 q 0.41458,0 0.64429,0.22971 0.22969,0.22409 0.22969,0.63868 v 0.71151 q 0,0.10089 -0.10089,0.10089 h -1.50147 q -0.0616,0 -0.0616,0.056 v 0.2409 q 0,0.40899 0.40899,0.40899 h 1.13171 q 0.10089,0 0.10089,0.10089 v 0.28012 q 0,0.0897 -0.10089,0.0897 z m -1.47907,-1.5575 h 1.00285 q 0.056,0 0.056,-0.056 v -0.35855 q 0,-0.21289 -0.0953,-0.30814 -0.0953,-0.10089 -0.30814,-0.10089 h -0.30814 q -0.2129,0 -0.30814,0.10089 -0.0953,0.0953 -0.0953,0.30814 v 0.35855 q 0,0.056 0.056,0.056 z m 3.72007,0.39218 v -1.98329 l -1.10369,1.98329 z m 0.42579,1.16532 h -0.33054 q -0.0953,0 -0.0953,-0.0953 v -0.58826 h -1.47906 q -0.16247,0 -0.16247,-0.16248 v -0.17368 q 0,-0.12328 0.0504,-0.2185 l 1.24936,-2.22419 q 0.0448,-0.0841 0.0841,-0.11208 0.0392,-0.028 0.11768,-0.028 h 0.49302 q 0.16247,0 0.16247,0.16247 v 2.27463 h 0.40898 q 0.0953,0 0.0953,0.0953 v 0.28012 q 0,0.10649 -0.0953,0.10649 h -0.40898 v 0.58826 q 0,0.0953 -0.0897,0.0953 z m 1.9889,-0.47621 h 0.39778 q 0.40337,0 0.40337,-0.41458 v -1.82082 q 0,-0.41458 -0.40337,-0.41458 h -0.39778 q -0.40339,0 -0.40339,0.41458 v 1.82082 q 0,0.41458 0.40339,0.41458 z m 0.47621,0.47621 h -0.56025 q -0.41458,0 -0.64429,-0.22969 -0.2297,-0.22971 -0.2297,-0.6387 v -1.86563 q 0,-0.41459 0.2297,-0.63868 0.22971,-0.22971 0.64429,-0.22971 h 0.56025 q 0.40898,0 0.63869,0.22971 0.2297,0.22409 0.2297,0.63868 v 1.86563 q 0,0.40899 -0.2297,0.6387 -0.22971,0.22969 -0.63869,0.22969 z m 2.00009,0.78996 h -0.35296 q -0.0953,0 -0.0953,-0.0953 v -3.45675 q 0,-0.0953 0.0953,-0.0953 h 0.35296 q 0.0953,0 0.0953,0.0953 v 0.20169 h 0.0224 q 0.13448,-0.29693 0.56586,-0.29693 h 0.28573 q 0.40337,0 0.61627,0.2241 0.2185,0.2241 0.2185,0.64429 v 1.1205 q 0,0.41458 -0.2185,0.64429 -0.2129,0.2241 -0.61627,0.2241 h -0.28573 q -0.4314,0 -0.56586,-0.29693 h -0.0224 v 0.99164 q 0,0.0953 -0.0953,0.0953 z m 0.55466,-1.26617 h 0.29693 q 0.40337,0 0.40337,-0.41458 v -1.07569 q 0,-0.41458 -0.40337,-0.41458 h -0.29693 q -0.45941,0 -0.45941,0.47622 v 0.95241 q 0,0.47622 0.45941,0.47622 z"
       id="text1-8-7-5-7-8"
       aria-label="cv32e40p" />
    <path
       style="font-weight:600;font-size:3.90381px;font-family:Rajdhani;-inkscape-font-specification:'Rajdhani Semi-Bold';text-align:center;text-anchor:middle;fill:#ffffff;stroke-width:0.466875"
       d="m 346.54389,140.50555 h 0.30814 q 0.41458,0 0.41458,-0.40899 v -0.29133 q 0,-0.40338 -0.41458,-0.40338 h -0.33056 q -0.20729,0 -0.30814,0.0953 -0.0953,0.0953 -0.0953,0.30813 v 0.16248 q 0,0.0953 -0.0953,0.0953 h -0.35856 q -0.0953,0 -0.0953,-0.0953 v -0.17368 q 0,-0.40899 0.22969,-0.63309 0.22971,-0.22409 0.64429,-0.22409 h 0.48742 q 0.41458,0 0.64429,0.22409 0.22971,0.2241 0.22971,0.63309 v 0.30813 q 0,0.49303 -0.44821,0.62749 0.44821,0.10649 0.44821,0.62749 v 0.32494 q 0,0.40897 -0.22971,0.63308 -0.22971,0.2241 -0.64429,0.2241 h -0.48742 q -0.41458,0 -0.64429,-0.2241 -0.22969,-0.22411 -0.22969,-0.63308 v -0.19616 q 0,-0.10089 0.0953,-0.10089 h 0.35856 q 0.0953,0 0.0953,0.10089 v 0.18489 q 0,0.20729 0.0953,0.30814 0.10089,0.0953 0.30814,0.0953 h 0.33056 q 0.41458,0 0.41458,-0.40337 v -0.30814 q 0,-0.40898 -0.41458,-0.40898 h -0.30814 q -0.0953,0 -0.0953,-0.0953 v -0.25211 q 0,-0.10089 0.0953,-0.10089 z m 4.29152,2.0337 h -1.03086 q -0.0953,0 -0.0953,-0.0953 v -0.27452 q 0,-0.0897 0.0953,-0.0897 h 0.94122 q 0.36417,0 0.36417,-0.25211 v -0.0673 q 0,-0.2241 -0.26332,-0.34175 l -0.61068,-0.29133 q -0.28572,-0.13448 -0.41458,-0.29693 -0.12888,-0.16247 -0.12888,-0.42579 0,-0.72273 0.80117,-0.72273 h 0.93001 q 0.0897,0 0.0897,0.0953 v 0.27453 q 0,0.0953 -0.0897,0.0953 h -0.81797 q -0.16807,0 -0.25771,0.0616 -0.0897,0.056 -0.0897,0.15127 v 0.0616 q 0,0.17928 0.28573,0.31374 l 0.61627,0.31375 q 0.29134,0.12887 0.39778,0.30814 0.11208,0.17366 0.11208,0.45379 0,0.72833 -0.83477,0.72833 z m 1.89365,0 h -0.35296 q -0.0953,0 -0.0953,-0.0953 v -3.74807 q 0,-0.0953 0.0953,-0.0953 h 0.35296 q 0.0953,0 0.0953,0.0953 v 3.74807 q 0,0.0953 -0.0953,0.0953 z m 2.13455,0 h -0.49302 q -0.41459,0 -0.64429,-0.22971 -0.2241,-0.22969 -0.2241,-0.63868 v -1.1205 q 0,-0.41458 0.2241,-0.63869 0.2297,-0.22969 0.64429,-0.22969 h 0.49302 q 0.40898,0 0.63868,0.22969 0.23531,0.22411 0.23531,0.63869 v 1.1205 q 0,0.40899 -0.23531,0.63868 -0.2297,0.22971 -0.63868,0.22971 z m -0.41459,-0.47621 h 0.34176 q 0.40337,0 0.40337,-0.40898 v -1.08689 q 0,-0.40899 -0.40337,-0.40899 h -0.34176 q -0.21289,0 -0.30814,0.10089 -0.0953,0.0953 -0.0953,0.30814 v 1.08689 q 0,0.21289 0.0953,0.31374 0.0953,0.0953 0.30814,0.0953 z m 2.0169,-1.90486 H 356.197 q -0.056,0 -0.0784,-0.0168 -0.0168,-0.0224 -0.0168,-0.0728 v -0.29133 q 0,-0.0953 0.0953,-0.0953 h 0.26892 q 0.056,0 0.056,-0.056 v -0.50423 q 0,-0.0953 0.10089,-0.0953 h 0.35296 q 0.0953,0 0.0953,0.0953 v 0.50423 q 0,0.056 0.0616,0.056 h 0.52103 q 0.10089,0 0.10089,0.0953 v 0.29133 q 0,0.0897 -0.10089,0.0897 h -0.52103 q -0.0616,0 -0.0616,0.056 v 1.43984 q 0,0.40899 0.42018,0.40899 h 0.2185 q 0.10089,0 0.10089,0.0953 v 0.29134 q 0,0.0897 -0.10089,0.0897 h -0.30254 q -0.41458,0 -0.64989,-0.22409 -0.2353,-0.22412 -0.2353,-0.63309 v -1.46786 q 0,-0.056 -0.056,-0.056 z m 2.9021,2.38107 h -1.03085 q -0.0953,0 -0.0953,-0.0953 v -0.27452 q 0,-0.0897 0.0953,-0.0897 h 0.94122 q 0.36415,0 0.36415,-0.25211 v -0.0673 q 0,-0.2241 -0.26331,-0.34175 l -0.61068,-0.29133 q -0.28572,-0.13448 -0.41458,-0.29693 -0.12887,-0.16247 -0.12887,-0.42579 0,-0.72273 0.80116,-0.72273 h 0.93001 q 0.0897,0 0.0897,0.0953 v 0.27453 q 0,0.0953 -0.0897,0.0953 h -0.81797 q -0.16807,0 -0.25771,0.0616 -0.0897,0.056 -0.0897,0.15127 v 0.0616 q 0,0.17928 0.28572,0.31374 l 0.61628,0.31375 q 0.29133,0.12887 0.39777,0.30814 0.11209,0.17366 0.11209,0.45379 0,0.72833 -0.83478,0.72833 z"
       id="text1-8-7-5-7-2-1"
       aria-label="3 slots" />
    <rect
       style="fill:#1a57a9;fill-opacity:1;stroke-width:0.505005"
       id="rect1-2-0-5"
       width="39.506744"
       height="50.901371"
       x="237.59584"
       y="113.15"
       ry="1.2252835" />
    <rect
       style="fill:#bd4c96;fill-opacity:1;stroke-width:0.26285"
       id="rect1-7-0-0"
       width="39.506744"
       height="13.789468"
       x="237.59584"
       y="168.98796"
       ry="1.2045559" />
    <path
       style="font-weight:600;font-size:5.73885px;font-family:Rajdhani;-inkscape-font-specification:'Rajdhani Semi-Bold';fill:#ffffff;stroke-width:0.686335"
       d="m 254.18635,173.37479 v 5.01575 q 0,0.14007 -0.14007,0.14007 h -0.51887 q -0.14007,0 -0.14007,-0.14007 v -5.01575 q 0,-0.14007 0.14007,-0.14007 h 0.51887 q 0.14007,0 0.14007,0.14007 z m 1.58133,5.15576 h -0.46945 q -0.17297,0 -0.11539,-0.14825 0.1812,-0.46122 0.92245,-2.48728 0.74124,-2.02607 0.93067,-2.51199 0.0659,-0.14825 0.18943,-0.14825 h 0.47768 q 0.15649,0 0.10707,0.15649 l -1.85311,4.99103 q -0.0494,0.14825 -0.18944,0.14825 z m 4.29921,-0.70006 h 0.71654 q 0.60123,0 0.60123,-0.60947 v -2.67672 q 0,-0.60946 -0.60123,-0.60946 h -0.71654 q -0.593,0 -0.593,0.60946 v 2.67672 q 0,0.60947 0.593,0.60947 z m 0.84007,0.70006 h -0.95537 q -0.60947,0 -0.94715,-0.33767 -0.32945,-0.33769 -0.32945,-0.93891 v -2.74261 q 0,-0.60947 0.32945,-0.93891 0.33768,-0.33767 0.94715,-0.33767 h 0.95537 q 0.60948,0 0.94715,0.33767 0.33767,0.32944 0.33767,0.93891 v 2.74261 q 0,0.60122 -0.33767,0.93891 -0.33767,0.33767 -0.94715,0.33767 z"
       id="text1-7-9-9"
       aria-label="I/O" />
    <path
       style="fill:none;fill-opacity:1;stroke:#000000;stroke-width:1.38491;stroke-dasharray:none;stroke-opacity:1;marker-start:url(#Triangle-6-7-2-5);marker-end:url(#Triangle-6-7-2-5)"
       d="m 285.17772,149.49915 h 8.41315"
       id="path4-41-7-6-7" />
    <path
       style="font-weight:600;font-size:5.73885px;font-family:Rajdhani;-inkscape-font-specification:'Rajdhani Semi-Bold';text-align:center;text-anchor:middle;fill:#ffffff;stroke-width:0.466875"
       d="m 248.2111,128.70525 h 0.92243 q 0.14007,0 0.14007,0.14007 v 5.01575 q 0,0.14007 -0.14007,0.14007 h -0.51063 q -0.14007,0 -0.14007,-0.14007 v -4.1592 h -0.033 l -1.07069,3.01439 q -0.0494,0.13175 -0.18118,0.13175 h -0.52711 q -0.12357,0 -0.17295,-0.13175 l -1.0954,-3.02263 h -0.033 v 4.16744 q 0,0.0824 -0.033,0.11524 -0.0247,0.0247 -0.10706,0.0247 h -0.5024 q -0.14007,0 -0.14007,-0.14007 v -5.01575 q 0,-0.14007 0.14007,-0.14007 h 0.92245 q 0.0906,0 0.13175,0.0906 l 1.12833,3.17911 h 0.0412 l 1.13659,-3.17911 q 0.0165,-0.0906 0.12356,-0.0906 z m 5.15576,5.29578 h -1.77898 q -0.60948,0 -0.94715,-0.33768 -0.32944,-0.33769 -0.32944,-0.93891 v -1.64721 q 0,-0.60947 0.32944,-0.93891 0.33767,-0.33767 0.94715,-0.33767 h 0.67535 q 0.60947,0 0.94714,0.33767 0.33768,0.32944 0.33768,0.93891 v 1.04597 q 0,0.14825 -0.14825,0.14825 h -2.20726 q -0.0906,0 -0.0906,0.0824 v 0.35415 q 0,0.60124 0.60123,0.60124 h 1.66368 q 0.14825,0 0.14825,0.14825 v 0.4118 q 0,0.13174 -0.14825,0.13174 z m -2.17432,-2.28962 h 1.47426 q 0.0824,0 0.0824,-0.0824 v -0.52711 q 0,-0.31296 -0.14007,-0.45298 -0.14007,-0.14825 -0.45299,-0.14825 h -0.45299 q -0.31296,0 -0.45298,0.14825 -0.14007,0.14007 -0.14007,0.45298 v 0.52711 q 0,0.0824 0.0824,0.0824 z m 3.92037,2.28962 h -0.51888 q -0.14007,0 -0.14007,-0.14007 v -3.92036 q 0,-0.14007 0.14007,-0.14007 h 0.51888 q 0.14007,0 0.14007,0.14007 v 0.2965 h 0.033 q 0.23885,-0.43651 0.87302,-0.43651 h 0.27179 q 0.71653,0 1.02127,0.54357 0.13174,-0.26355 0.40356,-0.40356 0.27179,-0.14007 0.58476,-0.14007 h 0.26355 q 0.60124,0 0.91421,0.33768 0.3212,0.32943 0.3212,0.93891 v 2.78378 q 0,0.14007 -0.14007,0.14007 h -0.52711 q -0.14007,0 -0.14007,-0.14007 v -2.75085 q 0,-0.60946 -0.59299,-0.60946 h -0.23885 q -0.68358,0 -0.68358,0.71654 v 2.64377 q 0,0.14007 -0.14825,0.14007 h -0.51888 q -0.14006,0 -0.14006,-0.14007 v -2.75085 q 0,-0.60946 -0.593,-0.60946 h -0.28827 q -0.67534,0 -0.67534,0.70006 v 2.66025 q 0,0.14007 -0.14007,0.14007 z m 7.74188,0 h -0.72477 q -0.60948,0 -0.94715,-0.33768 -0.32944,-0.33769 -0.32944,-0.93891 v -1.64721 q 0,-0.60947 0.32944,-0.93891 0.33767,-0.33767 0.94715,-0.33767 h 0.72477 q 0.60122,0 0.93891,0.33767 0.34591,0.32944 0.34591,0.93891 v 1.64721 q 0,0.60122 -0.34591,0.93891 -0.33769,0.33768 -0.93891,0.33768 z m -0.60947,-0.70007 h 0.50239 q 0.593,0 0.593,-0.60123 v -1.5978 q 0,-0.60122 -0.593,-0.60122 h -0.50239 q -0.31297,0 -0.45298,0.14825 -0.14007,0.14007 -0.14007,0.45297 v 1.5978 q 0,0.31297 0.14007,0.46122 0.14007,0.14007 0.45298,0.14007 z m 3.50031,0.70007 h -0.51886 q -0.14007,0 -0.14007,-0.14007 v -3.92036 q 0,-0.14007 0.14007,-0.14007 h 0.51886 q 0.14007,0 0.14007,0.14007 v 0.31296 h 0.033 q 0.0824,-0.2059 0.31297,-0.32943 0.23884,-0.12357 0.5271,-0.12357 h 0.30474 q 0.14007,0 0.14007,0.14007 v 0.42828 q 0,0.15648 -0.14007,0.13174 h -0.49416 q -0.6836,0 -0.6836,0.74947 v 2.61084 q 0,0.14007 -0.14007,0.14007 z m 2.59436,1.33423 h -0.43651 q -0.14007,0 -0.14007,-0.14007 v -0.42004 q 0,-0.14825 0.14007,-0.14825 h 0.18942 q 0.5024,0 0.69182,-0.19766 0.19768,-0.19766 0.32945,-0.65065 h -0.32945 q -0.12356,0 -0.17294,-0.14007 l -1.0954,-3.69797 q -0.033,-0.14007 0.10706,-0.14007 h 0.55181 q 0.13175,0 0.16472,0.14007 l 0.89773,3.22853 h 0.033 l 0.89773,-3.22853 q 0.0247,-0.14007 0.16472,-0.14007 h 0.5271 q 0.15649,0 0.13175,0.14825 l -1.12835,3.96152 q -0.18943,0.69184 -0.53534,1.05423 -0.34591,0.37061 -0.98832,0.37061 z"
       id="text1-8-7-5-9-7-8"
       aria-label="Memory&#10;" />
    <g
       id="text1-8-7-5-6-2-1"
       style="font-size:3.90381px;font-family:Rajdhani;-inkscape-font-specification:Rajdhani;text-align:center;text-anchor:middle;fill:#ffffff;stroke-width:0.325317"
       aria-label="&#10;64MiB&#10;20 Cycles"
       transform="matrix(1.4351383,0,0,1.4351383,-103.38704,-45.713461)">
      <path
         style="font-weight:600;-inkscape-font-specification:'Rajdhani Semi-Bold'"
         d="m 247.42146,129.77245 h 0.26546 q 0.28107,0 0.28107,-0.28888 v -0.31231 q 0,-0.28888 -0.28107,-0.28888 h -0.54653 v 0.60119 q 0,0.28888 0.28107,0.28888 z m 0.32011,0.33182 h -0.37476 q -0.28888,0 -0.44894,-0.16005 -0.16006,-0.16006 -0.16006,-0.44504 v -1.29997 q 0,-0.28888 0.16006,-0.44503 0.16006,-0.16006 0.44894,-0.16006 h 0.77686 q 0.0664,0 0.0664,0.0664 v 0.203 q 0,0.0625 -0.0664,0.0625 h -0.72221 q -0.28107,0 -0.28107,0.28888 v 0.33573 h 0.60118 q 0.28889,0 0.44894,0.16005 0.16006,0.15615 0.16006,0.44504 v 0.34353 q 0,0.28498 -0.16006,0.44504 -0.16005,0.16005 -0.44894,0.16005 z"
         id="path23" />
      <path
         style="font-weight:600;-inkscape-font-specification:'Rajdhani Semi-Bold'"
         d="m 249.84963,129.29228 v -1.38195 l -0.76905,1.38195 z m 0.29669,0.81199 h -0.23033 q -0.0664,0 -0.0664,-0.0664 v -0.4099 h -1.03061 q -0.11321,0 -0.11321,-0.11321 v -0.12102 q 0,-0.0859 0.0351,-0.15225 l 0.87055,-1.54981 q 0.0312,-0.0586 0.0585,-0.0781 0.0273,-0.0195 0.082,-0.0195 h 0.34354 q 0.11321,0 0.11321,0.11321 v 1.58495 h 0.28498 q 0.0664,0 0.0664,0.0664 v 0.19519 q 0,0.0742 -0.0664,0.0742 h -0.28498 v 0.4099 q 0,0.0664 -0.0625,0.0664 z m 2.49454,-2.51015 h 0.43722 q 0.0664,0 0.0664,0.0664 v 2.37742 q 0,0.0664 -0.0664,0.0664 h -0.24203 q -0.0664,0 -0.0664,-0.0664 v -1.97143 h -0.0156 l -0.5075,1.4288 q -0.0234,0.0625 -0.0859,0.0625 h -0.24985 q -0.0585,0 -0.082,-0.0625 l -0.5192,-1.4327 h -0.0156 v 1.97533 q 0,0.039 -0.0156,0.0546 -0.0117,0.0117 -0.0507,0.0117 h -0.23814 q -0.0664,0 -0.0664,-0.0664 v -2.37742 q 0,-0.0664 0.0664,-0.0664 h 0.43723 q 0.0429,0 0.0625,0.0429 l 0.53482,1.50688 h 0.0195 l 0.53873,-1.50688 q 0.008,-0.0429 0.0586,-0.0429 z m 1.05403,0.18739 v -0.35525 q 0,-0.0625 0.0625,-0.0625 h 0.25374 q 0.0625,0 0.0625,0.0625 v 0.35525 q 0,0.0664 -0.0625,0.0664 h -0.25374 q -0.0625,0 -0.0625,-0.0664 z m 0,2.2564 v -1.85822 q 0,-0.0664 0.0625,-0.0664 h 0.24984 q 0.0664,0 0.0664,0.0664 v 1.85822 q 0,0.039 -0.0156,0.0546 -0.0117,0.0117 -0.0469,0.0117 h -0.24984 q -0.0664,0 -0.0664,-0.0664 z m 1.35071,-0.25765 h 0.54654 q 0.29278,0 0.29278,-0.28108 v -0.24203 q 0,-0.28108 -0.3084,-0.28108 h -0.53092 q -0.0429,0 -0.0429,0.039 v 0.72611 q 0,0.039 0.0429,0.039 z m 0,-1.11649 h 0.5075 q 0.29669,0 0.29669,-0.28498 v -0.17958 q 0,-0.28107 -0.28888,-0.28107 h -0.51531 q -0.0429,0 -0.0429,0.039 v 0.66755 q 0,0.039 0.0429,0.039 z m -0.42161,1.37414 v -2.37742 q 0,-0.0664 0.0664,-0.0664 h 0.9252 q 0.28888,0 0.44894,0.15616 0.16005,0.15615 0.16005,0.44113 v 0.19128 q 0,0.33963 -0.32011,0.43723 0.15225,0.0195 0.24985,0.13273 0.10149,0.11321 0.10149,0.3045 v 0.24984 q 0,0.28498 -0.16005,0.44113 -0.16006,0.15615 -0.44504,0.15615 h -0.96033 q -0.0664,0 -0.0664,-0.0664 z"
         id="path24" />
      <path
         style="font-weight:600;-inkscape-font-specification:'Rajdhani Semi-Bold'"
         d="m 244.25547,134.91767 v -0.35915 q 0,-0.24204 0.2069,-0.406 l 0.73782,-0.60118 q 0.18738,-0.14835 0.18738,-0.34354 v -0.12882 q 0,-0.28108 -0.29278,-0.28108 h -0.19129 q -0.14834,0 -0.21471,0.0664 -0.0664,0.0664 -0.0664,0.21471 v 0.14444 q 0,0.0703 -0.0664,0.0703 h -0.24984 q -0.0664,0 -0.0664,-0.0703 v -0.15225 q 0,-0.28498 0.16006,-0.44113 0.16005,-0.15615 0.44894,-0.15615 h 0.30449 q 0.28498,0 0.44504,0.15615 0.16005,0.15615 0.16005,0.44113 v 0.16005 q 0,0.3045 -0.23813,0.49969 l -0.74953,0.6129 q -0.0898,0.0742 -0.0898,0.17567 v 0.12492 h 1.01499 q 0.0703,0 0.0703,0.0664 v 0.2069 q 0,0.0664 -0.0703,0.0664 h -1.37023 q -0.0703,0 -0.0703,-0.0664 z m 2.59213,-0.26546 h 0.27717 q 0.28107,0 0.28107,-0.28888 v -1.26874 q 0,-0.28888 -0.28107,-0.28888 h -0.27717 q -0.28108,0 -0.28108,0.28888 v 1.26874 q 0,0.28888 0.28108,0.28888 z m 0.33182,0.33183 h -0.39038 q -0.28888,0 -0.44894,-0.16006 -0.16006,-0.16006 -0.16006,-0.44504 v -1.29996 q 0,-0.28889 0.16006,-0.44504 0.16006,-0.16005 0.44894,-0.16005 h 0.39038 q 0.28498,0 0.44503,0.16005 0.16006,0.15615 0.16006,0.44504 v 1.29996 q 0,0.28498 -0.16006,0.44504 -0.16005,0.16006 -0.44503,0.16006 z m 3.0684,0 h -0.45285 q -0.28888,0 -0.44893,-0.16006 -0.15616,-0.16006 -0.15616,-0.44504 v -1.29996 q 0,-0.28889 0.15616,-0.44504 0.16005,-0.16005 0.44893,-0.16005 h 0.45285 q 0.28497,0 0.44503,0.16005 0.16006,0.15615 0.16006,0.44504 v 0.18738 q 0,0.0703 -0.0703,0.0703 h -0.24594 q -0.0664,0 -0.0664,-0.0703 v -0.17177 q 0,-0.28888 -0.28107,-0.28888 h -0.33963 q -0.28108,0 -0.28108,0.28888 v 1.26874 q 0,0.28888 0.28108,0.28888 h 0.33963 q 0.28107,0 0.28107,-0.28888 v -0.17177 q 0,-0.0703 0.0664,-0.0703 h 0.24594 q 0.0703,0 0.0703,0.0703 v 0.18738 q 0,0.28498 -0.16006,0.44504 -0.16006,0.16006 -0.44503,0.16006 z m 1.28435,0.63241 h -0.2069 q -0.0664,0 -0.0664,-0.0664 v -0.1991 q 0,-0.0703 0.0664,-0.0703 h 0.0898 q 0.23813,0 0.32792,-0.0937 0.0937,-0.0937 0.15615,-0.3084 h -0.15615 q -0.0586,0 -0.082,-0.0664 l -0.51921,-1.75281 q -0.0156,-0.0664 0.0508,-0.0664 h 0.26156 q 0.0625,0 0.0781,0.0664 l 0.42552,1.53029 h 0.0156 l 0.42552,-1.53029 q 0.0117,-0.0664 0.0781,-0.0664 h 0.24984 q 0.0742,0 0.0625,0.0703 l -0.53482,1.87773 q -0.0898,0.32792 -0.25375,0.49969 -0.16396,0.17567 -0.46846,0.17567 z m 2.79904,-0.89787 v 0.20299 q 0,0.0625 -0.0703,0.0625 h -0.57386 q -0.28888,0 -0.44894,-0.16006 -0.15615,-0.16006 -0.15615,-0.44504 v -0.78076 q 0,-0.28888 0.15615,-0.44503 0.16006,-0.16006 0.44894,-0.16006 h 0.57386 q 0.0703,0 0.0703,0.0664 v 0.203 q 0,0.0625 -0.0703,0.0625 h -0.51921 q -0.28107,0 -0.28107,0.28888 v 0.74953 q 0,0.28888 0.28107,0.28888 h 0.51921 q 0.0703,0 0.0703,0.0664 z m 0.70269,0.26546 h -0.24594 q -0.0664,0 -0.0664,-0.0664 v -2.61165 q 0,-0.0664 0.0664,-0.0664 h 0.24594 q 0.0664,0 0.0664,0.0664 v 2.61165 q 0,0.0664 -0.0664,0.0664 z m 1.98704,0 h -0.84323 q -0.28888,0 -0.44893,-0.16006 -0.15616,-0.16006 -0.15616,-0.44504 v -0.78076 q 0,-0.28888 0.15616,-0.44503 0.16005,-0.16006 0.44893,-0.16006 h 0.32012 q 0.28888,0 0.44893,0.16006 0.16006,0.15615 0.16006,0.44503 v 0.49579 q 0,0.0703 -0.0703,0.0703 h -1.04622 q -0.0429,0 -0.0429,0.039 v 0.16787 q 0,0.28498 0.28498,0.28498 h 0.78857 q 0.0703,0 0.0703,0.0703 v 0.19519 q 0,0.0625 -0.0703,0.0625 z m -1.03061,-1.08526 h 0.69878 q 0.039,0 0.039,-0.039 v -0.24985 q 0,-0.14834 -0.0664,-0.21471 -0.0664,-0.0703 -0.21471,-0.0703 h -0.21471 q -0.14835,0 -0.21471,0.0703 -0.0664,0.0664 -0.0664,0.21471 v 0.24985 q 0,0.039 0.039,0.039 z m 2.2564,1.08526 h -0.7183 q -0.0664,0 -0.0664,-0.0664 v -0.19129 q 0,-0.0625 0.0664,-0.0625 h 0.65584 q 0.25375,0 0.25375,-0.17567 v -0.0468 q 0,-0.15616 -0.18348,-0.23814 l -0.42551,-0.20299 q -0.1991,-0.0937 -0.28889,-0.20691 -0.0898,-0.11321 -0.0898,-0.29669 0,-0.50359 0.55824,-0.50359 h 0.64803 q 0.0625,0 0.0625,0.0664 v 0.19128 q 0,0.0664 -0.0625,0.0664 h -0.56995 q -0.11712,0 -0.17958,0.0429 -0.0625,0.039 -0.0625,0.1054 v 0.0429 q 0,0.12492 0.19909,0.21861 l 0.42942,0.21861 q 0.203,0.0898 0.27717,0.21471 0.0781,0.12102 0.0781,0.31621 0,0.5075 -0.58167,0.5075 z"
         id="path25" />
    </g>
  </g>
</svg>
